<?xml version="1.0" encoding="UTF-8"?>
<svg id="Calque_2" data-name="Calque 2" xmlns="http://www.w3.org/2000/svg" viewBox="0 0 1197.45 546.39">
  <defs>
    <style>
      .cls-1 {
        letter-spacing: .19em;
      }

      .cls-2 {
        fill: #009fe3;
      }

      .cls-3 {
        font-family: Avenir-Heavy, Avenir;
        font-size: 40.04px;
        letter-spacing: -.03em;
      }

      .cls-3, .cls-4, .cls-5 {
        fill: #189cd8;
        font-weight: 800;
      }

      .cls-4 {
        letter-spacing: .08em;
      }

      .cls-4, .cls-5 {
        font-family: Avenir-Black, Avenir;
        font-size: 60.07px;
      }

      .cls-6 {
        fill: #88c351;
      }

      .cls-7 {
        fill: #006eab;
      }

      .cls-8 {
        letter-spacing: .19em;
      }

      .cls-9 {
        fill: #f33d2c;
      }

      .cls-10 {
        fill: #ffaf2e;
      }

      .cls-11 {
        fill: #ffcf48;
      }

      .cls-12 {
        fill: #a252cc;
      }

      .cls-13 {
        letter-spacing: .1em;
      }

      .cls-14 {
        fill: #e4190e;
      }
    </style>
  </defs>
  <g id="Calque_1-2" data-name="Calque 1">
    <g>
      <g>
        <path class="cls-11" d="M79.01,280.6s.01,0,.01,0c1.32-12.6,3.57-29.54,16.52-40.72,57.01-49.22,118.05-20.7,181.26-75.92l5.59-4.9c10.66-9.34,15.72-23.59,13.12-37.52C278.57,30.61,179.37-30.53,79.62,15.94,48.98,30.22,24.93,55.76,12.34,87.13c-32.86,81.85,3.5,159.78,66.67,193.47ZM115.79,81.32c58.1-30.98,116.55,27.46,85.56,85.56-4.51,8.46-11.47,15.42-19.93,19.93-58.1,30.98-116.55-27.46-85.56-85.56,4.51-8.46,11.47-15.42,19.93-19.93Z"/>
        <path class="cls-12" d="M104.97,385.19c-3.57-4.73-11.15-13.08-14.62-18.82,0,0,0,0,0,0,4.14,29,8.79,62.94-12.45,84.18-4.52,4.52-5.38,12.15-5.45,14.16l-3.41,72.66c-.14,3.65,1.96,7.02,5.3,8.5,3.23,1.44,6.31-.24,6.85-3.73l10.19-65.72c.95-6.15,4.02-11.89,8.81-16.31l1.94-1.8c.68-.63,1.22-1.4,1.58-2.25,18.79-44,9.38-60.1,1.27-70.87Z"/>
        <path class="cls-9" d="M79.52,303.58c2.23-2.88,3.14-6.57,2.8-10.2l-.36-3.94c-.25-2.61-2.72-3.44-4.07-1.94-8.37,9.28-30.71,31.64-56.46,37.21,0,0-2.44,1.09-3.99,3.58-1.44,2.32.76,5.24,3.44,4.74,11.82-2.21,43.39-9.78,58.63-29.45Z"/>
        <path class="cls-14" d="M407.6,36.2c-9.95-6.59-15.13,2.26-20.61,4.82-8.08,3.77-24.89-1.16-29.24-6.26-4.35-5.09-8.72-9.2-22.62-11.06-12.48-1.68-50.55-8.45-58.18-9.81-.89-.16-1.79.19-2.3.95-1.92,2.82-4.88,10.36,9.39,18.97,18.14,10.94,16.32,24.11,40.11,39.74,29.99,19.7,51.93,18.7,61.51,42.26,1.02,2.5,4.75,1.65,4.52-1.04-.98-11.01-3.51-26.26-9.47-45.51,0,0,.01,0,.02,0,1.28,1.55-3.2-26.99,14.31-10.96,7.36,6.73,24.71-4.64,30.41-8.22,2.27-1.42-11.73-9.81-17.85-13.86Z"/>
        <path class="cls-10" d="M115.79,186.81c58.11,30.99,116.55-27.46,85.56-85.56-4.51-8.46-11.47-15.42-19.93-19.93-58.1-30.98-116.54,27.46-85.56,85.56,4.51,8.46,11.47,15.42,19.93,19.93Z"/>
        <path class="cls-11" d="M308.13,376.15c-6.35-.34-5.63,3.87-4.04,10.36,2.46,10.03,4.59,19.85,5.9,30.18,3.07,24.3,4.17,49.22,1.14,73.57,4.71,9.05,13.23,5.81,13.68-.08l2.19-75.59-.44-8.69c-1.78-12.41.13-26.38-15.5-29.38-1.11-.21-2.09-.34-2.93-.39Z"/>
        <path class="cls-2" d="M320.26,133.61s0-.01-.01,0c-2.93,5.59-6.73,11.58-11.59,17.94-25.46,33.4-62.7,55.73-103.75,64.44-15.25,3.27-31.73,6.34-49.61,9.18,0,0,0,0-.01,0-.35.02-43.55,2.98-61.97,37.61-.5.93.6,1.94,1.47,1.3,16.52-11.58,47.39-32.14,97.81-22.32.7.1,7.17,1.9,7.31,2.47.47,1.87-3.77,1.2-4.37,1.07-2.1-.47-26.7.67-29.5,1.13-6.54,1.13-13.05,2.67-19.39,4.64-16.22,5.01-31.5,12.68-45.25,22.59-5.04,3.67-9.44,7.94-14.08,11.61-.9.73-1.57,1.8-1.77,2.97-3.04,15.32,20.72-5.51,32.1-9.11,18.42-5.91,52.09-14.58,75.35-7.61,1.07.33,2.44.3,3.24,1.17-.53.73-1.6.57-2.44.73-1.43.2-2.87.27-4.3.47-5.11.67-10.24.57-15.42.57-1.1,0-2.24,0-3.34.03-9.44.2-18.89,2.44-28,4.5-7.84,1.77-15.48,4.24-22.82,7.47-8.91,3.94-16.75,7.74-24.89,12.85-1.9,1.17-3.94,2.44-6.01,3.67-2.24,1.33-3.54,3.8-3.3,6.37.63,6.14,1.97,23.23,9.41,14.98,2.3-2.57,3.87-3,6.84-4.91,13.71-8.81,29.97-14.42,45.85-16.08,8.61-.9,17.32-1.87,26-1.5,4,.17,7.94.67,11.81,1.7,1.53.4,7.51,2.2,3.14,3.47-2.6.77-23.46-4.67-50.66,5.17-9.91,3.6-19.42,8.31-28.23,14.05-1.8,1.17-3.6,2.44-5.41,3.7-2.77,2-5.31,4.2-7.81,6.37-.27.2-.47.43-.73.63-2.27,2.04-3.14,5.21-2.17,8.11.5,1.47.5,7.14,5.77,2.77,6.27-5.21,13.85-9.04,21.62-11.88,6.41-2.37,13.08-4.1,19.69-4.61,15.22-1.23,32.34,1.84,32.34,1.84,8.44,3.84-29.37.2-46.38,7.58-6.34,2.77-12.85,6.57-19.65,11.25-8.61,5.91-5.74,10.75-4.4,12.81,3.47,5.74,8.34,10.54,12.21,16.12,6.84,9.88,19.69,23.09.17,68.07-1.07,2.44-7.17,9.51-4.07,16.45l29.67,73.41c.87,2.2,3.07,3.64,5.44,3.6h8.79c-10.88-22.24-18.71-71.08,3.06-112.59,19.45-37.11,32.1-62.67,51.99-85.56-.03.03-.07.03-.07.03,4.61-8.71,18.15-27.9,35.07-47.49,22.35-32.93,59.85-95.34,75.27-163.26ZM153.72,365.38c-2.47.63-5.04,1-7.57,1.13-4.24.27-7.88,1.27-15.52,3.17-3.47.83-14.35,7.48-14.05,2.9,6.94-7.44,14.12-11.48,23.19-12.21,3.07-.23,6.17-.37,9.28-.47,5.37-.23,10.78-.5,15.98-1.33,6.44,2.14-7.21,5.77-11.31,6.81Z"/>
        <path class="cls-7" d="M376.64,299.9c.93-5.61,1.33-11.41,1.4-17.35.13-8.31-11.25-50.05-60.1-42.65-21.12,3.17-50.08,30.46-72.94,56.96,0,0,0,0,0,0,22.36-32.94,59.86-95.37,75.28-163.31,3.3-14.62,5.61-29.5,6.51-44.42.17-2.84,2.97-4.81,5.67-3.87,14.05,4.87,50.85,20.02,54.66,46.85,0,0,0,0,0,0,0,.16,4.83,115.53-10.48,167.78Z"/>
        <path class="cls-6" d="M378.04,282.55c-.07,5.94-.47,11.75-1.4,17.35-1.03,6.77-2.87,13.21-5.71,19.25-9.04,19.15-8.98,73.25-8.98,73.25-.4-.43,7.74,108.95,7.74,108.95.37,3.4-2.1,6.44-5.51,6.81-3.2.33-6.14-1.84-6.71-5.01l-19.42-99.28c-20.42-91.77-125.17-60.1-128.04-59.57h-.03s-.07.03-.07.03c4.61-8.71,18.15-27.9,35.07-47.49,22.86-26.5,51.82-53.79,72.95-56.96,48.85-7.41,60.23,34.34,60.1,42.65Z"/>
      </g>
      <g>
        <g>
          <path class="cls-2" d="M957.77,103.85v51.92h71.11v179.6h65.51v-179.6h70.78v-51.92h-207.39Z"/>
          <path class="cls-2" d="M514.18,203.79c-11.58,2.17-22.93,4.64-34.2,7.91-9.47,2.77-19.02,5.97-28.89,8.47,0,0,0,0,0,0,.03,7.86.73,15.48,2.09,22.81,0,.02.03.03.04.02,7.53-4.66,15.33-8.89,23.49-12.49,11.18-5.07,23.19-8.41,35.14-10.61,1.79-.33,3.58-.63,5.4-.93.02,0,.04-.03.04-.05,0-5.65.58-10.97,1.69-16.06,0,0-4.79.92-4.79.92ZM691.74,157.74c-11.15-18.29-26.46-32.64-45.98-42.98-19.52-10.38-41.51-15.55-66.01-15.55s-46.45,5.17-65.97,15.55c-19.52,10.34-34.84,24.69-45.98,42.98-6.23,10.22-10.69,21.18-13.43,32.83,0,.03.02.05.05.03,7.39-4.56,15.01-8.68,23-12.21,11.18-5.07,23.19-8.38,35.14-10.61,10.38-1.94,20.89-3,31.33-3.44,1.33-.93,2.7-1.8,4.14-2.64,9.48-5.51,20.06-8.28,31.73-8.28s22.29,2.77,31.77,8.28c9.48,5.54,16.99,13.28,22.49,23.33,5.51,10.04,8.28,21.56,8.28,34.57s-2.77,24.53-8.28,34.57c-5.51,10.04-13.01,17.79-22.49,23.33-9.48,5.51-20.09,8.24-31.77,8.24s-22.26-2.74-31.73-8.24c-2.54-1.47-4.94-3.11-7.18-4.94-9.23.78-18.01,1.48-27.06,3.07-8.88,1.43-26.19,5.57-27.16,3.97-1-1.64,16.79-7.64,25.69-10.31,4.4-1.43,8.98-2.44,13.58-3.3,2.05-.37,4.05-.64,6.04-.88.02,0,.03-.02.02-.04-3.22-6.75-4.38-6.21-5.81-9.61-2.06-4.9-8.96-1.75-12.66-1.05-11.58,2.17-22.89,4.64-34.2,7.91-6.11,1.77-12.28,3.74-18.52,5.61,2.04,4.64,4.37,9.14,7.04,13.55,11.15,18.29,26.46,32.64,45.98,42.98,19.52,10.38,41.51,15.55,65.97,15.55s46.48-5.17,66.01-15.55c19.52-10.34,34.84-24.69,45.98-42.98,11.11-18.32,16.68-38.94,16.68-61.87s-5.57-43.55-16.68-61.87ZM514.52,178.43c-11.58,2.14-22.93,4.64-34.2,7.91-8.81,2.54-17.65,5.51-26.76,7.91,0,0,0,0,0,0-1.53,7.57-2.37,15.45-2.44,23.59,8.31-5.27,16.89-10.04,25.96-14.05,11.18-5.07,23.16-8.38,35.11-10.61,3.4-.63,6.83-1.17,10.26-1.63,0,0,.02,0,.02-.02.87-2.23,1.9-4.4,3.06-6.49,1.9-3.5,4.06-6.69,6.49-9.62,0,0,0-.02,0-.02-5.86.93-11.7,1.93-17.49,3.03ZM517.41,231.64c-.54-1.24-2.26-1.39-3.6-1.12-11.58,2.17-22.93,4.64-34.2,7.91-8.51,2.47-17.05,5.31-25.83,7.68,1.23,5.93,2.93,11.65,5.09,17.18,0,.02.03.03.05.02,5.63-3.26,11.46-6.26,17.49-8.92,11.18-5.04,23.16-8.38,35.11-10.61,2.98-.53,5.96-1.03,8.93-1.42,0,0,.01,0,0-.01-1.43-4.98-1.8-7.87-3.04-10.69Z"/>
          <path class="cls-2" d="M880.72,103.85v123.37l-101.61-122.64c-.38-.46-.95-.72-1.54-.72h-52.98v231.52h64.17v-123.37l100.17,120.9c1.3,1.56,3.22,2.47,5.25,2.47h50.72V103.85h-64.17Z"/>
        </g>
        <text class="cls-4" transform="translate(458.88 498.21)"><tspan x="0" y="0">DU TOURISME</tspan></text>
        <text class="cls-3" transform="translate(952.79 498.21)"><tspan x="0" y="0">RD.CONGO</tspan></text>
        <text class="cls-5" transform="translate(456.85 428.17)"><tspan class="cls-1" x="0" y="0">OFFICE N</tspan><tspan class="cls-13" x="376.01" y="0">A</tspan><tspan class="cls-8" x="426.4" y="0">TIONAL </tspan></text>
      </g>
    </g>
  </g>
</svg>