<svg xmlns="http://www.w3.org/2000/svg" viewBox="0 0 115.3 34.12"><defs><style>.cls-1{fill:#428fc1;}</style></defs><g id="Calque_2" data-name="Calque 2"><g id="Calque_1-2" data-name="Calque 1"><path class="cls-1" d="M0,4.54A4.46,4.46,0,0,1,4.71,0a4.47,4.47,0,0,1,4.7,4.54,4.47,4.47,0,0,1-4.7,4.54A4.47,4.47,0,0,1,0,4.54m7.44,0A2.68,2.68,0,0,0,4.71,1.66,2.68,2.68,0,0,0,2,4.54,2.69,2.69,0,0,0,4.71,7.42,2.69,2.69,0,0,0,7.44,4.54"/><polygon class="cls-1" points="10.76 8.92 10.76 0.14 17.13 0.14 17.13 1.79 12.68 1.79 12.68 3.63 17.04 3.63 17.04 5.28 12.68 5.28 12.68 8.92 10.76 8.92"/><polygon class="cls-1" points="18.47 8.92 18.47 0.14 24.84 0.14 24.84 1.79 20.38 1.79 20.38 3.63 24.74 3.63 24.74 5.28 20.38 5.28 20.38 8.92 18.47 8.92"/><rect class="cls-1" x="26.17" y="0.14" width="1.92" height="8.78"/><path class="cls-1" d="M29.44,4.54A4.52,4.52,0,0,1,34.25,0,4.11,4.11,0,0,1,38,2.14l-1.65.79a2.44,2.44,0,0,0-2.1-1.27,2.77,2.77,0,0,0-2.84,2.88,2.77,2.77,0,0,0,2.84,2.88,2.44,2.44,0,0,0,2.1-1.27L38,6.92a4.15,4.15,0,0,1-3.75,2.16,4.52,4.52,0,0,1-4.81-4.54"/><polygon class="cls-1" points="39.15 8.92 39.15 0.14 45.52 0.14 45.52 1.79 41.06 1.79 41.06 3.63 45.42 3.63 45.42 5.28 41.06 5.28 41.06 7.28 45.52 7.28 45.52 8.92 39.15 8.92"/><polygon class="cls-1" points="56.69 8.92 52.4 3.2 52.4 8.92 50.48 8.92 50.48 0.14 52.45 0.14 56.63 5.66 56.63 0.14 58.54 0.14 58.54 8.92 56.69 8.92"/><path class="cls-1" d="M66.55,8.92,66,7.43H62.12l-.57,1.49H59.38L62.85.14h2.4l3.47,8.78ZM64.05,2l-1.4,3.78h2.8Z"/><polygon class="cls-1" points="70.77 8.92 70.77 1.79 68.14 1.79 68.14 0.14 75.32 0.14 75.32 1.79 72.7 1.79 72.7 8.92 70.77 8.92"/><rect class="cls-1" x="76.55" y="0.14" width="1.92" height="8.78"/><path class="cls-1" d="M79.82,4.54a4.7,4.7,0,0,1,9.4,0,4.7,4.7,0,0,1-9.4,0m7.43,0a2.73,2.73,0,1,0-5.46,0,2.73,2.73,0,1,0,5.46,0"/><polygon class="cls-1" points="96.78 8.92 92.49 3.2 92.49 8.92 90.57 8.92 90.57 0.14 92.54 0.14 96.72 5.66 96.72 0.14 98.63 0.14 98.63 8.92 96.78 8.92"/><path class="cls-1" d="M106.64,8.92l-.57-1.49h-3.86l-.57,1.49H99.47L102.94.14h2.4l3.47,8.78ZM104.14,2l-1.4,3.78h2.8Z"/><polygon class="cls-1" points="109.56 8.92 109.56 0.14 111.5 0.14 111.5 7.28 115.3 7.28 115.3 8.92 109.56 8.92"/><path class="cls-1" d="M0,21.63V12.85H3.55c2.82,0,4.78,1.75,4.78,4.38s-2,4.4-4.77,4.4Zm6.37-4.4a2.6,2.6,0,0,0-2.81-2.74H1.92V20H3.55a2.66,2.66,0,0,0,2.82-2.75"/><path class="cls-1" d="M9.69,18.11V12.85h2v5.21a1.92,1.92,0,0,0,2.11,2.07,1.92,1.92,0,0,0,2.11-2.07V12.85h2v5.26c0,2.17-1.33,3.67-4.07,3.67s-4.06-1.5-4.06-3.67"/><polygon class="cls-1" points="25.15 21.63 25.15 14.49 22.52 14.49 22.52 12.85 29.7 12.85 29.7 14.49 27.08 14.49 27.08 21.63 25.15 21.63"/><path class="cls-1" d="M30.17,17.24a4.47,4.47,0,0,1,4.71-4.54,4.54,4.54,0,1,1,0,9.08,4.46,4.46,0,0,1-4.71-4.54m7.44,0a2.74,2.74,0,1,0-5.47,0,2.74,2.74,0,1,0,5.47,0"/><path class="cls-1" d="M40.93,18.11V12.85h1.94v5.21a2.12,2.12,0,0,0,4.23,0V12.85h1.95v5.26c0,2.17-1.32,3.67-4.06,3.67s-4.06-1.5-4.06-3.67"/><path class="cls-1" d="M55.92,21.63l-1.76-3.12H52.75v3.12H50.83V12.85h4.22a2.78,2.78,0,0,1,3,2.83,2.54,2.54,0,0,1-2,2.6l2,3.35Zm.19-6a1.2,1.2,0,0,0-1.33-1.18h-2v2.37h2a1.2,1.2,0,0,0,1.33-1.19"/><rect class="cls-1" x="59.51" y="12.85" width="1.92" height="8.78"/><path class="cls-1" d="M62.59,20.39l1-1.46a4,4,0,0,0,2.87,1.2c1.06,0,1.56-.46,1.56-1,0-1.52-5.18-.46-5.18-3.76,0-1.46,1.29-2.67,3.41-2.67a5.1,5.1,0,0,1,3.51,1.22l-1.06,1.4a3.92,3.92,0,0,0-2.62-1c-.81,0-1.27.34-1.27.86,0,1.39,5.17.45,5.17,3.73,0,1.6-1.19,2.81-3.6,2.81a5.27,5.27,0,0,1-3.84-1.39"/><polygon class="cls-1" points="79.14 21.63 79.14 15.3 76.6 21.63 75.77 21.63 73.23 15.3 73.23 21.63 71.31 21.63 71.31 12.85 74 12.85 76.18 18.34 78.37 12.85 81.07 12.85 81.07 21.63 79.14 21.63"/><polygon class="cls-1" points="82.85 21.63 82.85 12.85 89.22 12.85 89.22 14.49 84.77 14.49 84.77 16.34 89.13 16.34 89.13 17.98 84.77 17.98 84.77 19.98 89.22 19.98 89.22 21.63 82.85 21.63"/><path class="cls-1" d="M.77,29.23v3.21H0v-7.3H2.71a2.31,2.31,0,0,1,1.62.53,2.26,2.26,0,0,1,.17,2.81,2,2,0,0,1-1.15.68l1.72,3.28H4.18L2.53,29.23Zm1.88-.66a1.57,1.57,0,0,0,1.1-.36,1.52,1.52,0,0,0,0-2,1.58,1.58,0,0,0-1.1-.35H.77v2.74Z"/><path class="cls-1" d="M8.84,25.14a2.5,2.5,0,0,1,1.85.67,2.84,2.84,0,0,1,.68,2.12v1.72a2.86,2.86,0,0,1-.68,2.12,2.5,2.5,0,0,1-1.85.67H6.34v-7.3Zm1.75,4.55V28a2.41,2.41,0,0,0-.45-1.62,1.63,1.63,0,0,0-1.29-.51H7.13v5.91H8.85C10,31.74,10.59,31.06,10.59,29.69Z"/><path class="cls-1" d="M13.56,31.47v1h-.93v-1Z"/><path class="cls-1" d="M14.83,29.73V27.84a2.87,2.87,0,0,1,.69-2.13A2.59,2.59,0,0,1,17.4,25a2.9,2.9,0,0,1,1.31.28,2,2,0,0,1,.87.78,2.19,2.19,0,0,1,.31,1.18v0h-.78v0a1.43,1.43,0,0,0-.46-1.13,1.81,1.81,0,0,0-1.25-.41,1.74,1.74,0,0,0-1.34.5,2.34,2.34,0,0,0-.46,1.63v1.9c0,1.37.6,2.05,1.81,2.05a1.81,1.81,0,0,0,1.25-.41,1.43,1.43,0,0,0,.45-1.12v0h.76v0a2.1,2.1,0,0,1-.67,1.63,2.57,2.57,0,0,1-1.8.61,2.63,2.63,0,0,1-1.88-.67A2.87,2.87,0,0,1,14.83,29.73Z"/><path class="cls-1" d="M21.21,30.3V29.2a2.21,2.21,0,0,1,.56-1.67A2.14,2.14,0,0,1,23.28,27a2.05,2.05,0,0,1,1.47.53,2.21,2.21,0,0,1,.56,1.67v1.1A2.24,2.24,0,0,1,24.75,32a2.05,2.05,0,0,1-1.47.53A2.14,2.14,0,0,1,21.77,32,2.22,2.22,0,0,1,21.21,30.3Zm3.38,0v-1A1.72,1.72,0,0,0,24.23,28a1.25,1.25,0,0,0-.95-.35,1.33,1.33,0,0,0-1,.35,1.72,1.72,0,0,0-.36,1.24v1a1.74,1.74,0,0,0,.36,1.25,1.37,1.37,0,0,0,1,.35,1.29,1.29,0,0,0,.95-.35A1.74,1.74,0,0,0,24.59,30.26Z"/><path class="cls-1" d="M27.44,27.07v.66a1.45,1.45,0,0,1,.61-.54,1.92,1.92,0,0,1,.84-.18,1.73,1.73,0,0,1,1.32.5,2.06,2.06,0,0,1,.46,1.41v3.52H30V29a1.41,1.41,0,0,0-.33-1,1.16,1.16,0,0,0-.91-.35,1.21,1.21,0,0,0-.92.35,1.39,1.39,0,0,0-.34,1v3.42h-.72V27.07Z"/><path class="cls-1" d="M32.18,32.71h.72a.82.82,0,0,0,.37.56,1.35,1.35,0,0,0,.82.22q1.26,0,1.26-1.41v-.75a1.41,1.41,0,0,1-.58.58,1.7,1.7,0,0,1-.87.21,1.73,1.73,0,0,1-1.31-.54,2.38,2.38,0,0,1-.5-1.68v-.74a2.31,2.31,0,0,1,.5-1.66A1.73,1.73,0,0,1,33.91,27a1.55,1.55,0,0,1,1.44.81V27h.73v5a2.18,2.18,0,0,1-.53,1.54,1.91,1.91,0,0,1-1.46.56,2.19,2.19,0,0,1-1.35-.38A1.39,1.39,0,0,1,32.18,32.71Zm3.17-2.86v-.58A2,2,0,0,0,35,28.06a1.12,1.12,0,0,0-1-.45c-.82,0-1.23.54-1.23,1.6v.65c0,1.07.39,1.6,1.18,1.6A1.19,1.19,0,0,0,35,31,1.88,1.88,0,0,0,35.35,29.85Z"/><path class="cls-1" d="M37.5,30.3V29.2a2.17,2.17,0,0,1,.56-1.67,2.1,2.1,0,0,1,1.5-.53,2.06,2.06,0,0,1,1.48.53,2.21,2.21,0,0,1,.56,1.67v1.1A2.24,2.24,0,0,1,41,32a2.06,2.06,0,0,1-1.48.53,2.1,2.1,0,0,1-1.5-.53A2.18,2.18,0,0,1,37.5,30.3Zm3.38,0v-1A1.72,1.72,0,0,0,40.52,28a1.29,1.29,0,0,0-1-.35,1.32,1.32,0,0,0-1,.35,1.72,1.72,0,0,0-.36,1.24v1a1.74,1.74,0,0,0,.36,1.25,1.37,1.37,0,0,0,1,.35,1.33,1.33,0,0,0,1-.35A1.74,1.74,0,0,0,40.88,30.26Z"/></g></g></svg>