<?xml version="1.0" encoding="UTF-8"?>
<svg id="Calque_2" data-name="Calque 2" xmlns="http://www.w3.org/2000/svg" viewBox="0 0 1074.82 484.75">
  <defs>
    <style>
      .cls-1 {
        letter-spacing: .1em;
      }

      .cls-2 {
        letter-spacing: .08em;
      }

      .cls-2, .cls-3, .cls-4, .cls-5, .cls-6, .cls-7 {
        fill: #fff;
      }

      .cls-2, .cls-4 {
        font-family: Avenir-Black, Avenir;
        font-size: 54.62px;
      }

      .cls-2, .cls-4, .cls-5 {
        font-weight: 800;
      }

      .cls-8 {
        letter-spacing: .19em;
      }

      .cls-5 {
        font-family: Avenir-Heavy, Avenir;
        font-size: 36.41px;
        letter-spacing: -.03em;
      }

      .cls-9 {
        letter-spacing: .19em;
      }

      .cls-6 {
        opacity: .8;
      }

      .cls-7 {
        opacity: .6;
      }
    </style>
  </defs>
  <g id="Calque_1-2" data-name="Calque 1">
    <g>
      <g>
        <g>
          <path class="cls-3" d="M856.87,78.12v41.18c0,1.67,1.35,3.02,3.02,3.02h58.62c1.67,0,3.02,1.35,3.02,3.02v157.28c0,1.67,1.35,3.02,3.02,3.02h53.53c1.67,0,3.02-1.35,3.02-3.02V125.34c0-1.67,1.35-3.02,3.02-3.02h58.32c1.67,0,3.02-1.35,3.02-3.02v-41.18c0-1.67-1.35-3.02-3.02-3.02h-182.55c-1.67,0-3.02,1.35-3.02,3.02Z"/>
          <path class="cls-3" d="M453.49,165.98c-10.53,1.97-20.85,4.22-31.1,7.19-7.88,2.3-15.81,4.94-23.98,7.11-1.34.36-2.29,1.58-2.26,2.97.11,4.75.49,9.4,1.14,13.94.3,2.12,2.67,3.28,4.51,2.19,5.68-3.35,11.54-6.42,17.62-9.1,10.17-4.61,21.09-7.65,31.95-9.65.82-.15,1.64-.3,2.46-.44,1.44-.25,2.48-1.47,2.52-2.93.09-2.7.33-5.31.71-7.85.31-2.07-1.48-3.84-3.53-3.44-.01,0-.03,0-.04,0ZM614.96,124.11c-10.14-16.63-24.06-29.68-41.82-39.08-17.75-9.44-37.75-14.14-60.02-14.14s-42.24,4.7-59.99,14.14c-17.75,9.41-31.68,22.46-41.82,39.08-4.35,7.14-7.75,14.67-10.23,22.58-.83,2.65,1.97,4.92,4.38,3.56,4.73-2.68,9.58-5.15,14.58-7.36,10.17-4.61,21.09-7.62,31.95-9.65,9.16-1.71,18.44-2.67,27.67-3.09.54-.02,1.06-.2,1.51-.51,1-.67,2.02-1.31,3.08-1.93,8.62-5.01,18.24-7.53,28.86-7.53s20.27,2.52,28.89,7.53c8.62,5.04,15.45,12.08,20.45,21.21,5.01,9.13,7.53,19.6,7.53,31.44s-2.52,22.3-7.53,31.44c-5.01,9.13-11.83,16.17-20.45,21.21-8.62,5.01-18.27,7.5-28.89,7.5s-20.24-2.49-28.86-7.5c-1.96-1.13-3.83-2.38-5.6-3.75-.6-.47-1.36-.71-2.12-.64-7.96.67-15.58,1.31-23.42,2.69-8.07,1.3-23.82,5.06-24.7,3.61-.91-1.49,15.26-6.95,23.37-9.38,4.01-1.3,8.16-2.22,12.35-3,.43-.08.86-.15,1.29-.22,2.15-.35,3.21-2.8,2.03-4.63-1.4-2.15-2.19-2.56-3.09-4.72-1.87-4.45-8.15-1.59-11.52-.95-10.53,1.97-20.82,4.22-31.1,7.19-4.47,1.29-8.98,2.71-13.53,4.09-1.79.55-2.64,2.55-1.83,4.24,1.48,3.09,3.12,6.11,4.92,9.09,10.14,16.63,24.06,29.68,41.82,39.08,17.75,9.44,37.75,14.14,59.99,14.14s42.27-4.7,60.02-14.14c17.75-9.41,31.68-22.46,41.82-39.08,10.1-16.66,15.17-35.41,15.17-56.26s-5.07-39.6-15.17-56.26ZM453.79,142.92c-10.53,1.94-20.85,4.22-31.1,7.19-7.42,2.14-14.87,4.61-22.51,6.7-1.12.31-1.98,1.21-2.19,2.35-.84,4.52-1.4,9.16-1.67,13.9-.14,2.42,2.5,4,4.58,2.76,6.07-3.64,12.31-6.95,18.85-9.84,10.17-4.61,21.06-7.62,31.92-9.65,2.53-.47,5.09-.88,7.64-1.25,1.05-.15,1.93-.85,2.35-1.83.64-1.48,1.36-2.92,2.14-4.33.56-1.03,1.14-2.03,1.76-3.01,1.38-2.21-.51-5.01-3.08-4.57-2.91.5-5.8,1.02-8.69,1.57ZM456.43,191.31c-.49-1.12-2.06-1.26-3.27-1.02-10.53,1.97-20.85,4.22-31.1,7.19-6.84,1.99-13.71,4.23-20.72,6.21-1.55.44-2.51,2-2.14,3.56.76,3.21,1.68,6.36,2.76,9.45.62,1.79,2.69,2.58,4.35,1.67,4.17-2.3,8.45-4.44,12.85-6.39,10.17-4.58,21.06-7.62,31.92-9.65,1.61-.29,3.21-.56,4.82-.81,1.75-.27,2.88-2.01,2.45-3.73-.67-2.68-1.07-4.6-1.9-6.49Z"/>
          <path class="cls-3" d="M786.8,78.12v100.78c0,2.83-3.54,4.11-5.35,1.93l-86.15-103.98c-.92-1.11-2.29-1.75-3.73-1.75h-43.74c-1.67,0-3.02,1.35-3.02,3.02v204.49c0,1.67,1.35,3.02,3.02,3.02h52.31c1.67,0,3.02-1.35,3.02-3.02v-100.78c0-2.83,3.54-4.11,5.35-1.93l84.83,102.39c1.75,2.11,4.35,3.34,7.1,3.34h41.68c1.67,0,3.02-1.35,3.02-3.02V78.12c0-1.67-1.35-3.02-3.02-3.02h-52.31c-1.67,0-3.02,1.35-3.02,3.02Z"/>
        </g>
        <text class="cls-2" transform="translate(403.21 433.71)"><tspan x="0" y="0">DU TOURISME</tspan></text>
        <text class="cls-5" transform="translate(852.34 433.71)"><tspan x="0" y="0">RD.CONGO</tspan></text>
        <text class="cls-4" transform="translate(401.35 370.02)"><tspan class="cls-9" x="0" y="0">OFFICE N</tspan><tspan class="cls-1" x="341.92" y="0">A</tspan><tspan class="cls-8" x="387.75" y="0">TIONAL </tspan></text>
      </g>
      <g>
        <path class="cls-6" d="M82.84,338.08c-1.92-2.47-5.09-6.02-8.06-9.59-1.56-1.87-4.68-.58-4.36,1.8,3.24,24.06,4.62,50.18-13.03,67.26-4.24,4.11-5.06,11.06-5.12,12.89l-3.2,66.11c-.14,3.32,1.84,6.38,4.98,7.73,3.04,1.31,5.93-.22,6.43-3.4l9.58-59.8c.89-5.6,3.78-10.81,8.28-14.84h0c1.84-1.65,3.31-3.65,4.27-5.89,16.37-38.36,7.71-52.65.23-62.27Z"/>
        <path class="cls-3" d="M58.92,263.83c2.1-2.62,2.96-5.98,2.63-9.28l-.34-3.59c-.23-2.38-2.56-3.13-3.82-1.76-7.87,8.45-28.87,28.79-53.07,33.86,0,0-2.3.99-3.75,3.26-1.35,2.12.71,4.77,3.23,4.31,11.11-2.01,40.79-8.9,55.11-26.8Z"/>
        <path class="cls-3" d="M367.31,20.55c-9.35-6-14.23,2.06-19.38,4.39-7.59,3.43-23.39-1.05-27.48-5.69-4.09-4.63-8.2-8.37-21.27-10.06-11.73-1.53-47.51-7.69-54.69-8.93-.84-.14-1.68.18-2.16.86-1.8,2.57-4.59,9.42,8.83,17.26,17.05,9.96,16.3,20.88,38.66,35.1,28.19,17.92,45.19,18.12,56.86,39.51,1.18,2.17,4.47,1.5,4.25-.95-.81-8.84-2.76-20.7-7.06-35.41-1.21-4.14-1.76-8.47-1.34-12.76.57-5.88,2.9-12.13,12.97-3.21,6.91,6.13,23.23-4.22,28.59-7.48,2.13-1.3-11.02-8.92-16.77-12.62Z"/>
        <path class="cls-6" d="M268.68,329.86c-5.97-.31-5.29,3.52-3.8,9.43,2.31,9.13,4.32,18.06,5.55,27.46,2.76,21.12,3.82,42.76,1.43,63.97-.32,2.81.9,5.67,3.39,7.15,4.16,2.46,8.79-.21,9.11-4.25l2.03-67.95c-.15-3.06-.3-6.11-.45-9.16-1.57-11.18,0-23.6-14.5-26.29-1.05-.19-1.96-.31-2.76-.35Z"/>
        <path class="cls-3" d="M274.3,125.51c-8,10.14-17.22,19.18-27.4,26.96-20.32,15.6-44.4,26.35-70.1,31.64-14.33,2.97-29.85,5.77-46.67,8.35,0,0-40.86,2.58-58.21,34.22-.48.83.52,1.75,1.35,1.18,15.51-10.53,44.53-29.24,91.95-20.28.66.04,6.73,1.7,6.86,2.23.44,1.7-3.54,1.09-4.11.96-1.97-.44-25.08.61-27.71,1.05-6.16,1.01-12.28,2.4-18.27,4.2-15.21,4.59-29.59,11.54-42.52,20.58-.13.09-.26.17-.39.26-4.55,3.28-8.61,7.04-12.85,10.31-.83.66-1.44,1.62-1.66,2.67-2.84,13.94,19.49-4.98,30.2-8.3h.04c17.31-5.38,48.95-13.24,70.75-6.9,1.05.31,2.32.26,3.06,1.05-.48.7-1.49.52-2.27.7-1.35.17-2.71.22-4.06.44-4.76.61-9.61.48-14.51.48-1.01,0-2.1,0-3.1.04-8.87.17-17.79,2.23-26.35,4.11-3.23.7-6.47,1.53-9.66,2.53-4.02,1.18-7.91,2.62-11.76,4.24-8.39,3.58-15.78,7.04-23.42,11.71-1.79,1.05-3.67,2.23-5.64,3.32-2.1,1.22-3.32,3.5-3.1,5.81.61,5.59,1.84,21.15,8.83,13.63,2.19-2.36,3.67-2.75,6.47-4.46,12.85-8.04,28.14-13.11,43.09-14.64,8.09-.83,16.26-1.7,24.43-1.35,3.76.13,7.47.61,11.1,1.53,1.44.35,7.08,2.01,2.97,3.15-2.45.74-22.07-4.24-47.64,4.72-9.31,3.28-18.27,7.56-26.53,12.8-1.7,1.05-3.41,2.19-5.11,3.36-2.58,1.84-4.98,3.8-7.34,5.81-.22.17-.44.35-.66.57-2.14,1.84-2.97,4.72-2.05,7.39.48,1.31.48,6.47,5.42,2.49,5.9-4.72,13.02-8.22,20.32-10.79,6.03-2.14,12.32-3.76,18.53-4.2,14.29-1.14,30.37,1.66,30.37,1.66,7.95,3.5-27.58.17-43.57,6.9-5.99,2.49-12.11,5.99-18.49,10.23-8.09,5.38-5.42,9.79-4.15,11.67,3.28,5.2,7.43,6.95,11.1,12.06,6.38,8.96,19.84,31.86.52,64.55-1.22,2.1-6.73,8.65-3.8,14.95l27.88,66.82c.79,1.97,2.88,3.32,5.11,3.28h.09c3.8-.04,6.38-3.67,5.07-7.12-8.39-22.33-12.37-61.49,5.94-95.31,9.83-18.18,23.21-39.33,33.52-54.98,1.18-1.84,2.36-3.63,3.45-5.29,3.98-7.04,9.88-16.91,17.26-27.93.22-.39.52-.79.83-1.22,2.19-3.32,4.59-6.73,7.08-10.23.13-.22.31-.48.52-.7,27.58-40.47,65.81-102.57,81.94-156.8-.96,1.27-1.92,2.58-2.97,3.89ZM140.48,315.79c-.17.17-.44.35-.74.57-1.14.66-2.93,1.35-4.81,1.97-.35.09-.7.22-1.01.31-1.22.35-2.4.7-3.41.96-.44.13-.83.22-1.18.31-.13.04-.26.04-.35.09-.09.04-.22.04-.31.09-1.18.26-2.36.48-3.54.66-1.22.17-2.4.31-3.58.35-4.02.26-7.43,1.18-14.6,2.88-3.28.79-13.5,6.82-13.2,2.67.83-.87,1.66-1.66,2.45-2.4.92-.83,1.79-1.57,2.71-2.23.35-.31.7-.57,1.05-.83.35-.26.7-.48,1.09-.74.96-.61,1.97-1.22,2.97-1.75.66-.31,1.31-.61,2.01-.87.44-.22.83-.39,1.27-.52.66-.26,1.31-.48,1.97-.66.31-.09.66-.17.96-.26.61-.17,1.22-.31,1.84-.39,1.14-.22,2.32-.39,3.5-.48,2.88-.17,5.81-.31,8.7-.44,1.09-.04,2.23-.09,3.32-.13.17,0,.31,0,.48-.04,1.27-.04,2.54-.13,3.8-.22,1.88-.13,3.76-.26,5.59-.52.61-.09,1.22-.17,1.84-.26.57.17.96.39,1.22.57.09.04.13.13.17.17.13.13.22.26.22.44,0,.22-.17.48-.44.74Z"/>
        <path class="cls-6" d="M341.68,245.87c-1.44-8.39-4.06-15.6-7.91-21.68-4.02-6.38-8.61-10.18-12.24-12.41-3.58-2.19-6.21-2.8-6.29-2.8-31.81-13.68-64.33,6.69-91.03,34.39t-.04.04l-.04.04c-.57.57-1.09,1.09-1.66,1.7,23.99-38.46,49.12-85.31,60.57-127.43.44-1.62.87-3.23,1.27-4.85.31-1.22.57-2.45.87-3.63,0-.04,0-.09.04-.13,3.1-13.29,5.29-26.83,6.12-40.42.17-2.58,3.58-5.59,6.12-4.76,13.24,4.46,49.34,19.67,50.61,43.88,0,0,3.76,86.53-6.38,138.05Z"/>
        <path class="cls-3" d="M338.54,258.06v.17c-.09.74-.22,1.49-.35,2.23-.96,6.21-2.67,12.06-5.33,17.52-8.52,17.44-8.43,66.64-8.43,66.64-.39-.39,7.25,99.16,7.25,99.16.35,3.1-1.97,5.86-5.16,6.16-3.02.31-5.77-1.66-6.34-4.55l-15.82-78.31c-2.05-10.1-5.86-19.84-11.54-28.41-35.92-54.23-95.18-41.91-97.67-41.43l-9.13,2.93c1.7-2.58,3.45-5.29,5.33-8.08,1.84-2.67,3.76-5.42,5.73-8.22,28.76-40.34,74.16-89.06,116.81-70.75.09,0,9.22,2.23,16.3,13.55,3.98,6.34,7.69,16.26,8.35,31.38Z"/>
        <ellipse class="cls-3" cx="121.08" cy="122.45" rx="49.91" ry="50.47"/>
        <path class="cls-7" d="M121.78,0C55.27-.39,1.43,52.58.03,119.79c-.96,46.37,23.55,87.01,60.35,108.64,1.92-8.08,5.46-16.3,12.59-22.55,51.31-44.79,106.24-18.84,163.09-69.09.04-.04.09-.04.13-.09t.09-.04c3.76-3.41,5.86-8.35,5.9-13.42v-.79C242.18,55.07,188.34.4,121.78,0ZM176.14,126.08c-1.75,27.75-24.04,50.26-51.48,52-33.26,2.14-60.75-25.61-58.6-59.26,1.7-27.75,23.99-50.3,51.44-52.05,33.3-2.14,60.74,25.65,58.65,59.3Z"/>
      </g>
    </g>
  </g>
</svg>