<?xml version="1.0" encoding="UTF-8"?>
<svg id="Calque_2" data-name="Calque 2" xmlns="http://www.w3.org/2000/svg" viewBox="0 0 1027.07 484.75">
  <defs>
    <style>
      .cls-1, .cls-2, .cls-3 {
        fill: #fff;
      }

      .cls-2 {
        opacity: .8;
      }

      .cls-3 {
        opacity: .6;
      }
    </style>
  </defs>
  <g id="Calque_1-2" data-name="Calque 1">
    <g>
      <g>
        <g>
          <path class="cls-1" d="M417.63,272.63h21.46c5.2,0,10.13.58,14.81,1.74,4.68,1.16,8.76,3.04,12.25,5.64,3.49,2.6,6.25,5.98,8.3,10.13,2.05,4.16,3.07,9.2,3.07,15.13,0,5.26-1,9.89-2.98,13.9-1.99,4-4.66,7.37-8.03,10.09-3.36,2.72-7.25,4.79-11.65,6.19-4.4,1.41-9.02,2.11-13.85,2.11h-23.39v-64.94ZM431.94,324.36h7.43c3.3,0,6.38-.34,9.22-1.01,2.84-.67,5.3-1.79,7.38-3.35,2.08-1.56,3.72-3.61,4.91-6.15,1.19-2.54,1.79-5.64,1.79-9.31,0-3.18-.6-5.94-1.79-8.3-1.19-2.35-2.8-4.3-4.81-5.82-2.02-1.53-4.39-2.68-7.11-3.44-2.72-.76-5.58-1.15-8.58-1.15h-8.44v38.52Z"/>
          <path class="cls-1" d="M539.52,312.53c0,3.85-.58,7.4-1.74,10.64-1.16,3.24-2.89,6.05-5.18,8.44-2.29,2.39-5.15,4.25-8.57,5.6-3.43,1.34-7.37,2.02-11.83,2.02s-8.5-.67-11.92-2.02c-3.43-1.34-6.28-3.21-8.58-5.6-2.29-2.38-4.02-5.19-5.18-8.44-1.16-3.24-1.74-6.79-1.74-10.64v-39.9h14.31v39.35c0,2.02.32,3.89.96,5.6.64,1.71,1.54,3.19,2.71,4.45,1.16,1.25,2.55,2.23,4.17,2.93,1.62.7,3.38,1.06,5.27,1.06s3.64-.35,5.23-1.06c1.59-.7,2.96-1.68,4.13-2.93,1.16-1.25,2.06-2.74,2.71-4.45.64-1.71.96-3.58.96-5.6v-39.35h14.31v39.9Z"/>
          <path class="cls-1" d="M587.49,285.29h-18.53v-12.66h51.36v12.66h-18.53v52.28h-14.31v-52.28Z"/>
          <path class="cls-1" d="M621.61,305.1c0-5.2.87-9.91,2.61-14.12,1.74-4.22,4.17-7.81,7.29-10.78,3.12-2.96,6.82-5.24,11.1-6.83,4.28-1.59,8.96-2.38,14.03-2.38s9.75.79,14.03,2.38c4.28,1.59,7.98,3.87,11.1,6.83,3.12,2.97,5.55,6.56,7.29,10.78,1.74,4.22,2.61,8.93,2.61,14.12s-.87,9.91-2.61,14.13c-1.74,4.22-4.17,7.81-7.29,10.78-3.12,2.97-6.82,5.25-11.1,6.83-4.28,1.59-8.96,2.38-14.03,2.38s-9.76-.79-14.03-2.38c-4.28-1.59-7.98-3.87-11.1-6.83-3.12-2.96-5.55-6.56-7.29-10.78-1.74-4.22-2.61-8.93-2.61-14.13ZM636.47,305.1c0,3.06.47,5.86,1.42,8.39.95,2.54,2.31,4.74,4.08,6.6,1.77,1.87,3.9,3.32,6.38,4.36,2.47,1.04,5.24,1.56,8.3,1.56s5.82-.52,8.3-1.56c2.47-1.04,4.6-2.49,6.37-4.36,1.77-1.86,3.13-4.06,4.08-6.6.95-2.54,1.42-5.33,1.42-8.39s-.47-5.78-1.42-8.35c-.95-2.57-2.31-4.78-4.08-6.65-1.77-1.86-3.9-3.32-6.37-4.36-2.48-1.04-5.25-1.56-8.3-1.56s-5.83.52-8.3,1.56c-2.48,1.04-4.6,2.49-6.38,4.36-1.77,1.87-3.13,4.08-4.08,6.65-.95,2.57-1.42,5.35-1.42,8.35Z"/>
          <path class="cls-1" d="M753.68,312.53c0,3.85-.58,7.4-1.74,10.64-1.16,3.24-2.89,6.05-5.18,8.44-2.29,2.39-5.15,4.25-8.57,5.6-3.43,1.34-7.37,2.02-11.83,2.02s-8.5-.67-11.92-2.02c-3.43-1.34-6.28-3.21-8.58-5.6-2.29-2.38-4.02-5.19-5.18-8.44-1.16-3.24-1.74-6.79-1.74-10.64v-39.9h14.31v39.35c0,2.02.32,3.89.96,5.6.64,1.71,1.54,3.19,2.71,4.45,1.16,1.25,2.55,2.23,4.17,2.93,1.62.7,3.38,1.06,5.27,1.06s3.64-.35,5.23-1.06c1.59-.7,2.96-1.68,4.13-2.93,1.16-1.25,2.06-2.74,2.71-4.45.64-1.71.96-3.58.96-5.6v-39.35h14.31v39.9Z"/>
          <path class="cls-1" d="M764.41,272.63h25.13c3.3,0,6.43.32,9.4.96,2.96.64,5.56,1.71,7.79,3.21,2.23,1.5,4,3.52,5.32,6.05,1.32,2.54,1.97,5.7,1.97,9.49,0,4.59-1.19,8.48-3.58,11.69-2.38,3.21-5.87,5.25-10.45,6.1l16.51,27.42h-17.15l-13.57-25.96h-7.06v25.96h-14.31v-64.94ZM778.72,299.51h8.44c1.28,0,2.64-.05,4.08-.14,1.43-.09,2.74-.37,3.9-.83,1.16-.46,2.12-1.18,2.89-2.16.77-.98,1.15-2.35,1.15-4.13,0-1.65-.34-2.97-1.01-3.94-.67-.98-1.53-1.73-2.57-2.25-1.04-.52-2.23-.87-3.58-1.06-1.34-.18-2.66-.27-3.94-.27h-9.36v14.77Z"/>
          <path class="cls-1" d="M821.18,272.63h14.31v64.94h-14.31v-64.94Z"/>
          <path class="cls-1" d="M878.14,288.5c-1.16-1.47-2.74-2.55-4.72-3.26-1.99-.7-3.87-1.06-5.64-1.06-1.04,0-2.11.12-3.21.37-1.1.25-2.14.63-3.12,1.15-.98.52-1.77,1.21-2.38,2.06-.61.86-.92,1.9-.92,3.12,0,1.96.73,3.46,2.2,4.49,1.47,1.04,3.32,1.93,5.55,2.66,2.23.73,4.63,1.47,7.2,2.2,2.57.74,4.97,1.77,7.2,3.12,2.23,1.34,4.08,3.15,5.55,5.41,1.47,2.26,2.2,5.29,2.2,9.08s-.67,6.76-2.02,9.45c-1.35,2.69-3.16,4.92-5.46,6.7-2.29,1.77-4.95,3.09-7.98,3.94-3.03.86-6.22,1.28-9.58,1.28-4.22,0-8.13-.64-11.74-1.93-3.61-1.28-6.97-3.36-10.09-6.24l10.18-11.19c1.47,1.96,3.32,3.47,5.55,4.54,2.23,1.07,4.54,1.6,6.93,1.6,1.16,0,2.34-.14,3.53-.41,1.19-.28,2.26-.69,3.21-1.24.95-.55,1.71-1.25,2.29-2.11.58-.86.87-1.87.87-3.03,0-1.96-.75-3.5-2.25-4.63-1.5-1.13-3.38-2.09-5.64-2.89-2.26-.79-4.71-1.59-7.34-2.39-2.63-.79-5.08-1.86-7.34-3.21-2.26-1.34-4.14-3.12-5.64-5.32-1.5-2.2-2.25-5.11-2.25-8.71s.69-6.54,2.06-9.17c1.38-2.63,3.21-4.83,5.5-6.6,2.29-1.77,4.94-3.1,7.93-3.99,3-.89,6.08-1.33,9.27-1.33,3.67,0,7.21.52,10.64,1.56,3.42,1.04,6.51,2.78,9.27,5.23l-9.81,10.73Z"/>
          <path class="cls-1" d="M896.21,272.63h21.65l14.95,42.37h.18l15.04-42.37h21.55v64.94h-14.31v-49.8h-.18l-17.06,49.8h-10.91l-16.42-49.8h-.18v49.8h-14.31v-64.94Z"/>
          <path class="cls-1" d="M980.86,272.63h44.12v13.21h-29.81v12.11h28.16v13.21h-28.16v13.21h31.46v13.21h-45.77v-64.94Z"/>
        </g>
        <g>
          <path class="cls-1" d="M420.68,416.12v-46.3h16.35c8.89,0,17,3.14,17,13.27,0,6.93-4.19,11.64-10.72,12.56l12.29,20.47h-9.94l-10.72-19.62h-6.02v19.62h-8.24ZM428.92,389.44h6.8c4.71,0,9.68-.65,9.68-6.41,0-5.3-4.77-6.15-9.09-6.15h-7.39v12.56Z"/>
          <path class="cls-1" d="M478.04,369.82c11.97,0,23.35,7.59,23.35,23.15,0,16.42-14.26,23.15-24.33,23.15h-17.46v-46.3h18.44ZM474.32,408.66c9.87,0,18.44-4.45,18.44-15.7s-7.26-15.7-17.33-15.7h-7.59v31.39h6.47Z"/>
          <path class="cls-1" d="M516.71,411.41c0,2.88-2.42,5.1-5.23,5.1s-5.23-2.16-5.23-4.97,2.42-5.1,5.23-5.1,5.23,2.09,5.23,4.97Z"/>
          <path class="cls-1" d="M562.23,375.96l-6.41,4.71c-2.68-2.88-5.69-4.58-9.74-4.58-9.48,0-15.89,7.32-15.89,16.55s6.15,17.2,15.89,17.2c4.38,0,7.78-2.29,10.4-5.62l6.8,4.84c-3.99,5.62-10.46,8.24-17.27,8.24-14.26,0-24.46-9.74-24.46-24.13s9.68-24.53,24.46-24.53c6.6,0,11.84,2.36,16.22,7.32Z"/>
          <path class="cls-1" d="M588.41,417.3c-14.26,0-24.33-9.81-24.33-24.13,0-13.34,8.63-24.53,24.78-24.53,14.65,0,24.33,9.81,24.33,24.26s-10.53,24.39-24.79,24.39ZM588.61,409.84c10.01,0,15.96-7.78,15.96-17.2s-6.54-16.55-16.02-16.55-15.83,7.39-15.83,16.55,5.95,17.2,15.89,17.2Z"/>
          <path class="cls-1" d="M618.78,416.12v-46.3h10.92l22.43,34.4h.13v-34.4h8.24v46.3h-10.46l-22.89-35.51h-.13v35.51h-8.24Z"/>
          <path class="cls-1" d="M708.78,374.46l-6.08,6.15c-3.14-3.01-7.78-4.51-12.1-4.51-9.48,0-15.89,7.32-15.89,16.55s6.02,17.2,15.96,17.2c3.47,0,7.52-.59,10.79-2.42v-10.92h-9.48v-7.45h17.72v23.68c-6.15,3.27-12.62,4.58-19.1,4.58-14.39,0-24.52-9.81-24.52-24.13s9.94-24.53,24.52-24.53c6.41,0,13.28,1.37,18.18,5.82Z"/>
          <path class="cls-1" d="M739.01,417.3c-14.26,0-24.33-9.81-24.33-24.13,0-13.34,8.63-24.53,24.78-24.53,14.65,0,24.33,9.81,24.33,24.26s-10.53,24.39-24.79,24.39ZM739.21,409.84c10.01,0,15.96-7.78,15.96-17.2s-6.54-16.55-16.02-16.55-15.83,7.39-15.83,16.55,5.95,17.2,15.89,17.2Z"/>
        </g>
        <g>
          <path class="cls-1" d="M418.64,172.96h20.27l28.78,47.04h.19v-47.04h14.92v67.69h-19.5l-29.54-48.19h-.19v48.19h-14.91v-67.69Z"/>
          <path class="cls-1" d="M535.28,172.96h12.33l29.45,67.69h-16.83l-5.83-14.34h-26.29l-5.64,14.34h-16.44l29.25-67.69ZM541.02,192.66l-8.22,21.03h16.54l-8.32-21.03Z"/>
          <path class="cls-1" d="M604.59,186.16h-19.31v-13.19h53.54v13.19h-19.31v54.5h-14.91v-54.5Z"/>
          <path class="cls-1" d="M662.63,172.96h14.91v67.69h-14.91v-67.69Z"/>
          <path class="cls-1" d="M703.93,206.81c0-5.42.91-10.33,2.72-14.72,1.82-4.4,4.35-8.14,7.6-11.23,3.25-3.09,7.11-5.46,11.57-7.12,4.46-1.66,9.34-2.49,14.63-2.49s10.17.83,14.63,2.49c4.46,1.66,8.32,4.03,11.57,7.12,3.25,3.09,5.79,6.84,7.6,11.23,1.82,4.4,2.73,9.31,2.73,14.72s-.91,10.32-2.73,14.72c-1.81,4.4-4.35,8.14-7.6,11.23-3.25,3.09-7.11,5.47-11.57,7.12-4.46,1.66-9.34,2.49-14.63,2.49s-10.17-.83-14.63-2.49c-4.46-1.66-8.32-4.03-11.57-7.12-3.25-3.09-5.78-6.84-7.6-11.23-1.82-4.4-2.72-9.3-2.72-14.72ZM719.42,206.81c0,3.19.49,6.1,1.48,8.75.99,2.65,2.4,4.94,4.25,6.89,1.85,1.94,4.06,3.46,6.64,4.54,2.58,1.08,5.47,1.62,8.65,1.62s6.07-.54,8.65-1.62c2.58-1.08,4.79-2.6,6.64-4.54,1.85-1.94,3.26-4.24,4.25-6.89.99-2.64,1.48-5.56,1.48-8.75s-.49-6.02-1.48-8.7c-.99-2.68-2.41-4.98-4.25-6.93-1.85-1.94-4.06-3.46-6.64-4.54-2.58-1.08-5.47-1.62-8.65-1.62s-6.07.54-8.65,1.62c-2.58,1.09-4.8,2.6-6.64,4.54-1.85,1.94-3.27,4.25-4.25,6.93-.99,2.68-1.48,5.58-1.48,8.7Z"/>
          <path class="cls-1" d="M803.55,172.96h20.27l28.78,47.04h.19v-47.04h14.92v67.69h-19.5l-29.54-48.19h-.19v48.19h-14.91v-67.69Z"/>
          <path class="cls-1" d="M920.19,172.96h12.33l29.45,67.69h-16.83l-5.83-14.34h-26.29l-5.64,14.34h-16.44l29.25-67.69ZM925.92,192.66l-8.22,21.03h16.54l-8.32-21.03Z"/>
          <path class="cls-1" d="M985.77,172.96h14.91v53.92h25.04v13.77h-39.95v-67.69Z"/>
        </g>
        <g>
          <path class="cls-1" d="M419.07,109.44c0-6.7,1.12-12.77,3.37-18.21,2.25-5.44,5.38-10.07,9.4-13.89,4.02-3.82,8.79-6.76,14.31-8.81,5.52-2.05,11.55-3.08,18.09-3.08s12.57,1.02,18.09,3.08c5.52,2.05,10.29,4.98,14.31,8.81,4.02,3.83,7.15,8.45,9.4,13.89,2.25,5.44,3.37,11.51,3.37,18.21s-1.12,12.77-3.37,18.21c-2.25,5.44-5.38,10.07-9.4,13.89-4.02,3.82-8.79,6.76-14.31,8.81-5.52,2.05-11.55,3.08-18.09,3.08s-12.57-1.02-18.09-3.08c-5.52-2.05-10.29-4.98-14.31-8.81-4.02-3.82-7.15-8.45-9.4-13.89-2.25-5.44-3.37-11.51-3.37-18.21ZM438.23,109.44c0,3.94.61,7.55,1.83,10.82,1.22,3.27,2.97,6.11,5.26,8.51,2.29,2.41,5.03,4.28,8.22,5.62,3.19,1.34,6.76,2.01,10.7,2.01s7.51-.67,10.7-2.01c3.19-1.34,5.93-3.21,8.22-5.62,2.28-2.4,4.04-5.24,5.26-8.51,1.22-3.27,1.83-6.88,1.83-10.82s-.61-7.45-1.83-10.76c-1.22-3.31-2.98-6.17-5.26-8.57-2.29-2.4-5.03-4.28-8.22-5.62-3.19-1.34-6.76-2.01-10.7-2.01s-7.51.67-10.7,2.01c-3.19,1.34-5.93,3.21-8.22,5.62-2.29,2.41-4.04,5.26-5.26,8.57-1.22,3.31-1.83,6.9-1.83,10.76Z"/>
          <path class="cls-1" d="M560.49,67.59h56.17v17.03h-37.72v17.03h34.88v17.03h-34.88v32.64h-18.45v-83.72Z"/>
          <path class="cls-1" d="M664.79,67.59h56.17v17.03h-37.72v17.03h34.88v17.03h-34.88v32.64h-18.45v-83.72Z"/>
          <path class="cls-1" d="M775.45,67.59h18.45v83.72h-18.45v-83.72Z"/>
          <path class="cls-1" d="M903.27,89.34c-1.81-2.21-4.04-3.9-6.68-5.08-2.64-1.18-5.7-1.77-9.16-1.77s-6.68.67-9.64,2.01c-2.96,1.34-5.52,3.21-7.69,5.62-2.17,2.41-3.86,5.26-5.08,8.57-1.22,3.31-1.83,6.9-1.83,10.76s.61,7.55,1.83,10.82c1.22,3.27,2.9,6.11,5.02,8.51,2.13,2.41,4.63,4.28,7.51,5.62,2.88,1.34,5.97,2.01,9.28,2.01,3.78,0,7.13-.79,10.05-2.36,2.92-1.58,5.32-3.78,7.21-6.62l15.37,11.47c-3.55,4.97-8.04,8.63-13.48,11-5.44,2.37-11.04,3.55-16.79,3.55-6.54,0-12.57-1.02-18.09-3.08-5.52-2.05-10.29-4.98-14.31-8.81-4.02-3.82-7.15-8.45-9.4-13.89-2.25-5.44-3.37-11.51-3.37-18.21s1.12-12.77,3.37-18.21c2.25-5.44,5.38-10.07,9.4-13.89,4.02-3.82,8.79-6.76,14.31-8.81,5.52-2.05,11.55-3.08,18.09-3.08,2.37,0,4.83.22,7.39.65,2.56.43,5.08,1.12,7.57,2.07,2.48.94,4.87,2.21,7.15,3.78,2.28,1.58,4.33,3.51,6.15,5.79l-14.19,11.59Z"/>
          <path class="cls-1" d="M968.07,67.59h56.88v17.03h-38.43v15.61h36.3v17.03h-36.3v17.03h40.56v17.03h-59v-83.72Z"/>
        </g>
      </g>
      <g>
        <path class="cls-2" d="M82.84,338.08c-1.92-2.47-5.09-6.02-8.06-9.59-1.56-1.87-4.68-.58-4.36,1.8,3.24,24.06,4.62,50.18-13.03,67.26-4.24,4.11-5.06,11.06-5.12,12.89l-3.2,66.11c-.14,3.32,1.84,6.38,4.98,7.73,3.04,1.31,5.93-.22,6.43-3.4l9.58-59.8c.89-5.6,3.78-10.81,8.28-14.84h0c1.84-1.65,3.31-3.65,4.27-5.89,16.37-38.36,7.71-52.65.23-62.27Z"/>
        <path class="cls-1" d="M58.92,263.83c2.1-2.62,2.96-5.98,2.63-9.28l-.34-3.59c-.23-2.38-2.56-3.13-3.82-1.76-7.87,8.45-28.87,28.79-53.07,33.86,0,0-2.3.99-3.75,3.26-1.35,2.12.71,4.77,3.23,4.31,11.11-2.01,40.79-8.9,55.11-26.8Z"/>
        <path class="cls-1" d="M367.31,20.55c-9.35-6-14.23,2.06-19.38,4.39-7.59,3.43-23.39-1.05-27.48-5.69-4.09-4.63-8.2-8.37-21.27-10.06-11.73-1.53-47.51-7.69-54.69-8.93-.84-.14-1.68.18-2.16.86-1.8,2.57-4.59,9.42,8.83,17.26,17.05,9.96,16.3,20.88,38.66,35.1,28.19,17.92,45.19,18.12,56.86,39.51,1.18,2.17,4.47,1.5,4.25-.95-.81-8.84-2.76-20.7-7.06-35.41-1.21-4.14-1.76-8.47-1.34-12.76.57-5.88,2.9-12.13,12.97-3.21,6.91,6.13,23.23-4.22,28.59-7.48,2.13-1.3-11.02-8.92-16.77-12.62Z"/>
        <path class="cls-2" d="M268.68,329.86c-5.97-.31-5.29,3.52-3.8,9.43,2.31,9.13,4.32,18.06,5.55,27.46,2.76,21.12,3.82,42.76,1.43,63.97-.32,2.81.9,5.67,3.39,7.15,4.16,2.46,8.79-.21,9.11-4.25l2.03-67.95c-.15-3.06-.3-6.11-.45-9.16-1.57-11.18,0-23.6-14.5-26.29-1.05-.19-1.96-.31-2.76-.35Z"/>
        <path class="cls-1" d="M274.3,125.51c-8,10.14-17.22,19.18-27.4,26.96-20.32,15.6-44.4,26.35-70.1,31.64-14.33,2.97-29.85,5.77-46.67,8.35,0,0-40.86,2.58-58.21,34.22-.48.83.52,1.75,1.35,1.18,15.51-10.53,44.53-29.24,91.95-20.28.66.04,6.73,1.7,6.86,2.23.44,1.7-3.54,1.09-4.11.96-1.97-.44-25.08.61-27.71,1.05-6.16,1.01-12.28,2.4-18.27,4.2-15.21,4.59-29.59,11.54-42.52,20.58-.13.09-.26.17-.39.26-4.55,3.28-8.61,7.04-12.85,10.31-.83.66-1.44,1.62-1.66,2.67-2.84,13.94,19.49-4.98,30.2-8.3h.04c17.31-5.38,48.95-13.24,70.75-6.9,1.05.31,2.32.26,3.06,1.05-.48.7-1.49.52-2.27.7-1.35.17-2.71.22-4.06.44-4.76.61-9.61.48-14.51.48-1.01,0-2.1,0-3.1.04-8.87.17-17.79,2.23-26.35,4.11-3.23.7-6.47,1.53-9.66,2.53-4.02,1.18-7.91,2.62-11.76,4.24-8.39,3.58-15.78,7.04-23.42,11.71-1.79,1.05-3.67,2.23-5.64,3.32-2.1,1.22-3.32,3.5-3.1,5.81.61,5.59,1.84,21.15,8.83,13.63,2.19-2.36,3.67-2.75,6.47-4.46,12.85-8.04,28.14-13.11,43.09-14.64,8.09-.83,16.26-1.7,24.43-1.35,3.76.13,7.47.61,11.1,1.53,1.44.35,7.08,2.01,2.97,3.15-2.45.74-22.07-4.24-47.64,4.72-9.31,3.28-18.27,7.56-26.53,12.8-1.7,1.05-3.41,2.19-5.11,3.36-2.58,1.84-4.98,3.8-7.34,5.81-.22.17-.44.35-.66.57-2.14,1.84-2.97,4.72-2.05,7.39.48,1.31.48,6.47,5.42,2.49,5.9-4.72,13.02-8.22,20.32-10.79,6.03-2.14,12.32-3.76,18.53-4.2,14.29-1.14,30.37,1.66,30.37,1.66,7.95,3.5-27.58.17-43.57,6.9-5.99,2.49-12.11,5.99-18.49,10.23-8.09,5.38-5.42,9.79-4.15,11.67,3.28,5.2,7.43,6.95,11.1,12.06,6.38,8.96,19.84,31.86.52,64.55-1.22,2.1-6.73,8.65-3.8,14.95l27.88,66.82c.79,1.97,2.88,3.32,5.11,3.28h.09c3.8-.04,6.38-3.67,5.07-7.12-8.39-22.33-12.37-61.49,5.94-95.31,9.83-18.18,23.21-39.33,33.52-54.98,1.18-1.84,2.36-3.63,3.45-5.29,3.98-7.04,9.88-16.91,17.26-27.93.22-.39.52-.79.83-1.22,2.19-3.32,4.59-6.73,7.08-10.23.13-.22.31-.48.52-.7,27.58-40.47,65.81-102.57,81.94-156.8-.96,1.27-1.92,2.58-2.97,3.89ZM140.48,315.79c-.17.17-.44.35-.74.57-1.14.66-2.93,1.35-4.81,1.97-.35.09-.7.22-1.01.31-1.22.35-2.4.7-3.41.96-.44.13-.83.22-1.18.31-.13.04-.26.04-.35.09-.09.04-.22.04-.31.09-1.18.26-2.36.48-3.54.66-1.22.17-2.4.31-3.58.35-4.02.26-7.43,1.18-14.6,2.88-3.28.79-13.5,6.82-13.2,2.67.83-.87,1.66-1.66,2.45-2.4.92-.83,1.79-1.57,2.71-2.23.35-.31.7-.57,1.05-.83.35-.26.7-.48,1.09-.74.96-.61,1.97-1.22,2.97-1.75.66-.31,1.31-.61,2.01-.87.44-.22.83-.39,1.27-.52.66-.26,1.31-.48,1.97-.66.31-.09.66-.17.96-.26.61-.17,1.22-.31,1.84-.39,1.14-.22,2.32-.39,3.5-.48,2.88-.17,5.81-.31,8.7-.44,1.09-.04,2.23-.09,3.32-.13.17,0,.31,0,.48-.04,1.27-.04,2.54-.13,3.8-.22,1.88-.13,3.76-.26,5.59-.52.61-.09,1.22-.17,1.84-.26.57.17.96.39,1.22.57.09.04.13.13.17.17.13.13.22.26.22.44,0,.22-.17.48-.44.74Z"/>
        <path class="cls-2" d="M341.68,245.87c-1.44-8.39-4.06-15.6-7.91-21.68-4.02-6.38-8.61-10.18-12.24-12.41-3.58-2.19-6.21-2.8-6.29-2.8-31.81-13.68-64.33,6.69-91.03,34.39t-.04.04l-.04.04c-.57.57-1.09,1.09-1.66,1.7,23.99-38.46,49.12-85.31,60.57-127.43.44-1.62.87-3.23,1.27-4.85.31-1.22.57-2.45.87-3.63,0-.04,0-.09.04-.13,3.1-13.29,5.29-26.83,6.12-40.42.17-2.58,3.58-5.59,6.12-4.76,13.24,4.46,49.34,19.67,50.61,43.88,0,0,3.76,86.53-6.38,138.05Z"/>
        <path class="cls-1" d="M338.54,258.06v.17c-.09.74-.22,1.49-.35,2.23-.96,6.21-2.67,12.06-5.33,17.52-8.52,17.44-8.43,66.64-8.43,66.64-.39-.39,7.25,99.16,7.25,99.16.35,3.1-1.97,5.86-5.16,6.16-3.02.31-5.77-1.66-6.34-4.55l-15.82-78.31c-2.05-10.1-5.86-19.84-11.54-28.41-35.92-54.23-95.18-41.91-97.67-41.43l-9.13,2.93c1.7-2.58,3.45-5.29,5.33-8.08,1.84-2.67,3.76-5.42,5.73-8.22,28.76-40.34,74.16-89.06,116.81-70.75.09,0,9.22,2.23,16.3,13.55,3.98,6.34,7.69,16.26,8.35,31.38Z"/>
        <ellipse class="cls-1" cx="121.08" cy="122.45" rx="49.91" ry="50.47"/>
        <path class="cls-3" d="M121.78,0C55.27-.39,1.43,52.58.03,119.79c-.96,46.37,23.55,87.01,60.35,108.64,1.92-8.08,5.46-16.3,12.59-22.55,51.31-44.79,106.24-18.84,163.09-69.09.04-.04.09-.04.13-.09t.09-.04c3.76-3.41,5.86-8.35,5.9-13.42v-.79C242.18,55.07,188.34.4,121.78,0ZM176.14,126.08c-1.75,27.75-24.04,50.26-51.48,52-33.26,2.14-60.75-25.61-58.6-59.26,1.7-27.75,23.99-50.3,51.44-52.05,33.3-2.14,60.74,25.65,58.65,59.3Z"/>
      </g>
    </g>
  </g>
</svg>