<?xml version="1.0" encoding="UTF-8"?>
<svg id="Calque_2" data-name="Calque 2" xmlns="http://www.w3.org/2000/svg" viewBox="0 0 590.37 1116.55">
  <defs>
    <style>
      .cls-1 {
        fill: #009fe3;
      }

      .cls-2 {
        fill: none;
      }

      .cls-3 {
        fill: #88c351;
      }

      .cls-4 {
        fill: #006eab;
      }

      .cls-5 {
        fill: #f33d2c;
      }

      .cls-6 {
        fill: #ffaf2e;
      }

      .cls-7 {
        fill: #ffcf48;
      }

      .cls-8 {
        fill: #a252cc;
      }
    </style>
  </defs>
  <g id="Calque_1-2" data-name="Calque 1">
    <g>
      <g>
        <path class="cls-2" d="M223.52,485.6c-7.08,1.15-14.36,1.49-21.64,1.79-4.21.15-8.42.34-12.58.64-12.29.99-22,6.49-31.41,16.55-.41,6.19,14.32-2.79,19.03-3.92,10.35-2.58,15.28-3.95,21.03-4.29,3.42-.2,6.88-.7,10.25-1.54,5.55-1.38,24.04-6.34,15.32-9.22Z"/>
        <path class="cls-7" d="M107.02,380.03c1.78-17.07,4.82-40.01,22.37-55.16,77.21-66.66,159.88-28.03,245.48-102.81.06-.05.12-.1.18-.16,19.92-17.51,28.83-44.85,22.22-70.54C373.45,58.75,285.76-7.58,184.96.7,83.57,9.03,3.35,93.38.11,195.06c-2.57,80.38,41.59,150.14,106.92,184.97ZM201.26,98.49c45.88,0,83.07,37.19,83.07,83.07s-37.19,83.07-83.07,83.07-83.07-37.19-83.07-83.07,37.19-83.07,83.07-83.07Z"/>
        <path class="cls-8" d="M142.16,521.66c-2.77-3.67-7.33-8.96-11.61-14.27-2.24-2.78-6.75-.87-6.28,2.68,4.67,35.81,6.65,74.68-18.78,100.11-6.12,6.12-7.28,16.46-7.38,19.18l-4.61,98.4c-.2,4.94,2.65,9.5,7.17,11.51,4.37,1.94,8.55-.33,9.27-5.06l13.8-89c1.28-8.33,5.45-16.1,11.93-22.09h0c2.64-2.45,4.77-5.44,6.15-8.77,23.59-57.1,11.11-78.37.33-92.69Z"/>
        <path class="cls-5" d="M107.7,411.14c3.03-3.9,4.26-8.89,3.79-13.81l-.49-5.34c-.33-3.54-3.69-4.66-5.51-2.63-11.33,12.57-41.6,42.85-76.46,50.4,0,0-3.31,1.47-5.4,4.85-1.94,3.15,1.02,7.09,4.66,6.42,16-3,58.77-13.25,79.4-39.88Z"/>
        <path class="cls-5" d="M552.01,49.02c-13.47-8.93-20.49,3.06-27.92,6.53-10.94,5.11-33.7-1.57-39.59-8.48-5.89-6.9-11.81-12.45-30.64-14.98-16.91-2.27-68.45-11.44-78.79-13.29-1.21-.21-2.42.26-3.11,1.28-2.6,3.82-6.61,14.03,12.72,25.69,24.57,14.82,22.11,32.66,54.32,53.82,40.62,26.67,70.33,25.32,83.3,57.23,1.38,3.39,6.44,2.24,6.12-1.41-1.3-14.66-4.64-34.88-12.43-60.34-.15-.5-.19-1.01-.09-1.52.67-3.45-2.73-34.6,19.09-14.62,9.96,9.12,33.47-6.28,41.19-11.13,3.07-1.93-15.88-13.28-24.17-18.78Z"/>
        <circle class="cls-6" cx="201.26" cy="181.56" r="83.07"/>
        <path class="cls-7" d="M417.3,509.42c-8.6-.47-7.63,5.24-5.47,14.03,3.33,13.59,6.22,26.89,7.99,40.87,3.98,31.44,5.51,63.65,2.06,95.21-.46,4.19,1.29,8.44,4.88,10.64,5.99,3.67,12.66-.31,13.13-6.32l2.92-101.14c-.22-4.55-.43-9.09-.65-13.64-2.26-16.63,0-35.13-20.9-39.13-1.51-.29-2.83-.46-3.97-.52Z"/>
        <path class="cls-1" d="M433.74,180.87c-3.98,7.59-9.13,15.73-15.73,24.36-34.48,45.24-84.92,75.47-140.5,87.27-20.65,4.43-42.98,8.59-67.2,12.43,0,0-58.89,3.84-83.92,50.93-.68,1.27.81,2.62,1.99,1.76,22.37-15.68,64.17-43.52,132.46-30.23.95.14,9.72,2.58,9.9,3.34.63,2.53-5.11,1.63-5.92,1.45-2.85-.63-36.15.9-39.95,1.54-8.86,1.54-17.67,3.62-26.26,6.28-21.96,6.78-42.66,17.17-61.28,30.6-6.82,4.97-12.79,10.76-19.07,15.73-1.22.99-2.12,2.44-2.4,4.02-4.11,20.74,28.06-7.46,43.48-12.34,24.95-8,70.55-19.75,102.05-10.3,1.45.45,3.3.41,4.38,1.58-.72.99-2.17.77-3.3.99-1.94.27-3.89.36-5.83.63-6.91.9-13.87.77-20.88.77-1.49,0-3.03,0-4.52.05-12.79.27-25.58,3.3-37.92,6.1-10.62,2.4-20.97,5.74-30.91,10.12-12.07,5.33-22.69,10.48-33.71,17.4-2.58,1.58-5.33,3.3-8.13,4.97-3.03,1.81-4.79,5.15-4.47,8.63.86,8.32,2.67,31.45,12.74,20.29,3.12-3.48,5.24-4.07,9.26-6.64,18.57-11.93,40.58-19.52,62.09-21.78,11.66-1.22,23.46-2.53,35.21-2.03,5.42.23,10.76.9,16,2.3,2.08.54,10.17,2.98,4.25,4.7-3.52,1.04-31.77-6.33-68.6,7-13.42,4.88-26.3,11.25-38.23,19.03-2.44,1.58-4.88,3.3-7.32,5.02-3.75,2.71-7.19,5.69-10.58,8.63-.36.27-.63.59-.99.86-3.07,2.76-4.25,7.05-2.94,10.98.68,1.99.68,9.67,7.82,3.75,8.5-7.05,18.76-12.25,29.29-16.09,8.68-3.21,17.72-5.56,26.66-6.24,20.61-1.67,43.79,2.49,43.79,2.49,11.43,5.2-39.77.27-62.82,10.26-8.59,3.75-17.4,8.9-26.62,15.23-11.66,8-7.77,14.55-5.97,17.35,4.7,7.77,11.3,14.28,16.54,21.83,9.26,13.38,26.66,31.27.23,92.19-1.45,3.3-9.72,12.88-5.51,22.28l40.18,99.42c1.18,2.98,4.16,4.93,7.37,4.88h.18c5.42-.05,9.13-5.47,7.28-10.58-12.07-33.26-17.81-91.56,8.59-141.91,26.35-50.25,43.48-84.87,70.41-115.87-.05.05-.09.05-.09.05,6.24-11.8,24.58-37.78,47.5-64.31,30.28-44.61,81.08-129.16,101.95-221.17ZM208.19,494.83c-3.34.86-6.82,1.36-10.26,1.54-5.74.36-10.67,1.72-21.01,4.29-4.7,1.13-19.43,10.12-19.03,3.93,9.4-10.08,19.12-15.55,31.41-16.54,4.16-.32,8.36-.5,12.56-.63,7.28-.32,14.6-.68,21.65-1.81,8.72,2.89-9.76,7.82-15.32,9.22Z"/>
        <path class="cls-4" d="M510.08,406.16c1.27-7.59,1.81-15.46,1.9-23.5.18-11.25-15.23-67.79-81.39-57.76-28.61,4.29-67.83,41.26-98.79,77.14,30.28-44.61,81.08-129.16,101.95-221.17,4.47-19.79,7.59-39.95,8.81-60.15.23-3.84,4.02-6.51,7.68-5.24,19.03,6.6,68.87,27.12,74.03,63.45,0,0,6.55,156.41-14.19,227.23Z"/>
        <path class="cls-3" d="M511.97,382.66c-.09,8.04-.63,15.91-1.9,23.5-1.4,9.17-3.89,17.9-7.73,26.08-12.25,25.94-12.16,99.2-12.16,99.2-.54-.59,10.48,147.55,10.48,147.55.5,4.61-2.85,8.72-7.46,9.22-4.34.45-8.32-2.49-9.08-6.78l-26.3-134.45c-27.66-124.28-169.52-81.39-173.4-80.67h-.05s-.09.05-.09.05c6.24-11.8,24.58-37.78,47.5-64.31,30.96-35.88,70.18-72.85,98.79-77.14,66.16-10.03,81.57,46.5,81.39,57.76Z"/>
      </g>
      <g>
        <g>
          <path class="cls-1" d="M3.09,974.45h20.61c4.99,0,9.74.56,14.23,1.67,4.49,1.12,8.41,2.92,11.76,5.42,3.35,2.5,6,5.74,7.97,9.74,1.97,3.99,2.95,8.84,2.95,14.53,0,5.05-.95,9.5-2.86,13.35-1.91,3.85-4.48,7.08-7.71,9.69-3.23,2.61-6.96,4.6-11.19,5.95-4.23,1.35-8.66,2.03-13.3,2.03H3.09v-62.37ZM16.84,1024.13h7.13c3.17,0,6.12-.32,8.85-.97,2.73-.64,5.09-1.72,7.09-3.21,2-1.5,3.57-3.47,4.71-5.9,1.15-2.44,1.72-5.42,1.72-8.94,0-3.05-.57-5.71-1.72-7.97-1.14-2.26-2.69-4.13-4.63-5.59-1.94-1.47-4.21-2.57-6.83-3.3-2.61-.73-5.36-1.1-8.24-1.1h-8.1v37Z"/>
          <path class="cls-1" d="M120.17,1012.77c0,3.7-.56,7.11-1.68,10.22-1.12,3.11-2.77,5.81-4.98,8.1-2.2,2.29-4.95,4.08-8.24,5.37-3.29,1.29-7.08,1.94-11.36,1.94s-8.16-.65-11.45-1.94c-3.29-1.29-6.03-3.08-8.24-5.37-2.2-2.29-3.86-4.99-4.98-8.1-1.12-3.11-1.67-6.52-1.67-10.22v-38.32h13.74v37.79c0,1.94.31,3.73.92,5.37.62,1.64,1.48,3.07,2.6,4.27,1.12,1.21,2.45,2.14,4.01,2.82,1.55.68,3.24,1.01,5.06,1.01s3.49-.34,5.02-1.01c1.53-.67,2.85-1.61,3.96-2.82,1.12-1.2,1.98-2.63,2.6-4.27.62-1.64.93-3.44.93-5.37v-37.79h13.74v38.32Z"/>
          <path class="cls-1" d="M166.24,986.61h-17.8v-12.16h49.33v12.16h-17.8v50.21h-13.74v-50.21Z"/>
          <path class="cls-1" d="M199.01,1005.63c0-4.99.84-9.51,2.51-13.57,1.68-4.05,4.01-7.5,7-10.35,3-2.85,6.55-5.04,10.66-6.56,4.11-1.53,8.6-2.29,13.48-2.29s9.37.76,13.48,2.29c4.11,1.53,7.66,3.71,10.66,6.56,3,2.85,5.33,6.3,7,10.35,1.68,4.05,2.51,8.58,2.51,13.57s-.84,9.51-2.51,13.57c-1.67,4.05-4.01,7.5-7,10.35-3,2.85-6.55,5.04-10.66,6.56-4.11,1.53-8.6,2.29-13.48,2.29s-9.37-.76-13.48-2.29c-4.11-1.53-7.67-3.71-10.66-6.56-2.99-2.85-5.33-6.3-7-10.35-1.67-4.05-2.51-8.57-2.51-13.57ZM213.28,1005.63c0,2.94.45,5.63,1.36,8.06.91,2.44,2.22,4.55,3.92,6.34,1.7,1.79,3.75,3.19,6.12,4.18,2.38,1,5.04,1.5,7.97,1.5s5.59-.5,7.97-1.5c2.38-1,4.42-2.39,6.12-4.18,1.7-1.79,3.01-3.9,3.92-6.34.91-2.44,1.37-5.13,1.37-8.06s-.46-5.55-1.37-8.02c-.91-2.47-2.22-4.59-3.92-6.39-1.7-1.79-3.74-3.19-6.12-4.18-2.38-1-5.04-1.5-7.97-1.5s-5.59.5-7.97,1.5c-2.38,1-4.42,2.39-6.12,4.18-1.7,1.79-3.01,3.92-3.92,6.39-.91,2.47-1.36,5.14-1.36,8.02Z"/>
          <path class="cls-1" d="M325.86,1012.77c0,3.7-.56,7.11-1.68,10.22-1.12,3.11-2.77,5.81-4.98,8.1-2.2,2.29-4.95,4.08-8.24,5.37-3.29,1.29-7.08,1.94-11.36,1.94s-8.16-.65-11.45-1.94c-3.29-1.29-6.03-3.08-8.24-5.37-2.2-2.29-3.86-4.99-4.98-8.1-1.12-3.11-1.67-6.52-1.67-10.22v-38.32h13.74v37.79c0,1.94.31,3.73.92,5.37.62,1.64,1.48,3.07,2.6,4.27,1.12,1.21,2.45,2.14,4.01,2.82,1.55.68,3.24,1.01,5.06,1.01s3.49-.34,5.02-1.01c1.53-.67,2.85-1.61,3.96-2.82,1.12-1.2,1.98-2.63,2.6-4.27.62-1.64.93-3.44.93-5.37v-37.79h13.74v38.32Z"/>
          <path class="cls-1" d="M336.17,974.45h24.14c3.17,0,6.18.31,9.03.92,2.85.62,5.34,1.65,7.49,3.08,2.14,1.44,3.85,3.38,5.11,5.82,1.26,2.44,1.9,5.48,1.9,9.12,0,4.4-1.15,8.15-3.43,11.23-2.29,3.08-5.64,5.04-10.04,5.86l15.86,26.34h-16.47l-13.04-24.93h-6.78v24.93h-13.74v-62.37ZM349.91,1000.26h8.1c1.23,0,2.54-.05,3.92-.13s2.63-.35,3.75-.79c1.11-.44,2.04-1.13,2.77-2.07.73-.94,1.1-2.26,1.1-3.96,0-1.59-.32-2.85-.97-3.79-.65-.94-1.47-1.66-2.47-2.16-1-.5-2.14-.84-3.43-1.01-1.29-.18-2.56-.26-3.79-.26h-8.98v14.18Z"/>
          <path class="cls-1" d="M390.7,974.45h13.74v62.37h-13.74v-62.37Z"/>
          <path class="cls-1" d="M445.41,989.69c-1.12-1.41-2.63-2.45-4.54-3.13-1.91-.67-3.71-1.01-5.42-1.01-1,0-2.03.12-3.08.35-1.06.24-2.05.6-2.99,1.1-.94.5-1.71,1.16-2.29,1.98-.59.82-.88,1.82-.88,3,0,1.88.71,3.32,2.12,4.31,1.41,1,3.18,1.85,5.33,2.56,2.14.71,4.45,1.41,6.92,2.11,2.47.71,4.77,1.71,6.92,3,2.14,1.29,3.92,3.02,5.33,5.2,1.41,2.17,2.12,5.08,2.12,8.72s-.65,6.49-1.94,9.07c-1.29,2.59-3.04,4.73-5.24,6.43-2.2,1.7-4.76,2.97-7.67,3.79-2.91.82-5.98,1.23-9.2,1.23-4.05,0-7.81-.62-11.28-1.85-3.47-1.23-6.7-3.23-9.69-5.99l9.78-10.75c1.41,1.88,3.19,3.33,5.33,4.36,2.14,1.03,4.36,1.54,6.65,1.54,1.11,0,2.24-.13,3.39-.4,1.14-.26,2.17-.66,3.08-1.19.91-.53,1.64-1.2,2.2-2.03.56-.82.84-1.79.84-2.91,0-1.88-.72-3.36-2.16-4.45-1.44-1.09-3.25-2.01-5.42-2.78-2.17-.76-4.52-1.53-7.05-2.29-2.53-.76-4.88-1.79-7.05-3.08-2.18-1.29-3.98-2.99-5.42-5.11-1.44-2.11-2.16-4.9-2.16-8.37s.66-6.28,1.98-8.81c1.32-2.52,3.08-4.64,5.28-6.34,2.2-1.7,4.74-2.98,7.62-3.83,2.88-.85,5.84-1.28,8.9-1.28,3.52,0,6.93.5,10.22,1.5,3.29,1,6.25,2.67,8.9,5.02l-9.42,10.31Z"/>
          <path class="cls-1" d="M462.76,974.45h20.79l14.36,40.7h.18l14.45-40.7h20.7v62.37h-13.74v-47.83h-.18l-16.38,47.83h-10.48l-15.77-47.83h-.17v47.83h-13.74v-62.37Z"/>
          <path class="cls-1" d="M544.07,974.45h42.37v12.69h-28.63v11.63h27.04v12.69h-27.04v12.69h30.22v12.69h-43.96v-62.37Z"/>
        </g>
        <g>
          <path class="cls-1" d="M126.14,1115.42v-44.5h15.71c8.55,0,16.34,3.02,16.34,12.76,0,6.66-4.02,11.18-10.31,12.07l11.82,19.67h-9.55l-10.31-18.85h-5.78v18.85h-7.92ZM134.06,1089.77h6.54c4.53,0,9.3-.63,9.3-6.16,0-5.09-4.59-5.91-8.74-5.91h-7.1v12.07Z"/>
          <path class="cls-1" d="M181.25,1070.92c11.5,0,22.44,7.29,22.44,22.25,0,15.77-13.7,22.25-23.38,22.25h-16.78v-44.5h17.72ZM177.67,1108.25c9.49,0,17.72-4.27,17.72-15.08s-6.98-15.08-16.66-15.08h-7.29v30.17h6.22Z"/>
          <path class="cls-1" d="M218.39,1110.89c0,2.77-2.32,4.9-5.03,4.9s-5.03-2.08-5.03-4.78,2.32-4.9,5.03-4.9,5.03,2.01,5.03,4.78Z"/>
          <path class="cls-1" d="M262.13,1076.83l-6.16,4.53c-2.58-2.77-5.47-4.4-9.37-4.4-9.11,0-15.27,7.04-15.27,15.9s5.91,16.53,15.27,16.53c4.21,0,7.48-2.2,9.99-5.41l6.54,4.65c-3.83,5.41-10.06,7.92-16.59,7.92-13.7,0-23.5-9.37-23.5-23.19s9.3-23.57,23.5-23.57c6.35,0,11.38,2.26,15.59,7.04Z"/>
          <path class="cls-1" d="M287.26,1116.55c-13.7,0-23.38-9.43-23.38-23.19,0-12.82,8.3-23.57,23.82-23.57,14.08,0,23.38,9.43,23.38,23.32s-10.12,23.44-23.82,23.44ZM287.45,1109.38c9.61,0,15.34-7.48,15.34-16.53s-6.28-15.9-15.4-15.9-15.21,7.1-15.21,15.9,5.72,16.53,15.27,16.53Z"/>
          <path class="cls-1" d="M316.41,1115.42v-44.5h10.5l21.56,33.06h.12v-33.06h7.92v44.5h-10.06l-22-34.13h-.12v34.13h-7.92Z"/>
          <path class="cls-1" d="M402.89,1075.38l-5.85,5.91c-3.02-2.89-7.48-4.34-11.63-4.34-9.11,0-15.27,7.04-15.27,15.9s5.78,16.53,15.34,16.53c3.33,0,7.23-.56,10.37-2.32v-10.5h-9.11v-7.16h17.03v22.75c-5.91,3.14-12.13,4.4-18.35,4.4-13.83,0-23.57-9.43-23.57-23.19s9.55-23.57,23.57-23.57c6.16,0,12.76,1.32,17.47,5.59Z"/>
          <path class="cls-1" d="M431.91,1116.55c-13.7,0-23.38-9.43-23.38-23.19,0-12.82,8.3-23.57,23.82-23.57,14.08,0,23.38,9.43,23.38,23.32s-10.12,23.44-23.82,23.44ZM432.1,1109.38c9.61,0,15.34-7.48,15.34-16.53s-6.28-15.9-15.4-15.9-15.21,7.1-15.21,15.9,5.72,16.53,15.27,16.53Z"/>
        </g>
        <g>
          <path class="cls-1" d="M4.77,889.44h19.47l27.64,45.18h.18v-45.18h14.32v65.01h-18.73l-28.37-46.28h-.18v46.28H4.77v-65.01Z"/>
          <path class="cls-1" d="M116.81,889.44h11.85l28.28,65.01h-16.16l-5.6-13.78h-25.25l-5.42,13.78h-15.79l28.1-65.01ZM122.32,908.36l-7.9,20.2h15.89l-7.99-20.2Z"/>
          <path class="cls-1" d="M183.38,902.11h-18.55v-12.67h51.42v12.67h-18.55v52.34h-14.32v-52.34Z"/>
          <path class="cls-1" d="M239.12,889.44h14.32v65.01h-14.32v-65.01Z"/>
          <path class="cls-1" d="M278.79,921.95c0-5.2.87-9.92,2.62-14.14,1.74-4.22,4.18-7.82,7.3-10.79,3.12-2.97,6.83-5.25,11.11-6.84,4.28-1.59,8.97-2.39,14.05-2.39s9.77.8,14.05,2.39c4.29,1.59,7.99,3.87,11.11,6.84,3.12,2.97,5.56,6.57,7.3,10.79,1.74,4.23,2.62,8.94,2.62,14.14s-.87,9.92-2.62,14.14c-1.74,4.22-4.18,7.82-7.3,10.79-3.12,2.97-6.83,5.25-11.11,6.84-4.28,1.59-8.97,2.39-14.05,2.39s-9.76-.8-14.05-2.39c-4.29-1.59-7.99-3.87-11.11-6.84-3.12-2.97-5.56-6.57-7.3-10.79-1.74-4.23-2.62-8.94-2.62-14.14ZM293.67,921.95c0,3.06.47,5.86,1.42,8.4.95,2.54,2.31,4.75,4.09,6.61,1.78,1.87,3.9,3.32,6.38,4.36,2.48,1.04,5.25,1.56,8.31,1.56s5.83-.52,8.31-1.56c2.48-1.04,4.61-2.49,6.38-4.36s3.14-4.07,4.09-6.61c.95-2.54,1.42-5.34,1.42-8.4s-.47-5.78-1.42-8.36c-.95-2.57-2.31-4.79-4.09-6.66s-3.9-3.32-6.38-4.36c-2.48-1.04-5.25-1.56-8.31-1.56s-5.83.52-8.31,1.56c-2.48,1.04-4.61,2.49-6.38,4.36-1.78,1.87-3.14,4.09-4.09,6.66-.95,2.57-1.42,5.36-1.42,8.36Z"/>
          <path class="cls-1" d="M374.47,889.44h19.47l27.64,45.18h.18v-45.18h14.32v65.01h-18.73l-28.37-46.28h-.18v46.28h-14.33v-65.01Z"/>
          <path class="cls-1" d="M486.5,889.44h11.85l28.28,65.01h-16.16l-5.6-13.78h-25.25l-5.42,13.78h-15.79l28.1-65.01ZM492.02,908.36l-7.9,20.2h15.89l-7.99-20.2Z"/>
          <path class="cls-1" d="M549.5,889.44h14.32v51.79h26.54v13.22h-40.87v-65.01Z"/>
        </g>
        <g>
          <path class="cls-1" d="M2.4,826.87c0-6.44,1.08-12.27,3.24-17.49,2.16-5.23,5.17-9.67,9.03-13.34,3.86-3.67,8.44-6.49,13.74-8.46,5.3-1.97,11.09-2.95,17.37-2.95s12.08.99,17.38,2.95c5.3,1.97,9.88,4.79,13.74,8.46,3.86,3.67,6.87,8.12,9.03,13.34,2.16,5.22,3.23,11.05,3.23,17.49s-1.08,12.26-3.23,17.49c-2.16,5.22-5.17,9.67-9.03,13.34-3.86,3.67-8.44,6.49-13.74,8.46-5.3,1.97-11.09,2.95-17.38,2.95s-12.08-.99-17.37-2.95c-5.3-1.97-9.88-4.79-13.74-8.46-3.86-3.67-6.87-8.12-9.03-13.34-2.16-5.23-3.24-11.05-3.24-17.49ZM20.8,826.87c0,3.79.59,7.25,1.76,10.39,1.17,3.15,2.86,5.87,5.05,8.18,2.19,2.31,4.83,4.11,7.89,5.39,3.07,1.29,6.49,1.93,10.28,1.93s7.21-.64,10.28-1.93c3.07-1.29,5.7-3.08,7.89-5.39,2.2-2.31,3.88-5.03,5.05-8.18,1.17-3.14,1.76-6.6,1.76-10.39s-.59-7.16-1.76-10.34c-1.17-3.18-2.86-5.92-5.05-8.23-2.2-2.31-4.83-4.11-7.89-5.39-3.07-1.29-6.49-1.93-10.28-1.93s-7.21.65-10.28,1.93c-3.07,1.29-5.7,3.09-7.89,5.39-2.2,2.31-3.88,5.05-5.05,8.23-1.17,3.18-1.76,6.63-1.76,10.34Z"/>
          <path class="cls-1" d="M138.23,786.67h53.95v16.35h-36.23v16.36h33.5v16.35h-33.5v31.35h-17.72v-80.41Z"/>
          <path class="cls-1" d="M241.92,786.67h53.95v16.35h-36.23v16.36h33.5v16.35h-33.5v31.35h-17.72v-80.41Z"/>
          <path class="cls-1" d="M344.7,786.67h17.72v80.41h-17.72v-80.41Z"/>
          <path class="cls-1" d="M467.47,807.56c-1.74-2.12-3.88-3.75-6.42-4.88-2.54-1.14-5.47-1.71-8.8-1.71s-6.42.65-9.26,1.93c-2.84,1.29-5.3,3.09-7.38,5.39-2.08,2.31-3.71,5.05-4.88,8.23-1.17,3.18-1.76,6.63-1.76,10.34s.59,7.25,1.76,10.39c1.17,3.15,2.78,5.87,4.83,8.18,2.04,2.31,4.45,4.11,7.21,5.39,2.76,1.29,5.73,1.93,8.91,1.93,3.64,0,6.85-.76,9.65-2.27,2.8-1.51,5.11-3.63,6.93-6.36l14.76,11.02c-3.41,4.77-7.72,8.29-12.95,10.56-5.23,2.27-10.6,3.41-16.13,3.41-6.28,0-12.08-.99-17.37-2.95-5.3-1.97-9.88-4.79-13.74-8.46-3.86-3.67-6.87-8.12-9.03-13.34-2.16-5.23-3.24-11.05-3.24-17.49s1.08-12.27,3.24-17.49c2.16-5.23,5.17-9.67,9.03-13.34,3.86-3.67,8.44-6.49,13.74-8.46,5.3-1.97,11.09-2.95,17.37-2.95,2.27,0,4.64.21,7.1.63,2.46.42,4.88,1.08,7.27,1.99,2.39.91,4.67,2.12,6.87,3.64,2.2,1.52,4.16,3.37,5.91,5.57l-13.63,11.13Z"/>
          <path class="cls-1" d="M529.71,786.67h54.63v16.35h-36.91v14.99h34.86v16.36h-34.86v16.35h38.95v16.35h-56.67v-80.41Z"/>
        </g>
      </g>
    </g>
  </g>
</svg>