<?xml version="1.0" encoding="UTF-8"?>
<svg id="Calque_2" data-name="Calque 2" xmlns="http://www.w3.org/2000/svg" viewBox="0 0 587.97 1090.8">
  <defs>
    <style>
      .cls-1, .cls-2, .cls-3 {
        fill: #fff;
      }

      .cls-2 {
        opacity: .8;
      }

      .cls-3 {
        opacity: .6;
      }
    </style>
  </defs>
  <g id="Calque_1-2" data-name="Calque 1">
    <g>
      <g>
        <path class="cls-2" d="M134.76,498.12c-2.83-3.64-7.5-8.87-11.87-14.13-2.29-2.76-6.9-.86-6.43,2.65,4.78,35.45,6.8,73.93-19.2,99.1-6.25,6.05-7.45,16.29-7.54,18.99l-4.72,97.4c-.2,4.89,2.71,9.41,7.34,11.4,4.47,1.92,8.74-.32,9.48-5l14.11-88.1c1.31-8.24,5.57-15.93,12.2-21.87h0c2.7-2.43,4.88-5.38,6.29-8.68,24.12-56.52,11.36-77.57.34-91.75Z"/>
        <path class="cls-1" d="M99.51,388.71c3.09-3.86,4.35-8.8,3.88-13.67l-.5-5.29c-.34-3.5-3.77-4.61-5.63-2.6-11.59,12.44-42.54,42.42-78.19,49.88,0,0-3.38,1.46-5.52,4.8-1.99,3.12,1.05,7.02,4.76,6.35,16.36-2.97,60.1-13.11,81.19-39.48Z"/>
        <path class="cls-1" d="M553.88,30.27c-13.78-8.84-20.96,3.03-28.55,6.46-11.19,5.06-34.47-1.55-40.49-8.39-6.02-6.83-12.08-12.33-31.33-14.83-17.29-2.25-70-11.32-80.57-13.15-1.23-.21-2.48.26-3.18,1.27-2.66,3.78-6.76,13.88,13.01,25.43,25.13,14.67,24.02,30.76,56.96,51.71,41.54,26.4,66.58,26.7,83.77,58.21,1.74,3.2,6.58,2.22,6.26-1.4-1.2-13.03-4.07-30.49-10.41-52.17-1.78-6.1-2.59-12.48-1.98-18.81.84-8.66,4.27-17.88,19.11-4.73,10.19,9.03,34.23-6.22,42.12-11.02,3.14-1.91-16.24-13.15-24.71-18.59Z"/>
        <path class="cls-2" d="M408.55,486c-8.8-.46-7.8,5.19-5.59,13.89,3.41,13.45,6.36,26.62,8.17,40.46,4.07,31.12,5.63,63,2.11,94.25-.47,4.14,1.32,8.36,5,10.54,6.12,3.63,12.95-.31,13.43-6.26l2.99-100.12c-.22-4.51-.44-9-.67-13.5-2.31-16.46,0-34.77-21.37-38.73-1.54-.29-2.89-.46-4.06-.52Z"/>
        <path class="cls-1" d="M416.83,184.92c-11.78,14.94-25.37,28.27-40.37,39.73-29.94,22.99-65.42,38.83-103.28,46.62-21.12,4.38-43.98,8.5-68.77,12.3,0,0-60.2,3.8-85.76,50.42-.71,1.22.77,2.58,1.99,1.74,22.86-15.52,65.61-43.08,135.47-29.88.97.06,9.92,2.51,10.11,3.28.64,2.51-5.22,1.61-6.05,1.42-2.9-.64-36.96.9-40.82,1.55-9.08,1.48-18.09,3.54-26.91,6.18-22.41,6.76-43.59,17-62.65,30.33-.19.13-.39.26-.58.39-6.7,4.83-12.68,10.37-18.93,15.2-1.22.97-2.13,2.38-2.45,3.93-4.19,20.54,28.72-7.34,44.49-12.23h.06c25.5-7.92,72.11-19.51,104.24-10.17,1.55.45,3.41.39,4.51,1.55-.71,1.03-2.19.77-3.35,1.03-1.99.26-3.99.32-5.99.64-7.02.9-14.16.71-21.38.71-1.48,0-3.09,0-4.57.06-13.07.26-26.21,3.28-38.83,6.05-4.76,1.03-9.53,2.25-14.23,3.73-5.92,1.74-11.65,3.86-17.32,6.25-12.36,5.28-23.24,10.37-34.51,17.26-2.64,1.55-5.41,3.28-8.3,4.89-3.09,1.8-4.9,5.15-4.57,8.56.9,8.24,2.71,31.16,13.01,20.09,3.22-3.48,5.41-4.06,9.53-6.57,18.93-11.85,41.47-19.32,63.49-21.57,11.91-1.22,23.95-2.51,35.99-2,5.54.19,11.01.9,16.35,2.25,2.13.52,10.43,2.96,4.38,4.64-3.61,1.09-32.52-6.25-70.18,6.95-13.71,4.83-26.91,11.14-39.08,18.87-2.51,1.55-5.02,3.22-7.53,4.96-3.8,2.7-7.34,5.6-10.82,8.56-.32.26-.64.52-.97.84-3.15,2.7-4.38,6.95-3.03,10.88.71,1.93.71,9.53,7.98,3.67,8.69-6.95,19.19-12.1,29.94-15.9,8.88-3.15,18.16-5.54,27.3-6.18,21.05-1.67,44.75,2.45,44.75,2.45,11.72,5.15-40.63.26-64.19,10.17-8.82,3.67-17.84,8.82-27.24,15.07-11.91,7.92-7.98,14.42-6.12,17.19,4.83,7.66,10.95,10.24,16.35,17.77,9.4,13.2,29.23,46.94.77,95.1-1.8,3.09-9.92,12.75-5.6,22.02l41.08,98.45c1.16,2.9,4.25,4.89,7.53,4.83h.13c5.6-.06,9.4-5.41,7.47-10.5-12.36-32.9-18.22-90.59,8.76-140.43,14.49-26.79,34.19-57.95,49.39-81,1.74-2.7,3.48-5.34,5.09-7.79,5.86-10.37,14.55-24.92,25.43-41.14.32-.58.77-1.16,1.22-1.8,3.22-4.89,6.76-9.92,10.43-15.07.19-.32.45-.71.77-1.03,40.63-59.62,96.97-151.12,120.73-231.02-1.42,1.87-2.83,3.8-4.38,5.73ZM219.68,465.27c-.26.26-.64.52-1.09.84-1.67.97-4.32,2-7.08,2.9-.52.13-1.03.32-1.48.45-1.8.51-3.54,1.03-5.02,1.42-.64.19-1.22.32-1.74.45-.19.06-.39.06-.52.13-.13.06-.32.06-.45.13-1.74.39-3.48.71-5.22.97-1.8.26-3.54.45-5.28.52-5.92.39-10.95,1.74-21.5,4.25-4.83,1.16-19.9,10.04-19.45,3.93,1.22-1.29,2.45-2.45,3.6-3.54,1.35-1.22,2.64-2.32,3.99-3.28.52-.45,1.03-.84,1.55-1.22.52-.39,1.03-.71,1.61-1.09,1.42-.9,2.9-1.8,4.38-2.58.97-.45,1.93-.9,2.96-1.29.64-.32,1.22-.58,1.87-.77.97-.39,1.93-.71,2.9-.97.45-.13.97-.26,1.42-.39.9-.26,1.8-.45,2.7-.58,1.67-.32,3.41-.58,5.15-.71,4.25-.26,8.56-.45,12.81-.64,1.61-.06,3.28-.13,4.89-.19.26,0,.45,0,.71-.06,1.87-.06,3.73-.19,5.6-.32,2.77-.19,5.54-.39,8.24-.77.9-.13,1.8-.26,2.7-.39.84.26,1.42.58,1.8.84.13.06.19.19.26.26.19.19.32.39.32.64,0,.32-.26.71-.64,1.09Z"/>
        <path class="cls-2" d="M516.12,362.25c-2.13-12.36-5.99-22.99-11.65-31.94-5.92-9.4-12.68-15-18.03-18.29-5.28-3.22-9.14-4.12-9.27-4.12-46.87-20.15-94.78,9.85-134.12,50.67q-.06,0-.06.06l-.06.06c-.84.84-1.61,1.61-2.45,2.51,35.35-56.66,72.37-125.68,89.24-187.75.64-2.38,1.29-4.76,1.87-7.15.45-1.8.84-3.61,1.29-5.34,0-.06,0-.13.06-.19,4.57-19.57,7.79-39.53,9.02-59.56.26-3.8,5.28-8.24,9.01-7.02,19.51,6.57,72.69,28.97,74.56,64.64,0,0,5.54,127.49-9.4,203.4Z"/>
        <path class="cls-1" d="M511.48,380.21v.26c-.13,1.09-.32,2.19-.52,3.28-1.42,9.14-3.93,17.77-7.86,25.82-12.56,25.69-12.43,98.19-12.43,98.19-.58-.58,10.69,146.1,10.69,146.1.52,4.57-2.9,8.63-7.6,9.08-4.44.45-8.5-2.45-9.34-6.7l-23.31-115.38c-3.03-14.87-8.63-29.23-17-41.85-52.93-79.9-140.24-61.75-143.91-61.04l-13.46,4.31c2.51-3.8,5.09-7.79,7.86-11.91,2.71-3.93,5.54-7.98,8.44-12.1,42.37-59.43,109.27-131.22,172.11-104.24.13,0,13.59,3.28,24.02,19.96,5.86,9.34,11.33,23.95,12.3,46.23Z"/>
        <ellipse class="cls-1" cx="191.1" cy="180.41" rx="73.54" ry="74.36"/>
        <path class="cls-3" d="M192.12,0C94.12-.58,14.8,77.46,12.74,176.49c-1.42,68.32,34.7,128.2,88.92,160.07,2.83-11.91,8.05-24.02,18.54-33.22,75.59-66,156.53-27.75,240.29-101.8.07-.06.13-.06.19-.13q.06-.06.13-.06c5.54-5.02,8.63-12.3,8.69-19.77v-1.16C369.51,81.13,290.18.58,192.12,0ZM272.22,185.76c-2.57,40.89-35.41,74.05-75.85,76.62-49,3.15-89.5-37.73-86.34-87.31,2.51-40.89,35.35-74.11,75.78-76.69,49.06-3.16,89.5,37.8,86.41,87.37Z"/>
      </g>
      <g>
        <g>
          <path class="cls-1" d="M.7,948.7h20.61c4.99,0,9.74.56,14.23,1.67,4.49,1.12,8.41,2.92,11.76,5.42,3.35,2.5,6,5.74,7.97,9.74,1.97,3.99,2.95,8.84,2.95,14.53,0,5.05-.95,9.5-2.86,13.35-1.91,3.85-4.48,7.08-7.71,9.69-3.23,2.61-6.96,4.6-11.19,5.95-4.23,1.35-8.66,2.03-13.3,2.03H.7v-62.37ZM14.44,998.38h7.13c3.17,0,6.12-.32,8.85-.97,2.73-.64,5.09-1.72,7.09-3.21,2-1.5,3.57-3.47,4.71-5.9,1.15-2.44,1.72-5.42,1.72-8.94,0-3.05-.57-5.71-1.72-7.97-1.14-2.26-2.69-4.13-4.63-5.59-1.94-1.47-4.21-2.57-6.83-3.3-2.61-.73-5.36-1.1-8.24-1.1h-8.1v37Z"/>
          <path class="cls-1" d="M117.77,987.02c0,3.7-.56,7.11-1.68,10.22-1.12,3.11-2.77,5.81-4.98,8.1-2.2,2.29-4.95,4.08-8.24,5.37-3.29,1.29-7.08,1.94-11.36,1.94s-8.16-.65-11.45-1.94c-3.29-1.29-6.03-3.08-8.24-5.37-2.2-2.29-3.86-4.99-4.98-8.1-1.12-3.11-1.67-6.52-1.67-10.22v-38.32h13.74v37.79c0,1.94.31,3.73.92,5.37.62,1.64,1.48,3.07,2.6,4.27,1.12,1.21,2.45,2.14,4.01,2.82,1.55.68,3.24,1.01,5.06,1.01s3.49-.34,5.02-1.01c1.53-.67,2.85-1.61,3.96-2.82,1.12-1.2,1.98-2.63,2.6-4.27.62-1.64.93-3.44.93-5.37v-37.79h13.74v38.32Z"/>
          <path class="cls-1" d="M163.84,960.85h-17.8v-12.16h49.33v12.16h-17.8v50.21h-13.74v-50.21Z"/>
          <path class="cls-1" d="M196.61,979.88c0-4.99.84-9.51,2.51-13.57,1.68-4.05,4.01-7.5,7-10.35,3-2.85,6.55-5.04,10.66-6.56,4.11-1.53,8.6-2.29,13.48-2.29s9.37.76,13.48,2.29c4.11,1.53,7.66,3.71,10.66,6.56,3,2.85,5.33,6.3,7,10.35,1.68,4.05,2.51,8.58,2.51,13.57s-.84,9.51-2.51,13.57c-1.67,4.05-4.01,7.5-7,10.35-3,2.85-6.55,5.04-10.66,6.56-4.11,1.53-8.6,2.29-13.48,2.29s-9.37-.76-13.48-2.29c-4.11-1.53-7.67-3.71-10.66-6.56-2.99-2.85-5.33-6.3-7-10.35-1.67-4.05-2.51-8.57-2.51-13.57ZM210.88,979.88c0,2.94.45,5.63,1.36,8.06.91,2.44,2.22,4.55,3.92,6.34,1.7,1.79,3.75,3.19,6.12,4.18,2.38,1,5.04,1.5,7.97,1.5s5.59-.5,7.97-1.5c2.38-1,4.42-2.39,6.12-4.18,1.7-1.79,3.01-3.9,3.92-6.34.91-2.44,1.37-5.13,1.37-8.06s-.46-5.55-1.37-8.02c-.91-2.47-2.22-4.59-3.92-6.39-1.7-1.79-3.74-3.19-6.12-4.18-2.38-1-5.04-1.5-7.97-1.5s-5.59.5-7.97,1.5-4.42,2.39-6.12,4.18c-1.7,1.79-3.01,3.92-3.92,6.39-.91,2.47-1.36,5.14-1.36,8.02Z"/>
          <path class="cls-1" d="M323.46,987.02c0,3.7-.56,7.11-1.68,10.22-1.12,3.11-2.77,5.81-4.98,8.1-2.2,2.29-4.95,4.08-8.24,5.37-3.29,1.29-7.08,1.94-11.36,1.94s-8.16-.65-11.45-1.94c-3.29-1.29-6.03-3.08-8.24-5.37-2.2-2.29-3.86-4.99-4.98-8.1-1.12-3.11-1.67-6.52-1.67-10.22v-38.32h13.74v37.79c0,1.94.31,3.73.92,5.37.62,1.64,1.48,3.07,2.6,4.27,1.12,1.21,2.45,2.14,4.01,2.82,1.55.68,3.24,1.01,5.06,1.01s3.49-.34,5.02-1.01c1.53-.67,2.85-1.61,3.96-2.82,1.12-1.2,1.98-2.63,2.6-4.27.62-1.64.93-3.44.93-5.37v-37.79h13.74v38.32Z"/>
          <path class="cls-1" d="M333.77,948.7h24.14c3.17,0,6.18.31,9.03.92,2.85.62,5.34,1.65,7.49,3.08,2.14,1.44,3.85,3.38,5.11,5.82,1.26,2.44,1.9,5.48,1.9,9.12,0,4.4-1.15,8.15-3.43,11.23-2.29,3.08-5.64,5.04-10.04,5.86l15.86,26.34h-16.47l-13.04-24.93h-6.78v24.93h-13.74v-62.37ZM347.51,974.51h8.1c1.23,0,2.54-.05,3.92-.13s2.63-.35,3.75-.79c1.11-.44,2.04-1.13,2.77-2.07.73-.94,1.1-2.26,1.1-3.96,0-1.59-.32-2.85-.97-3.79-.65-.94-1.47-1.66-2.47-2.16-1-.5-2.14-.84-3.43-1.01-1.29-.18-2.56-.26-3.79-.26h-8.98v14.18Z"/>
          <path class="cls-1" d="M388.3,948.7h13.74v62.37h-13.74v-62.37Z"/>
          <path class="cls-1" d="M443.01,963.94c-1.12-1.41-2.63-2.45-4.54-3.13-1.91-.67-3.71-1.01-5.42-1.01-1,0-2.03.12-3.08.35-1.06.24-2.05.6-2.99,1.1-.94.5-1.71,1.16-2.29,1.98-.59.82-.88,1.82-.88,3,0,1.88.71,3.32,2.12,4.31,1.41,1,3.18,1.85,5.33,2.56,2.14.71,4.45,1.41,6.92,2.11,2.47.71,4.77,1.71,6.92,3,2.14,1.29,3.92,3.02,5.33,5.2,1.41,2.17,2.12,5.08,2.12,8.72s-.65,6.49-1.94,9.07c-1.29,2.59-3.04,4.73-5.24,6.43-2.2,1.7-4.76,2.97-7.67,3.79-2.91.82-5.98,1.23-9.2,1.23-4.05,0-7.81-.62-11.28-1.85-3.47-1.23-6.7-3.23-9.69-5.99l9.78-10.75c1.41,1.88,3.19,3.33,5.33,4.36,2.14,1.03,4.36,1.54,6.65,1.54,1.11,0,2.24-.13,3.39-.4,1.14-.26,2.17-.66,3.08-1.19.91-.53,1.64-1.2,2.2-2.03.56-.82.84-1.79.84-2.91,0-1.88-.72-3.36-2.16-4.45-1.44-1.09-3.25-2.01-5.42-2.78-2.17-.76-4.52-1.53-7.05-2.29-2.53-.76-4.88-1.79-7.05-3.08-2.18-1.29-3.98-2.99-5.42-5.11-1.44-2.11-2.16-4.9-2.16-8.37s.66-6.28,1.98-8.81c1.32-2.52,3.08-4.64,5.28-6.34,2.2-1.7,4.74-2.98,7.62-3.83,2.88-.85,5.84-1.28,8.9-1.28,3.52,0,6.93.5,10.22,1.5,3.29,1,6.25,2.67,8.9,5.02l-9.42,10.31Z"/>
          <path class="cls-1" d="M460.36,948.7h20.79l14.36,40.7h.18l14.45-40.7h20.7v62.37h-13.74v-47.83h-.18l-16.38,47.83h-10.48l-15.77-47.83h-.17v47.83h-13.74v-62.37Z"/>
          <path class="cls-1" d="M541.67,948.7h42.37v12.69h-28.63v11.63h27.04v12.69h-27.04v12.69h30.22v12.69h-43.96v-62.37Z"/>
        </g>
        <g>
          <path class="cls-1" d="M123.74,1089.66v-44.5h15.71c8.55,0,16.34,3.02,16.34,12.76,0,6.66-4.02,11.18-10.31,12.07l11.82,19.67h-9.55l-10.31-18.85h-5.78v18.85h-7.92ZM131.66,1064.02h6.54c4.53,0,9.3-.63,9.3-6.16,0-5.09-4.59-5.91-8.74-5.91h-7.1v12.07Z"/>
          <path class="cls-1" d="M178.85,1045.17c11.5,0,22.44,7.29,22.44,22.25,0,15.77-13.7,22.25-23.38,22.25h-16.78v-44.5h17.72ZM175.27,1082.5c9.49,0,17.72-4.27,17.72-15.08s-6.98-15.08-16.66-15.08h-7.29v30.17h6.22Z"/>
          <path class="cls-1" d="M215.99,1085.14c0,2.77-2.32,4.9-5.03,4.9s-5.03-2.08-5.03-4.78,2.32-4.9,5.03-4.9,5.03,2.01,5.03,4.78Z"/>
          <path class="cls-1" d="M259.73,1051.08l-6.16,4.53c-2.58-2.77-5.47-4.4-9.37-4.4-9.11,0-15.27,7.04-15.27,15.9s5.91,16.53,15.27,16.53c4.21,0,7.48-2.2,9.99-5.41l6.54,4.65c-3.83,5.41-10.06,7.92-16.59,7.92-13.7,0-23.5-9.37-23.5-23.19s9.3-23.57,23.5-23.57c6.35,0,11.38,2.26,15.59,7.04Z"/>
          <path class="cls-1" d="M284.86,1090.8c-13.7,0-23.38-9.43-23.38-23.19,0-12.82,8.3-23.57,23.82-23.57,14.08,0,23.38,9.43,23.38,23.32s-10.12,23.44-23.82,23.44ZM285.05,1083.63c9.61,0,15.34-7.48,15.34-16.53s-6.28-15.9-15.4-15.9-15.21,7.1-15.21,15.9,5.72,16.53,15.27,16.53Z"/>
          <path class="cls-1" d="M314.01,1089.66v-44.5h10.5l21.56,33.06h.12v-33.06h7.92v44.5h-10.06l-22-34.13h-.12v34.13h-7.92Z"/>
          <path class="cls-1" d="M400.49,1049.63l-5.85,5.91c-3.02-2.89-7.48-4.34-11.63-4.34-9.11,0-15.27,7.04-15.27,15.9s5.78,16.53,15.34,16.53c3.33,0,7.23-.56,10.37-2.32v-10.5h-9.11v-7.16h17.03v22.75c-5.91,3.14-12.13,4.4-18.35,4.4-13.83,0-23.57-9.43-23.57-23.19s9.55-23.57,23.57-23.57c6.16,0,12.76,1.32,17.47,5.59Z"/>
          <path class="cls-1" d="M429.51,1090.8c-13.7,0-23.38-9.43-23.38-23.19,0-12.82,8.3-23.57,23.82-23.57,14.08,0,23.38,9.43,23.38,23.32s-10.12,23.44-23.82,23.44ZM429.7,1083.63c9.61,0,15.34-7.48,15.34-16.53s-6.28-15.9-15.4-15.9-15.21,7.1-15.21,15.9,5.72,16.53,15.27,16.53Z"/>
        </g>
        <g>
          <path class="cls-1" d="M2.38,863.69h19.47l27.64,45.18h.18v-45.18h14.32v65.01h-18.73l-28.37-46.28h-.18v46.28H2.38v-65.01Z"/>
          <path class="cls-1" d="M114.41,863.69h11.85l28.28,65.01h-16.16l-5.6-13.78h-25.25l-5.42,13.78h-15.79l28.1-65.01ZM119.92,882.61l-7.9,20.2h15.89l-7.99-20.2Z"/>
          <path class="cls-1" d="M180.98,876.36h-18.55v-12.67h51.42v12.67h-18.55v52.34h-14.32v-52.34Z"/>
          <path class="cls-1" d="M236.72,863.69h14.32v65.01h-14.32v-65.01Z"/>
          <path class="cls-1" d="M276.39,896.2c0-5.2.87-9.92,2.62-14.14,1.74-4.22,4.18-7.82,7.3-10.79,3.12-2.97,6.83-5.25,11.11-6.84,4.28-1.59,8.97-2.39,14.05-2.39s9.77.8,14.05,2.39c4.29,1.59,7.99,3.87,11.11,6.84,3.12,2.97,5.56,6.57,7.3,10.79,1.74,4.23,2.62,8.94,2.62,14.14s-.87,9.92-2.62,14.14c-1.74,4.22-4.18,7.82-7.3,10.79-3.12,2.97-6.83,5.25-11.11,6.84-4.28,1.59-8.97,2.39-14.05,2.39s-9.76-.8-14.05-2.39c-4.29-1.59-7.99-3.87-11.11-6.84-3.12-2.97-5.56-6.57-7.3-10.79-1.74-4.23-2.62-8.94-2.62-14.14ZM291.27,896.2c0,3.06.47,5.86,1.42,8.4.95,2.54,2.31,4.75,4.09,6.61,1.78,1.87,3.9,3.32,6.38,4.36,2.48,1.04,5.25,1.56,8.31,1.56s5.83-.52,8.31-1.56c2.48-1.04,4.61-2.49,6.38-4.36,1.78-1.87,3.14-4.07,4.09-6.61.95-2.54,1.42-5.34,1.42-8.4s-.47-5.78-1.42-8.36c-.95-2.57-2.31-4.79-4.09-6.66s-3.9-3.32-6.38-4.36c-2.48-1.04-5.25-1.56-8.31-1.56s-5.83.52-8.31,1.56c-2.48,1.04-4.61,2.49-6.38,4.36-1.78,1.87-3.14,4.09-4.09,6.66-.95,2.57-1.42,5.36-1.42,8.36Z"/>
          <path class="cls-1" d="M372.07,863.69h19.47l27.64,45.18h.18v-45.18h14.32v65.01h-18.73l-28.37-46.28h-.18v46.28h-14.33v-65.01Z"/>
          <path class="cls-1" d="M484.11,863.69h11.85l28.28,65.01h-16.16l-5.6-13.78h-25.25l-5.42,13.78h-15.79l28.1-65.01ZM489.62,882.61l-7.9,20.2h15.89l-7.99-20.2Z"/>
          <path class="cls-1" d="M547.1,863.69h14.32v51.79h26.54v13.22h-40.87v-65.01Z"/>
        </g>
        <g>
          <path class="cls-1" d="M0,801.12c0-6.44,1.08-12.27,3.24-17.49,2.16-5.23,5.17-9.67,9.03-13.34,3.86-3.67,8.44-6.49,13.74-8.46,5.3-1.97,11.09-2.95,17.37-2.95s12.08.99,17.38,2.95c5.3,1.97,9.88,4.79,13.74,8.46,3.86,3.67,6.87,8.12,9.03,13.34,2.16,5.22,3.23,11.05,3.23,17.49s-1.08,12.26-3.23,17.49c-2.16,5.22-5.17,9.67-9.03,13.34-3.86,3.67-8.44,6.49-13.74,8.46-5.3,1.97-11.09,2.95-17.38,2.95s-12.08-.99-17.37-2.95c-5.3-1.97-9.88-4.79-13.74-8.46-3.86-3.67-6.87-8.12-9.03-13.34-2.16-5.23-3.24-11.05-3.24-17.49ZM18.4,801.12c0,3.79.59,7.25,1.76,10.39,1.17,3.15,2.86,5.87,5.05,8.18,2.19,2.31,4.83,4.11,7.89,5.39,3.07,1.29,6.49,1.93,10.28,1.93s7.21-.64,10.28-1.93c3.07-1.29,5.7-3.08,7.89-5.39,2.2-2.31,3.88-5.03,5.05-8.18,1.17-3.14,1.76-6.6,1.76-10.39s-.59-7.16-1.76-10.34c-1.17-3.18-2.86-5.92-5.05-8.23-2.2-2.31-4.83-4.11-7.89-5.39-3.07-1.29-6.49-1.93-10.28-1.93s-7.21.65-10.28,1.93c-3.07,1.29-5.7,3.09-7.89,5.39-2.2,2.31-3.88,5.05-5.05,8.23-1.17,3.18-1.76,6.63-1.76,10.34Z"/>
          <path class="cls-1" d="M135.83,760.92h53.95v16.35h-36.23v16.36h33.5v16.35h-33.5v31.35h-17.72v-80.41Z"/>
          <path class="cls-1" d="M239.52,760.92h53.95v16.35h-36.23v16.36h33.5v16.35h-33.5v31.35h-17.72v-80.41Z"/>
          <path class="cls-1" d="M342.3,760.92h17.72v80.41h-17.72v-80.41Z"/>
          <path class="cls-1" d="M465.07,781.81c-1.74-2.12-3.88-3.75-6.42-4.88-2.54-1.14-5.47-1.71-8.8-1.71s-6.42.65-9.26,1.93c-2.84,1.29-5.3,3.09-7.38,5.39-2.08,2.31-3.71,5.05-4.88,8.23-1.17,3.18-1.76,6.63-1.76,10.34s.59,7.25,1.76,10.39c1.17,3.15,2.78,5.87,4.83,8.18,2.04,2.31,4.45,4.11,7.21,5.39,2.76,1.29,5.73,1.93,8.91,1.93,3.64,0,6.85-.76,9.65-2.27,2.8-1.51,5.11-3.63,6.93-6.36l14.76,11.02c-3.41,4.77-7.72,8.29-12.95,10.56-5.23,2.27-10.6,3.41-16.13,3.41-6.28,0-12.08-.99-17.37-2.95-5.3-1.97-9.88-4.79-13.74-8.46-3.86-3.67-6.87-8.12-9.03-13.34-2.16-5.23-3.24-11.05-3.24-17.49s1.08-12.27,3.24-17.49c2.16-5.23,5.17-9.67,9.03-13.34,3.86-3.67,8.44-6.49,13.74-8.46,5.3-1.97,11.09-2.95,17.37-2.95,2.27,0,4.64.21,7.1.63,2.46.42,4.88,1.08,7.27,1.99,2.39.91,4.67,2.12,6.87,3.64,2.2,1.52,4.16,3.37,5.91,5.57l-13.63,11.13Z"/>
          <path class="cls-1" d="M527.31,760.92h54.63v16.35h-36.91v14.99h34.86v16.36h-34.86v16.35h38.95v16.35h-56.67v-80.41Z"/>
        </g>
      </g>
    </g>
  </g>
</svg>