<?xml version="1.0" encoding="UTF-8"?>
<svg id="Calque_2" data-name="Calque 2" xmlns="http://www.w3.org/2000/svg" viewBox="0 0 1129.15 546.39">
  <defs>
    <style>
      .cls-1 {
        fill: #009fe3;
      }

      .cls-2 {
        fill: #88c351;
      }

      .cls-3 {
        fill: #006eab;
      }

      .cls-4 {
        fill: #f33d2c;
      }

      .cls-5 {
        fill: #ffaf2e;
      }

      .cls-6 {
        fill: #ffcf48;
      }

      .cls-7 {
        fill: #a252cc;
      }

      .cls-8 {
        fill: #e4190e;
      }
    </style>
  </defs>
  <g id="Calque_1-2" data-name="Calque 1">
    <g>
      <g>
        <g>
          <path class="cls-1" d="M466.3,313.46h23.34c5.65,0,11.02.63,16.11,1.9,5.09,1.26,9.53,3.31,13.32,6.13,3.79,2.83,6.8,6.5,9.03,11.02,2.23,4.52,3.34,10.01,3.34,16.46,0,5.72-1.08,10.76-3.24,15.11-2.16,4.36-5.07,8.01-8.73,10.97-3.66,2.96-7.88,5.21-12.67,6.73-4.79,1.53-9.81,2.3-15.06,2.3h-25.44v-70.63ZM481.87,369.72h8.08c3.59,0,6.93-.36,10.03-1.1,3.09-.73,5.77-1.94,8.03-3.64,2.26-1.7,4.04-3.92,5.34-6.68,1.3-2.76,1.94-6.13,1.94-10.13,0-3.46-.65-6.47-1.94-9.03-1.3-2.56-3.04-4.67-5.24-6.33-2.19-1.66-4.77-2.91-7.73-3.74-2.96-.83-6.07-1.25-9.33-1.25h-9.18v41.9Z"/>
          <path class="cls-1" d="M598.88,356.86c0,4.19-.63,8.05-1.89,11.57-1.27,3.53-3.14,6.58-5.64,9.18-2.49,2.6-5.6,4.62-9.33,6.09-3.73,1.46-8.01,2.19-12.87,2.19s-9.24-.73-12.97-2.19c-3.73-1.46-6.83-3.49-9.33-6.09-2.49-2.59-4.37-5.65-5.64-9.18-1.27-3.52-1.9-7.38-1.9-11.57v-43.4h15.56v42.8c0,2.19.35,4.23,1.05,6.09.7,1.86,1.68,3.47,2.94,4.84,1.26,1.36,2.78,2.43,4.54,3.19,1.76.77,3.67,1.15,5.74,1.15s3.96-.38,5.69-1.15c1.73-.76,3.22-1.83,4.49-3.19,1.26-1.36,2.24-2.98,2.94-4.84.7-1.86,1.05-3.89,1.05-6.09v-42.8h15.56v43.4Z"/>
          <path class="cls-1" d="M651.05,327.23h-20.15v-13.77h55.86v13.77h-20.15v56.86h-15.56v-56.86Z"/>
          <path class="cls-1" d="M688.16,348.78c0-5.65.95-10.77,2.84-15.36,1.89-4.59,4.54-8.49,7.93-11.72,3.39-3.22,7.41-5.7,12.07-7.43,4.65-1.73,9.74-2.59,15.26-2.59s10.61.86,15.26,2.59c4.66,1.73,8.68,4.21,12.07,7.43,3.39,3.23,6.03,7.13,7.93,11.72,1.89,4.59,2.84,9.71,2.84,15.36s-.95,10.77-2.84,15.36c-1.9,4.59-4.54,8.49-7.93,11.72-3.39,3.23-7.42,5.7-12.07,7.43-4.66,1.73-9.74,2.59-15.26,2.59s-10.61-.86-15.26-2.59c-4.66-1.73-8.68-4.21-12.07-7.43-3.39-3.22-6.04-7.13-7.93-11.72-1.9-4.59-2.84-9.71-2.84-15.36ZM704.31,348.78c0,3.33.52,6.37,1.55,9.13,1.03,2.76,2.51,5.15,4.44,7.18,1.93,2.03,4.24,3.61,6.93,4.74,2.69,1.13,5.7,1.7,9.03,1.7s6.33-.56,9.03-1.7c2.69-1.13,5-2.71,6.93-4.74,1.93-2.03,3.41-4.42,4.44-7.18,1.03-2.76,1.55-5.8,1.55-9.13s-.52-6.28-1.55-9.08c-1.03-2.79-2.51-5.2-4.44-7.23-1.93-2.03-4.24-3.61-6.93-4.74-2.69-1.13-5.7-1.7-9.03-1.7s-6.34.57-9.03,1.7c-2.69,1.13-5.01,2.71-6.93,4.74-1.93,2.03-3.41,4.44-4.44,7.23-1.03,2.79-1.55,5.82-1.55,9.08Z"/>
          <path class="cls-1" d="M831.8,356.86c0,4.19-.63,8.05-1.89,11.57-1.27,3.53-3.14,6.58-5.64,9.18-2.49,2.6-5.6,4.62-9.33,6.09-3.73,1.46-8.01,2.19-12.87,2.19s-9.24-.73-12.97-2.19c-3.73-1.46-6.83-3.49-9.33-6.09-2.49-2.59-4.37-5.65-5.64-9.18-1.27-3.52-1.9-7.38-1.9-11.57v-43.4h15.56v42.8c0,2.19.35,4.23,1.05,6.09.7,1.86,1.68,3.47,2.94,4.84,1.26,1.36,2.78,2.43,4.54,3.19,1.76.77,3.67,1.15,5.74,1.15s3.96-.38,5.69-1.15c1.73-.76,3.22-1.83,4.49-3.19,1.26-1.36,2.24-2.98,2.94-4.84.7-1.86,1.05-3.89,1.05-6.09v-42.8h15.56v43.4Z"/>
          <path class="cls-1" d="M843.47,313.46h27.33c3.59,0,7,.35,10.23,1.05,3.22.7,6.05,1.86,8.48,3.49,2.43,1.63,4.36,3.82,5.79,6.58,1.43,2.76,2.15,6.2,2.15,10.32,0,4.99-1.3,9.23-3.89,12.72-2.59,3.49-6.38,5.7-11.37,6.63l17.95,29.83h-18.65l-14.76-28.23h-7.68v28.23h-15.56v-70.63ZM859.04,342.69h9.18c1.4,0,2.88-.05,4.44-.15,1.56-.1,2.97-.4,4.24-.9,1.26-.5,2.31-1.28,3.14-2.35.83-1.06,1.25-2.56,1.25-4.49,0-1.8-.37-3.23-1.1-4.29-.73-1.06-1.66-1.88-2.79-2.44-1.13-.56-2.43-.95-3.89-1.15-1.46-.2-2.89-.3-4.29-.3h-10.18v16.06Z"/>
          <path class="cls-1" d="M905.22,313.46h15.56v70.63h-15.56v-70.63Z"/>
          <path class="cls-1" d="M967.17,330.72c-1.27-1.6-2.98-2.78-5.14-3.54-2.16-.76-4.21-1.15-6.13-1.15-1.13,0-2.29.13-3.49.4-1.2.27-2.33.68-3.39,1.25-1.06.57-1.93,1.31-2.59,2.24-.67.93-1,2.06-1,3.39,0,2.13.8,3.76,2.39,4.89,1.6,1.13,3.61,2.1,6.03,2.89,2.43.8,5.04,1.6,7.83,2.39,2.79.8,5.4,1.93,7.83,3.39,2.43,1.46,4.44,3.43,6.04,5.88,1.6,2.46,2.39,5.75,2.39,9.88s-.73,7.35-2.19,10.28c-1.46,2.93-3.44,5.35-5.94,7.28-2.49,1.93-5.39,3.36-8.68,4.29-3.29.93-6.77,1.4-10.42,1.4-4.59,0-8.85-.7-12.77-2.1-3.93-1.39-7.58-3.66-10.98-6.78l11.07-12.17c1.6,2.13,3.61,3.78,6.04,4.94,2.43,1.16,4.94,1.75,7.53,1.75,1.26,0,2.54-.15,3.84-.45,1.3-.3,2.46-.75,3.49-1.35,1.03-.6,1.86-1.36,2.49-2.29.63-.93.95-2.03.95-3.29,0-2.13-.82-3.81-2.44-5.04-1.63-1.23-3.68-2.28-6.13-3.14-2.46-.86-5.12-1.73-7.98-2.6-2.86-.86-5.52-2.03-7.98-3.49-2.46-1.46-4.51-3.39-6.13-5.78-1.63-2.4-2.44-5.55-2.44-9.48s.75-7.12,2.24-9.98c1.5-2.86,3.49-5.25,5.99-7.18,2.49-1.93,5.37-3.37,8.63-4.34,3.26-.96,6.62-1.45,10.08-1.45,3.99,0,7.85.56,11.57,1.7,3.72,1.13,7.08,3.03,10.08,5.69l-10.67,11.67Z"/>
          <path class="cls-1" d="M986.82,313.46h23.54l16.26,46.09h.2l16.36-46.09h23.44v70.63h-15.56v-54.17h-.2l-18.55,54.17h-11.87l-17.86-54.17h-.2v54.17h-15.56v-70.63Z"/>
          <path class="cls-1" d="M1078.89,313.46h47.98v14.37h-32.42v13.17h30.62v14.36h-30.62v14.37h34.22v14.37h-49.78v-70.63Z"/>
        </g>
        <g>
          <path class="cls-1" d="M469.61,469.52v-50.36h17.78c9.67,0,18.49,3.41,18.49,14.44,0,7.54-4.55,12.66-11.66,13.66l13.37,22.26h-10.81l-11.66-21.34h-6.55v21.34h-8.96ZM478.57,440.5h7.4c5.12,0,10.53-.71,10.53-6.97,0-5.76-5.19-6.69-9.89-6.69h-8.04v13.66Z"/>
          <path class="cls-1" d="M532.01,419.16c13.02,0,25.39,8.25,25.39,25.18,0,17.85-15.51,25.18-26.46,25.18h-18.99v-50.36h20.06ZM527.95,461.42c10.74,0,20.06-4.84,20.06-17.07s-7.89-17.07-18.85-17.07h-8.25v34.14h7.04Z"/>
          <path class="cls-1" d="M574.07,464.4c0,3.13-2.63,5.55-5.69,5.55s-5.69-2.35-5.69-5.41,2.63-5.55,5.69-5.55,5.69,2.28,5.69,5.4Z"/>
          <path class="cls-1" d="M623.58,425.85l-6.97,5.12c-2.91-3.13-6.19-4.98-10.6-4.98-10.31,0-17.28,7.97-17.28,18s6.69,18.71,17.28,18.71c4.77,0,8.46-2.49,11.31-6.12l7.4,5.26c-4.34,6.12-11.38,8.96-18.78,8.96-15.51,0-26.6-10.6-26.6-26.25s10.53-26.68,26.6-26.68c7.18,0,12.87,2.56,17.64,7.97Z"/>
          <path class="cls-1" d="M652.05,470.8c-15.51,0-26.46-10.67-26.46-26.25,0-14.51,9.39-26.68,26.96-26.68,15.93,0,26.46,10.67,26.46,26.39s-11.45,26.53-26.96,26.53ZM652.26,462.69c10.88,0,17.35-8.46,17.35-18.71s-7.11-18-17.43-18-17.21,8.04-17.21,18,6.47,18.71,17.28,18.71Z"/>
          <path class="cls-1" d="M685.07,469.52v-50.36h11.88l24.4,37.41h.14v-37.41h8.96v50.36h-11.38l-24.9-38.62h-.14v38.62h-8.96Z"/>
          <path class="cls-1" d="M782.97,424.21l-6.61,6.69c-3.41-3.27-8.47-4.91-13.16-4.91-10.31,0-17.28,7.97-17.28,18s6.55,18.71,17.36,18.71c3.77,0,8.18-.64,11.74-2.63v-11.88h-10.31v-8.11h19.28v25.75c-6.69,3.56-13.73,4.98-20.77,4.98-15.65,0-26.67-10.67-26.67-26.25s10.81-26.68,26.67-26.68c6.97,0,14.44,1.49,19.77,6.33Z"/>
          <path class="cls-1" d="M815.85,470.8c-15.51,0-26.46-10.67-26.46-26.25,0-14.51,9.39-26.68,26.96-26.68,15.93,0,26.46,10.67,26.46,26.39s-11.45,26.53-26.96,26.53ZM816.06,462.69c10.88,0,17.35-8.46,17.35-18.71s-7.11-18-17.43-18-17.21,8.04-17.21,18,6.47,18.71,17.28,18.71Z"/>
        </g>
        <g>
          <path class="cls-1" d="M467.4,205.06h22.05l31.3,51.16h.21v-51.16h16.22v73.62h-21.21l-32.13-52.41h-.21v52.41h-16.22v-73.62Z"/>
          <path class="cls-1" d="M594.26,205.06h13.41l32.03,73.62h-18.3l-6.34-15.6h-28.6l-6.13,15.6h-17.89l31.82-73.62ZM600.5,226.48l-8.94,22.88h17.99l-9.05-22.88Z"/>
          <path class="cls-1" d="M669.65,219.41h-21.01v-14.35h58.23v14.35h-21v59.27h-16.22v-59.27Z"/>
          <path class="cls-1" d="M732.77,205.06h16.22v73.62h-16.22v-73.62Z"/>
          <path class="cls-1" d="M777.69,241.87c0-5.89.99-11.23,2.96-16.01,1.98-4.78,4.73-8.85,8.27-12.22,3.53-3.36,7.73-5.94,12.58-7.75,4.85-1.8,10.16-2.7,15.91-2.7s11.06.9,15.91,2.7c4.85,1.8,9.05,4.38,12.58,7.75,3.54,3.36,6.29,7.44,8.27,12.22,1.98,4.78,2.97,10.12,2.97,16.01s-.99,11.23-2.97,16.01c-1.97,4.78-4.73,8.86-8.27,12.22-3.53,3.36-7.73,5.94-12.58,7.75-4.85,1.8-10.16,2.7-15.91,2.7s-11.06-.9-15.91-2.7c-4.85-1.8-9.05-4.38-12.58-7.75-3.54-3.36-6.29-7.44-8.27-12.22-1.98-4.78-2.96-10.12-2.96-16.01ZM794.53,241.87c0,3.47.54,6.64,1.61,9.51,1.07,2.88,2.61,5.37,4.63,7.49,2.01,2.12,4.42,3.76,7.23,4.94,2.81,1.18,5.94,1.77,9.41,1.77s6.6-.59,9.41-1.77c2.81-1.18,5.21-2.82,7.23-4.94,2.01-2.12,3.55-4.61,4.63-7.49,1.08-2.87,1.61-6.05,1.61-9.51s-.54-6.55-1.61-9.46c-1.08-2.91-2.62-5.42-4.63-7.54-2.01-2.12-4.42-3.76-7.23-4.94-2.81-1.18-5.94-1.77-9.41-1.77s-6.61.59-9.41,1.77c-2.81,1.18-5.22,2.83-7.23,4.94-2.01,2.12-3.55,4.63-4.63,7.54-1.08,2.91-1.61,6.07-1.61,9.46Z"/>
          <path class="cls-1" d="M886.04,205.06h22.05l31.3,51.16h.21v-51.16h16.22v73.62h-21.21l-32.13-52.41h-.21v52.41h-16.22v-73.62Z"/>
          <path class="cls-1" d="M1012.9,205.06h13.41l32.03,73.62h-18.3l-6.34-15.6h-28.6l-6.13,15.6h-17.89l31.82-73.62ZM1019.14,226.48l-8.94,22.88h17.99l-9.05-22.88Z"/>
          <path class="cls-1" d="M1084.23,205.06h16.22v58.65h27.23v14.98h-43.45v-73.62Z"/>
        </g>
        <g>
          <path class="cls-1" d="M467.87,135.97c0-7.29,1.22-13.89,3.67-19.81,2.44-5.92,5.85-10.95,10.22-15.11,4.37-4.16,9.56-7.35,15.56-9.58,6-2.23,12.56-3.34,19.68-3.34s13.68,1.11,19.68,3.34c6,2.23,11.19,5.42,15.56,9.58,4.37,4.16,7.78,9.2,10.22,15.11,2.44,5.92,3.67,12.52,3.67,19.81s-1.22,13.89-3.67,19.8c-2.44,5.92-5.85,10.95-10.22,15.11-4.37,4.16-9.56,7.35-15.56,9.58-6,2.23-12.56,3.34-19.68,3.34s-13.68-1.11-19.68-3.34c-6-2.23-11.19-5.42-15.56-9.58-4.37-4.16-7.78-9.2-10.22-15.11-2.44-5.92-3.67-12.52-3.67-19.8ZM488.7,135.97c0,4.29.67,8.21,2,11.77,1.33,3.56,3.23,6.64,5.72,9.26,2.49,2.62,5.47,4.65,8.94,6.11,3.47,1.46,7.35,2.19,11.64,2.19s8.17-.73,11.64-2.19c3.47-1.46,6.45-3.49,8.94-6.11,2.49-2.61,4.39-5.7,5.72-9.26,1.33-3.56,1.99-7.48,1.99-11.77s-.67-8.1-1.99-11.7c-1.33-3.6-3.24-6.71-5.72-9.32-2.49-2.61-5.47-4.65-8.94-6.11-3.47-1.46-7.35-2.19-11.64-2.19s-8.17.73-11.64,2.19c-3.47,1.46-6.45,3.49-8.94,6.11-2.49,2.62-4.39,5.72-5.72,9.32-1.33,3.6-2,7.5-2,11.7Z"/>
          <path class="cls-1" d="M621.68,90.44h61.09v18.52h-41.03v18.52h37.94v18.52h-37.94v35.5h-20.06v-91.05Z"/>
          <path class="cls-1" d="M735.12,90.44h61.09v18.52h-41.03v18.52h37.94v18.52h-37.94v35.5h-20.06v-91.05Z"/>
          <path class="cls-1" d="M855.48,90.44h20.06v91.05h-20.06v-91.05Z"/>
          <path class="cls-1" d="M994.5,114.11c-1.97-2.4-4.39-4.24-7.27-5.53-2.87-1.29-6.19-1.93-9.97-1.93s-7.27.73-10.48,2.19c-3.22,1.46-6,3.49-8.36,6.11-2.36,2.62-4.2,5.72-5.53,9.32-1.33,3.6-2,7.5-2,11.7s.67,8.21,2,11.77c1.33,3.56,3.15,6.64,5.46,9.26,2.31,2.62,5.03,4.65,8.17,6.11,3.13,1.46,6.49,2.19,10.1,2.19,4.12,0,7.76-.86,10.93-2.57,3.17-1.71,5.79-4.12,7.84-7.2l16.72,12.48c-3.86,5.4-8.75,9.39-14.66,11.96-5.92,2.57-12,3.86-18.26,3.86-7.12,0-13.68-1.11-19.68-3.34-6-2.23-11.19-5.42-15.56-9.58-4.37-4.16-7.78-9.2-10.22-15.11-2.44-5.92-3.67-12.52-3.67-19.8s1.22-13.89,3.67-19.81c2.44-5.92,5.85-10.95,10.22-15.11,4.37-4.16,9.56-7.35,15.56-9.58,6-2.23,12.56-3.34,19.68-3.34,2.57,0,5.25.24,8.04.71,2.79.47,5.53,1.22,8.23,2.25,2.7,1.03,5.29,2.4,7.78,4.12,2.49,1.72,4.71,3.82,6.69,6.3l-15.43,12.6Z"/>
          <path class="cls-1" d="M1064.98,90.44h61.86v18.52h-41.8v16.98h39.48v18.52h-39.48v18.52h44.11v18.52h-64.17v-91.05Z"/>
        </g>
      </g>
      <g>
        <path class="cls-6" d="M79.01,280.6s.01,0,.01,0c1.32-12.6,3.57-29.54,16.52-40.72,57.01-49.22,118.05-20.7,181.26-75.92l5.59-4.9c10.66-9.34,15.72-23.59,13.12-37.52C278.57,30.61,179.37-30.53,79.62,15.94,48.98,30.22,24.93,55.76,12.34,87.13c-32.86,81.85,3.5,159.78,66.67,193.47ZM115.79,81.32c58.1-30.98,116.55,27.46,85.56,85.56-4.51,8.46-11.47,15.42-19.93,19.93-58.1,30.98-116.55-27.46-85.56-85.56,4.51-8.46,11.47-15.42,19.93-19.93Z"/>
        <path class="cls-7" d="M104.97,385.19c-3.57-4.73-11.15-13.08-14.62-18.82,0,0,0,0,0,0,4.14,29,8.79,62.94-12.45,84.18-4.52,4.52-5.38,12.15-5.45,14.16l-3.41,72.66c-.14,3.65,1.96,7.02,5.3,8.5,3.23,1.44,6.31-.24,6.85-3.73l10.19-65.72c.95-6.15,4.02-11.89,8.81-16.31l1.94-1.8c.68-.63,1.22-1.4,1.58-2.25,18.79-44,9.38-60.1,1.27-70.87Z"/>
        <path class="cls-4" d="M79.52,303.58c2.23-2.88,3.14-6.57,2.8-10.2l-.36-3.94c-.25-2.61-2.72-3.44-4.07-1.94-8.37,9.28-30.71,31.64-56.46,37.21,0,0-2.44,1.09-3.99,3.58-1.44,2.32.76,5.24,3.44,4.74,11.82-2.21,43.39-9.78,58.63-29.45Z"/>
        <path class="cls-8" d="M407.6,36.2c-9.95-6.59-15.13,2.26-20.61,4.82-8.08,3.77-24.89-1.16-29.24-6.26-4.35-5.09-8.72-9.2-22.62-11.06-12.48-1.68-50.55-8.45-58.18-9.81-.89-.16-1.79.19-2.3.95-1.92,2.82-4.88,10.36,9.39,18.97,18.14,10.94,16.32,24.11,40.11,39.74,29.99,19.7,51.93,18.7,61.51,42.26,1.02,2.5,4.75,1.65,4.52-1.04-.98-11.01-3.51-26.26-9.47-45.51,0,0,.01,0,.02,0,1.28,1.55-3.2-26.99,14.31-10.96,7.36,6.73,24.71-4.64,30.41-8.22,2.27-1.42-11.73-9.81-17.85-13.86Z"/>
        <path class="cls-5" d="M115.79,186.81c58.11,30.99,116.55-27.46,85.56-85.56-4.51-8.46-11.47-15.42-19.93-19.93-58.1-30.98-116.54,27.46-85.56,85.56,4.51,8.46,11.47,15.42,19.93,19.93Z"/>
        <path class="cls-6" d="M308.13,376.15c-6.35-.34-5.63,3.87-4.04,10.36,2.46,10.03,4.59,19.85,5.9,30.18,3.07,24.3,4.17,49.22,1.14,73.57,4.71,9.05,13.23,5.81,13.68-.08l2.19-75.59-.44-8.69c-1.78-12.41.13-26.38-15.5-29.38-1.11-.21-2.09-.34-2.93-.39Z"/>
        <path class="cls-1" d="M320.26,133.61s0-.01-.01,0c-2.93,5.59-6.73,11.58-11.59,17.94-25.46,33.4-62.7,55.73-103.75,64.44-15.25,3.27-31.73,6.34-49.61,9.18,0,0,0,0-.01,0-.35.02-43.55,2.98-61.97,37.61-.5.93.6,1.94,1.47,1.3,16.52-11.58,47.39-32.14,97.81-22.32.7.1,7.17,1.9,7.31,2.47.47,1.87-3.77,1.2-4.37,1.07-2.1-.47-26.7.67-29.5,1.13-6.54,1.13-13.05,2.67-19.39,4.64-16.22,5.01-31.5,12.68-45.25,22.59-5.04,3.67-9.44,7.94-14.08,11.61-.9.73-1.57,1.8-1.77,2.97-3.04,15.32,20.72-5.51,32.1-9.11,18.42-5.91,52.09-14.58,75.35-7.61,1.07.33,2.44.3,3.24,1.17-.53.73-1.6.57-2.44.73-1.43.2-2.87.27-4.3.47-5.11.67-10.24.57-15.42.57-1.1,0-2.24,0-3.34.03-9.44.2-18.89,2.44-28,4.5-7.84,1.77-15.48,4.24-22.82,7.47-8.91,3.94-16.75,7.74-24.89,12.85-1.9,1.17-3.94,2.44-6.01,3.67-2.24,1.33-3.54,3.8-3.3,6.37.63,6.14,1.97,23.23,9.41,14.98,2.3-2.57,3.87-3,6.84-4.91,13.71-8.81,29.97-14.42,45.85-16.08,8.61-.9,17.32-1.87,26-1.5,4,.17,7.94.67,11.81,1.7,1.53.4,7.51,2.2,3.14,3.47-2.6.77-23.46-4.67-50.66,5.17-9.91,3.6-19.42,8.31-28.23,14.05-1.8,1.17-3.6,2.44-5.41,3.7-2.77,2-5.31,4.2-7.81,6.37-.27.2-.47.43-.73.63-2.27,2.04-3.14,5.21-2.17,8.11.5,1.47.5,7.14,5.77,2.77,6.27-5.21,13.85-9.04,21.62-11.88,6.41-2.37,13.08-4.1,19.69-4.61,15.22-1.23,32.34,1.84,32.34,1.84,8.44,3.84-29.37.2-46.38,7.58-6.34,2.77-12.85,6.57-19.65,11.25-8.61,5.91-5.74,10.75-4.4,12.81,3.47,5.74,8.34,10.54,12.21,16.12,6.84,9.88,19.69,23.09.17,68.07-1.07,2.44-7.17,9.51-4.07,16.45l29.67,73.41c.87,2.2,3.07,3.64,5.44,3.6h8.79c-10.88-22.24-18.71-71.08,3.06-112.59,19.45-37.11,32.1-62.67,51.99-85.56-.03.03-.07.03-.07.03,4.61-8.71,18.15-27.9,35.07-47.49,22.35-32.93,59.85-95.34,75.27-163.26ZM153.72,365.38c-2.47.63-5.04,1-7.57,1.13-4.24.27-7.88,1.27-15.52,3.17-3.47.83-14.35,7.48-14.05,2.9,6.94-7.44,14.12-11.48,23.19-12.21,3.07-.23,6.17-.37,9.28-.47,5.37-.23,10.78-.5,15.98-1.33,6.44,2.14-7.21,5.77-11.31,6.81Z"/>
        <path class="cls-3" d="M376.64,299.9c.93-5.61,1.33-11.41,1.4-17.35.13-8.31-11.25-50.05-60.1-42.65-21.12,3.17-50.08,30.46-72.94,56.96,0,0,0,0,0,0,22.36-32.94,59.86-95.37,75.28-163.31,3.3-14.62,5.61-29.5,6.51-44.42.17-2.84,2.97-4.81,5.67-3.87,14.05,4.87,50.85,20.02,54.66,46.85,0,0,0,0,0,0,0,.16,4.83,115.53-10.48,167.78Z"/>
        <path class="cls-2" d="M378.04,282.55c-.07,5.94-.47,11.75-1.4,17.35-1.03,6.77-2.87,13.21-5.71,19.25-9.04,19.15-8.98,73.25-8.98,73.25-.4-.43,7.74,108.95,7.74,108.95.37,3.4-2.1,6.44-5.51,6.81-3.2.33-6.14-1.84-6.71-5.01l-19.42-99.28c-20.42-91.77-125.17-60.1-128.04-59.57h-.03s-.07.03-.07.03c4.61-8.71,18.15-27.9,35.07-47.49,22.86-26.5,51.82-53.79,72.95-56.96,48.85-7.41,60.23,34.34,60.1,42.65Z"/>
      </g>
    </g>
  </g>
</svg>