<?xml version="1.0" encoding="UTF-8"?>
<svg id="Calque_2" data-name="Calque 2" xmlns="http://www.w3.org/2000/svg" xmlns:xlink="http://www.w3.org/1999/xlink" viewBox="0 0 67 66">
  <defs>
    <style>
      .cls-1 {
        fill: none;
      }

      .cls-2 {
        clip-path: url(#clippath);
      }

      .cls-3 {
        fill: #1d71a0;
      }
    </style>
    <clipPath id="clippath">
      <rect class="cls-1" width="67" height="66"/>
    </clipPath>
  </defs>
  <g id="Calque_1-2" data-name="Calque 1">
    <g class="cls-2">
      <path class="cls-3" d="m61.42,19.25v17.37c-1.67.6-4.58,1.53-8.38,2.4V8.25c0-4.55-3.76-8.25-8.38-8.25h-22.33c-4.62,0-8.38,3.7-8.38,8.25v30.77c-3.79-.87-6.71-1.8-8.37-2.4v-17.37H0v21.03c3.33,1.29,11.44,5.51,30.71,6.41v8.3h-8.38c-4.62,0-8.38,3.7-8.38,8.25v2.75h5.58v-2.75c0-1.52,1.25-2.75,2.79-2.75h8.38v5.5h5.58v-5.5h8.38c1.54,0,2.79,1.23,2.79,2.75v2.75h5.58v-2.75c0-4.55-3.76-8.25-8.38-8.25h-8.38v-8.3c19.29-.91,27.35-5.12,30.71-6.41v-21.03h-5.58ZM22.33,5.5h22.33c1.54,0,2.79,1.23,2.79,2.75v24.07c-9.18-2.71-18.73-2.72-27.92,0V8.25c0-1.52,1.25-2.75,2.79-2.75Zm-2.79,32.57c9.14-3.07,18.77-3.07,27.92,0v2.05c-4.07.66-8.78,1.13-13.96,1.13s-9.89-.47-13.96-1.13v-2.05Z"/>
    </g>
  </g>
</svg>