<?xml version="1.0" encoding="UTF-8"?>
<svg id="Calque_2" data-name="Calque 2" xmlns="http://www.w3.org/2000/svg" viewBox="0 0 67 77.14">
  <defs>
    <style>
      .cls-1 {
        fill: #1d71a0;
      }
    </style>
  </defs>
  <g id="Calque_1-2" data-name="Calque 1">
    <path class="cls-1" d="m67,32.11v12.87c0,1.78-1.25,3.22-2.8,3.22s-2.8-1.44-2.8-3.22v-8.32l-7.91,9.1c-2.11,2.43-3.28,5.66-3.28,9.1v19.07c0,1.78-1.25,3.22-2.8,3.22s-2.8-1.44-2.8-3.22v-19.07c0-5.16,1.74-10,4.92-13.65l7.91-9.1h-7.23c-1.55,0-2.8-1.44-2.8-3.22s1.25-3.22,2.8-3.22h11.18c3.08,0,5.59,2.89,5.59,6.43Zm-21.79-21.19l-7.91-9.1c-2.11-2.43-5.79-2.43-7.91,0l-7.91,9.1c-1.09,1.26-1.09,3.29,0,4.55,1.09,1.26,2.86,1.26,3.95,0l5.21-6v64.45c0,1.78,1.25,3.22,2.8,3.22s2.8-1.44,2.8-3.22V9.7l5.01,5.77c1.09,1.26,2.86,1.26,3.95,0,1.09-1.26,1.09-3.29,0-4.55h0ZM9.55,32.11h7.12c1.54,0,2.8-1.44,2.8-3.22s-1.25-3.22-2.8-3.22H5.59c-3.08,0-5.59,2.89-5.59,6.43v12.87c0,1.78,1.25,3.22,2.8,3.22s2.8-1.44,2.8-3.22v-8.32l7.91,9.1c2.11,2.43,3.28,5.66,3.28,9.1v19.07c0,1.78,1.25,3.22,2.8,3.22s2.8-1.44,2.8-3.22v-19.07c0-5.15-1.74-10-4.91-13.65l-7.91-9.1Z"/>
  </g>
</svg>