<?xml version="1.0" encoding="UTF-8"?>
<svg id="Calque_2" data-name="Calque 2" xmlns="http://www.w3.org/2000/svg" xmlns:xlink="http://www.w3.org/1999/xlink" viewBox="0 0 138 138">
  <defs>
    <style>
      .cls-1 {
        fill: none;
      }

      .cls-2 {
        clip-path: url(#clippath);
      }

      .cls-3 {
        fill: #1d71a0;
      }
    </style>
    <clipPath id="clippath">
      <rect class="cls-1" width="138" height="138"/>
    </clipPath>
  </defs>
  <g id="Calque_1-2" data-name="Calque 1">
    <g class="cls-2">
      <path class="cls-3" d="m54.62,25.88c0-7.94,6.43-14.38,14.38-14.38s14.38,6.43,14.38,14.38-6.43,14.38-14.38,14.38-14.38-6.43-14.38-14.38Zm43.12,43.12v17.25c0,8.48-4.66,15.81-11.5,19.8v26.2c0,3.17-2.58,5.75-5.75,5.75s-5.75-2.58-5.75-5.75v-23h-11.5v23c0,3.17-2.58,5.75-5.75,5.75s-5.75-2.58-5.75-5.75v-26.2c-6.84-3.99-11.5-11.33-11.5-19.8v-17.25c0-12.68,10.32-23,23-23h11.5c12.68,0,23,10.32,23,23Zm-11.5,0c0-6.34-5.16-11.5-11.5-11.5h-11.5c-6.34,0-11.5,5.16-11.5,11.5v17.25c0,6.34,5.16,11.5,11.5,11.5h11.5c6.34,0,11.5-5.16,11.5-11.5v-17.25Zm25.88-40.25c7.94,0,14.38-6.43,14.38-14.38S120.07,0,112.12,0s-14.38,6.43-14.38,14.38,6.43,14.38,14.38,14.38Zm-86.25,0c7.94,0,14.38-6.43,14.38-14.38S33.82,0,25.88,0s-14.38,6.43-14.38,14.38,6.43,14.38,14.38,14.38Zm10.55,7.07c-2.46-.87-5.04-1.32-7.67-1.32h-5.75C10.32,34.5,0,44.82,0,57.5v17.25c0,8.48,4.66,15.81,11.5,19.8v26.2c0,3.17,2.58,5.75,5.75,5.75s5.75-2.58,5.75-5.75v-23c3.17,0,5.75-2.58,5.75-5.75s-2.58-5.75-5.75-5.75c-6.34,0-11.5-5.16-11.5-11.5v-17.25c0-6.34,5.16-11.5,11.5-11.5h5.75c1.32,0,2.61.22,3.83.65,3.01,1.06,6.28-.51,7.34-3.5,1.06-3-.5-6.28-3.5-7.34h0Zm78.58-1.32h-5.75c-2.63,0-5.21.44-7.67,1.32-3,1.06-4.55,4.35-3.5,7.34,1.06,2.99,4.32,4.55,7.34,3.5,1.22-.43,2.51-.65,3.83-.65h5.75c6.34,0,11.5,5.16,11.5,11.5v17.25c0,6.34-5.16,11.5-11.5,11.5-3.17,0-5.75,2.58-5.75,5.75s2.58,5.75,5.75,5.75v23c0,3.17,2.58,5.75,5.75,5.75s5.75-2.58,5.75-5.75v-26.2c6.84-3.99,11.5-11.33,11.5-19.8v-17.25c0-12.68-10.32-23-23-23h0Z"/>
    </g>
  </g>
</svg>