<svg width="67" height="78" viewBox="0 0 67 78" fill="none" xmlns="http://www.w3.org/2000/svg">
<path d="M67 32.1068V44.974C67 46.7528 65.7501 48.1908 64.2038 48.1908C62.6575 48.1908 61.4076 46.7528 61.4076 44.974V36.6553L53.4999 45.7524C51.386 48.1843 50.2227 51.4172 50.2227 54.8527V73.9251C50.2227 75.704 48.9728 77.1419 47.4265 77.1419C45.8802 77.1419 44.6303 75.704 44.6303 73.9251V54.8527C44.6303 49.6962 46.3752 44.8517 49.5461 41.2039L57.4537 32.1068H50.2227C48.6764 32.1068 47.4265 30.6689 47.4265 28.89C47.4265 27.1111 48.6764 25.6732 50.2227 25.6732H61.4076C64.4918 25.6732 67 28.5587 67 32.1068ZM45.2091 10.921L37.3014 1.82392C35.1875 -0.607974 31.5077 -0.607974 29.391 1.82392L21.4805 10.921C20.3872 12.1788 20.3872 14.2118 21.4805 15.4696C22.5738 16.7273 24.341 16.7273 25.4343 15.4696L30.6465 9.47345V73.9251C30.6465 75.704 31.8992 77.1419 33.4427 77.1419C34.9862 77.1419 36.2389 75.704 36.2389 73.9251V9.70184L41.2525 15.4696C42.3458 16.7273 44.113 16.7273 45.2063 15.4696C46.2997 14.2118 46.2997 12.1788 45.2063 10.921H45.2091ZM9.54626 32.1068H16.6682C18.2117 32.1068 19.4644 30.6689 19.4644 28.89C19.4644 27.1111 18.2117 25.6732 16.6682 25.6732H5.59242C2.5082 25.6732 0 28.5587 0 32.1068V44.974C0 46.7528 1.2527 48.1908 2.79621 48.1908C4.33972 48.1908 5.59242 46.7528 5.59242 44.974V36.6553L13.5001 45.7524C15.614 48.1843 16.7773 51.4172 16.7773 54.8527V73.9251C16.7773 75.704 18.03 77.1419 19.5735 77.1419C21.117 77.1419 22.3697 75.704 22.3697 73.9251V54.8527C22.3697 49.6994 20.6248 44.8549 17.4567 41.2039L9.54626 32.1068Z" fill="#1D71A0"/>
</svg>
