<svg width="66" height="66" viewBox="0 0 66 66" fill="none" xmlns="http://www.w3.org/2000/svg">
<g clip-path="url(#clip0_203_29)">
<path d="M60.5 19.25V36.6245C58.8582 37.224 55.9845 38.1507 52.25 39.0225V8.25C52.25 3.7015 48.5485 0 44 0H22C17.4515 0 13.75 3.7015 13.75 8.25V39.0225C10.0155 38.1507 7.14175 37.224 5.5 36.6245V19.25H0V40.2847C3.278 41.5745 11.2723 45.7902 30.25 46.6978V54.9972H22C17.4515 54.9972 13.75 58.6987 13.75 63.2472V65.9972H19.25V63.2472C19.25 61.7292 20.4848 60.4972 22 60.4972H30.25V65.9972H35.75V60.4972H44C45.518 60.4972 46.75 61.7292 46.75 63.2472V65.9972H52.25V63.2472C52.25 58.6987 48.5485 54.9972 44 54.9972H35.75V46.6978C54.7552 45.7847 62.6945 41.58 66 40.2847V19.25H60.5ZM22 5.5H44C45.518 5.5 46.75 6.732 46.75 8.25V32.3235C37.7052 29.6092 28.2975 29.6065 19.25 32.3235V8.25C19.25 6.732 20.4848 5.5 22 5.5ZM19.25 38.0682C28.2563 34.9965 37.741 34.9965 46.75 38.0682V40.1225C42.7378 40.7797 38.0985 41.25 33 41.25C27.9015 41.25 23.2623 40.7797 19.25 40.1225V38.0682Z" fill="#114499"/>
</g>
<defs>
<clipPath id="clip0_203_29">
<rect width="66" height="66" fill="white"/>
</clipPath>
</defs>
</svg>
