<svg width="67" height="67" viewBox="0 0 67 67" fill="none" xmlns="http://www.w3.org/2000/svg">
<path d="M26.5197 12.5625C26.5197 8.70721 29.6435 5.58333 33.4986 5.58333C37.3537 5.58333 40.4775 8.70721 40.4775 12.5625C40.4775 16.4178 37.3537 19.5417 33.4986 19.5417C29.6435 19.5417 26.5197 16.4178 26.5197 12.5625ZM47.4564 33.5V41.875C47.4564 45.9899 45.1952 49.5521 41.8733 51.4895V64.2083C41.8733 65.7493 40.6226 67 39.0817 67C37.5408 67 36.2902 65.7493 36.2902 64.2083V53.0417H30.7071V64.2083C30.7071 65.7493 29.4564 67 27.9155 67C26.3746 67 25.124 65.7493 25.124 64.2083V51.4895C21.802 49.5521 19.5409 45.9899 19.5409 41.875V33.5C19.5409 27.3416 24.5489 22.3333 30.7071 22.3333H36.2902C42.4483 22.3333 47.4564 27.3416 47.4564 33.5ZM41.8733 33.5C41.8733 30.4208 39.3692 27.9167 36.2902 27.9167H30.7071C27.628 27.9167 25.124 30.4208 25.124 33.5V41.875C25.124 44.9542 27.628 47.4583 30.7071 47.4583H36.2902C39.3692 47.4583 41.8733 44.9542 41.8733 41.875V33.5ZM54.4352 13.9583C58.2904 13.9583 61.4141 10.8345 61.4141 6.97917C61.4141 3.12388 58.2904 0 54.4352 0C50.5801 0 47.4564 3.12388 47.4564 6.97917C47.4564 10.8345 50.5801 13.9583 54.4352 13.9583ZM12.562 13.9583C16.4171 13.9583 19.5409 10.8345 19.5409 6.97917C19.5409 3.12388 16.4171 0 12.562 0C8.70685 0 5.5831 3.12388 5.5831 6.97917C5.5831 10.8345 8.70685 13.9583 12.562 13.9583ZM17.6817 17.3893C16.4869 16.965 15.2363 16.75 13.9578 16.75H11.1662C5.00804 16.75 0 21.7583 0 27.9167V36.2917C0 40.4066 2.26116 43.9688 5.5831 45.9062V58.625C5.5831 60.166 6.83372 61.4167 8.37465 61.4167C9.91559 61.4167 11.1662 60.166 11.1662 58.625V47.4583C12.7071 47.4583 13.9578 46.2077 13.9578 44.6667C13.9578 43.1257 12.7071 41.875 11.1662 41.875C8.08712 41.875 5.5831 39.3709 5.5831 36.2917V27.9167C5.5831 24.8375 8.08712 22.3333 11.1662 22.3333H13.9578C14.597 22.3333 15.2251 22.4394 15.8169 22.6488C17.2769 23.1653 18.8681 22.4031 19.3817 20.9515C19.8982 19.497 19.1389 17.903 17.6845 17.3865L17.6817 17.3893ZM55.831 16.75H53.0395C51.7609 16.75 50.5075 16.965 49.3155 17.3893C47.8611 17.9058 47.1046 19.4998 47.6183 20.9543C48.1347 22.4059 49.7175 23.1625 51.1831 22.6516C51.7749 22.4422 52.4002 22.3361 53.0422 22.3361H55.8338C58.9129 22.3361 61.4169 24.8403 61.4169 27.9195V36.2945C61.4169 39.3737 58.9129 41.8778 55.8338 41.8778C54.2929 41.8778 53.0422 43.1285 53.0422 44.6695C53.0422 46.2105 54.2929 47.4611 55.8338 47.4611V58.6278C55.8338 60.1688 57.0844 61.4195 58.6253 61.4195C60.1663 61.4195 61.4169 60.1688 61.4169 58.6278V45.909C64.7388 43.9715 67 40.4094 67 36.2945V27.9195C67 21.761 61.992 16.7528 55.8338 16.7528L55.831 16.75Z" fill="#149BD8"/>
</svg>
