<svg width="579" height="560" viewBox="0 0 579 560" fill="none" xmlns="http://www.w3.org/2000/svg">
<path d="M579 97.936C576.747 99.9598 574.599 102.098 572.564 104.342C570.929 106.323 569.874 108.754 568.404 110.89C566.555 113.559 564.386 115.943 561.174 116.999C559.218 117.639 557.168 118.055 555.248 118.743C552.51 119.703 550.507 121.815 550.839 124.887C551.289 129.336 548.539 132.005 545.233 134.164C544.006 135 542.577 135.492 541.096 135.587C539.48 135.824 538.001 136.631 536.926 137.861C535.85 139.092 535.249 140.666 535.229 142.301C535.229 145.86 535.324 149.478 535.526 153.061C535.506 155.437 534.734 157.746 533.321 159.656C532.562 160.842 531.152 161.696 530.216 162.835C528.912 164.46 527.454 166.097 527.276 168.316C527.187 170.07 527.187 171.828 527.276 173.582C527.276 175.647 527.442 177.722 527.549 179.786C527.829 184.657 527.197 189.537 525.688 194.176C524.953 196.453 524.633 198.992 523.424 200.973C522.215 202.954 522.038 205.303 520.046 206.667C519.857 206.785 519.62 207.034 519.632 207.212C519.738 209.585 517.546 210.652 516.621 212.42C515.697 214.187 514.772 215.979 513.907 217.805C513.67 218.401 513.488 219.016 513.362 219.644C512.959 221.115 512.579 222.574 512.176 224.045C511.667 225.86 510.991 227.604 510.647 229.502C509.948 232.717 509.356 235.955 508.798 239.193C508.372 241.732 509.984 243.464 511.536 245.042C513.494 247.035 514.981 249.443 515.886 252.088C516.91 255.616 517.495 259.258 517.629 262.93C517.838 265.76 518.234 268.574 518.814 271.352C519.348 273.278 520.108 275.133 521.078 276.88C523.452 281.223 524.173 286.281 523.104 291.115C522.322 295.872 521.926 300.684 521.919 305.504C521.826 308.202 522.315 310.889 523.353 313.381C523.929 314.851 524.408 316.356 524.787 317.889C524.088 317.426 523.602 317.129 523.14 316.797C510.482 307.461 497.871 298.066 485.153 288.802C454.277 266.049 420.245 247.934 384.135 235.03C370.282 230.088 356.084 226.174 341.656 223.322C340.412 223.039 339.154 222.821 337.887 222.669C336.939 222.574 336.619 222.206 336.56 221.257C336.287 216.857 336.157 212.432 335.552 208.078C334.367 199.265 333.182 190.427 331.392 181.72C325.466 152.574 315.451 124.781 304.191 97.2954C295.17 74.9469 284.881 53.132 273.375 31.9573C273.245 31.7201 273.126 31.471 272.948 31.1151C275.319 31.3167 277.476 31.5303 279.68 31.6726C280.495 31.7604 281.317 31.7284 282.122 31.5777C284.032 31.1489 286.03 31.3572 287.811 32.1708C288.654 32.4482 289.545 32.5481 290.428 32.4644C291.311 32.3807 292.167 32.1152 292.943 31.6845C294.088 31.2657 295.319 31.1387 296.525 31.3147C297.732 31.4907 298.875 31.9643 299.853 32.6928C302.068 34.3474 304.406 35.8305 306.846 37.1293C308.004 37.7166 309.339 37.8524 310.592 37.5105C311.844 37.1685 312.926 36.3732 313.626 35.2788C316.28 31.4354 318.722 27.4259 321.519 23.6774C322.885 21.7671 324.623 20.1531 326.628 18.9324C327.514 18.4297 328.526 18.1957 329.543 18.2589C330.559 18.322 331.535 18.6797 332.352 19.2883C333.366 20.0846 334.458 20.7761 335.612 21.3523C340.009 23.3571 343.849 22.1708 347.298 19.1103C349.752 16.9395 352.418 15.3262 355.879 15.694C357.8 15.9015 359.736 15.4856 361.402 14.5077C362.361 13.8294 363.229 13.0322 363.986 12.1352C365.349 10.7948 366.665 9.39504 368.028 8.05459C369.652 6.46502 373.279 6.21591 376.123 8.1139C377.821 9.26784 379.739 10.0566 381.757 10.4303C383.774 10.8039 385.848 10.7544 387.845 10.2847C389.452 10.0065 391.037 9.60996 392.586 9.09848C393.301 8.91332 393.947 8.52449 394.446 7.97914C394.944 7.43379 395.274 6.75535 395.395 6.02612C395.759 4.40615 396.461 2.88185 397.457 1.55399C397.991 0.794798 399.212 0.521963 400.124 0.0237427H402.981C404.581 0.533826 406.169 1.11508 407.793 1.55399C409.633 2.15245 411.526 2.5735 413.446 2.81141C416.409 3.02493 419.372 2.81141 422.395 2.90631C424.433 3.05378 426.458 3.35516 428.451 3.80785C431.273 4.59611 434.177 5.04999 437.104 5.16016C439.857 5.29754 442.614 4.94819 445.246 4.12813C446.385 3.72083 447.61 3.6146 448.802 3.81971C453.827 4.74498 457.798 7.7343 461.496 11.0202C465.194 14.3061 468.465 17.8292 472.021 21.1507C473.356 22.3692 474.814 23.4464 476.37 24.3654C478.753 25.7639 481.312 26.8371 483.98 27.5564C485.227 27.9823 486.376 28.6561 487.358 29.5374C488.76 30.8659 490.558 31.6991 492.478 31.9099C495.879 32.1234 498.748 30.3796 501.853 29.5374C504.468 28.6831 507.286 28.6831 509.901 29.5374C511.241 30.0789 512.683 30.3212 514.126 30.2474C515.569 30.1737 516.979 29.7856 518.257 29.1103C520.502 28.1234 522.316 26.3585 523.365 24.14C524.088 22.3132 525.57 21.4947 527.051 20.5813C527.395 20.452 527.774 20.452 528.118 20.5813C529.295 21.0594 530.357 21.7826 531.234 22.703C532.11 23.6233 532.782 24.7197 533.203 25.9194C534.151 28.4165 535.975 30.4826 538.335 31.7319C539.678 32.1886 540.924 32.8927 542.009 33.8078C542.507 34.3298 542.827 34.9941 543.36 35.516C545.102 37.0581 545.659 39.3357 546.916 41.1388C548.091 42.9127 549.577 44.4598 551.301 45.7058C553.361 46.8885 555.548 47.8355 557.82 48.5291C560.617 49.3583 563.117 50.9719 565.026 53.1791C565.634 53.9821 566.039 54.921 566.204 55.9149C566.369 56.9089 566.29 57.9282 565.974 58.885C565.522 60.7921 564.92 62.6604 564.173 64.4721C563.047 67.3191 563.77 69.5611 565.939 71.6608C567.219 72.847 568.641 74.4366 568.167 76.4057C567.741 78.378 566.967 80.2581 565.88 81.9573C564.517 83.6353 563.044 85.2205 561.47 86.7023C561.02 87.2005 560.463 88.2681 560.664 88.541C561.173 89.1646 561.904 89.5648 562.703 89.656C564.493 89.8102 566.259 89.5611 568.096 89.7391C570.038 89.9229 571.954 90.3207 573.809 90.9253C574.993 91.3567 576.072 92.0343 576.975 92.9136C577.878 93.7928 578.584 94.8536 579.047 96.0261L579 97.936Z" fill="#00A19A"/>
<path d="M325.288 228.434C325.442 246.69 322.242 264.46 317.229 281.922C312.353 299.524 306.099 316.714 298.526 333.333C292.106 347.433 283.283 360.306 272.45 371.376C270.862 372.978 269.357 374.354 266.868 374.448C264.379 374.543 261.914 375.184 259.425 375.48C258.761 375.412 258.131 375.152 257.613 374.73C257.095 374.309 256.711 373.745 256.509 373.108C256.236 371.922 257.078 371.305 257.884 370.617C258.591 370.106 259.141 369.408 259.472 368.6C259.851 367.058 258.725 366.085 256.45 366.133C254.174 366.18 251.709 366.596 249.338 366.773C245.783 367.046 242.227 367.45 238.671 367.45C235.791 367.45 232.923 366.904 230.031 366.69C229.207 366.767 228.435 367.128 227.849 367.713C227.262 368.298 226.898 369.069 226.819 369.893C226.819 372.586 226.949 375.279 227.115 377.96C227.178 378.595 227.053 379.235 226.756 379.8C226.459 380.365 226.003 380.831 225.444 381.139C221.284 383.594 221.39 388.683 223.073 391.91C223.779 393.07 224.186 394.386 224.259 395.741C224.152 397.983 222.315 399.3 220.419 399.905C217.176 400.888 213.722 400.941 210.451 400.059C209.581 399.888 208.703 399.765 207.819 399.692C207.145 399.67 206.497 399.425 205.976 398.996C205.455 398.567 205.091 397.977 204.939 397.319C204.9 396.803 204.659 396.323 204.268 395.983C203.878 395.644 203.37 395.471 202.853 395.504C199.682 395.325 196.505 395.727 193.478 396.69C190.982 397.575 188.371 398.09 185.727 398.221C181.864 398.248 178.003 398.074 174.159 397.699C173.2 397.553 172.266 397.274 171.385 396.868C169.513 396.141 167.652 395.386 165.803 394.603C165.157 394.362 164.547 394.035 163.989 393.63C163.564 393.194 163.168 392.73 162.804 392.242C162.306 391.744 161.619 391.388 161.251 390.807C159.805 388.434 158.431 386.062 158.3 383.155C158.239 382.247 157.988 381.362 157.564 380.556C157.139 379.751 156.55 379.044 155.835 378.482C153.252 376.249 151.32 373.359 150.241 370.119C149.076 366.786 147.326 363.689 145.073 360.973C144.386 360.154 144.457 358.6 144.386 357.414C144.406 356.248 144.485 355.084 144.623 353.926C144.628 353.791 144.602 353.657 144.546 353.533C144.49 353.41 144.407 353.301 144.303 353.215C141.932 352.171 141.778 349.787 141.268 347.734C140.993 346.261 140.889 344.76 140.96 343.262C141.024 340.356 140.197 337.499 138.59 335.077C137.848 334.009 136.803 333.188 135.59 332.721C134.377 332.254 133.052 332.161 131.786 332.456C129.416 332.989 127.259 333.938 124.948 334.543C122.161 335.378 119.322 336.028 116.45 336.489C112.948 336.894 109.426 337.092 105.901 337.082C100.899 337.082 95.8857 337.082 90.884 336.785C87.909 336.643 84.9578 336.062 82.0066 335.718C79.2331 335.397 76.4359 335.172 73.7099 334.828C72.0624 334.615 70.4387 334.223 68.7912 333.998C67.1437 333.772 65.1762 333.559 63.3628 333.428C60.1271 333.203 56.8914 332.811 53.6675 332.906C49.9321 333.057 46.2083 333.421 42.5145 333.998C36.7779 334.84 31.0769 335.919 25.3522 336.821C22.318 337.307 19.272 337.746 16.2141 338.007C14.4551 338.032 12.6966 337.933 10.9516 337.711C9.50435 337.538 8.04436 337.906 6.8507 338.743C3.8402 340.878 0.794141 338.612 0.130408 335.706C-0.0727752 334.525 0.0646138 333.311 0.52646 332.206C0.988306 331.101 1.75546 330.15 2.73793 329.466C5.19137 327.556 8.0952 327.367 10.8805 326.584C15.7281 325.208 17.4112 322.586 17.6601 317.829C17.6024 315.895 17.0603 314.007 16.0837 312.337C15.2733 310.968 14.9267 309.374 15.0954 307.792C15.2642 306.21 15.9393 304.725 17.02 303.559C18.9583 301.318 21.3937 299.563 24.1315 298.434C27.1775 297.153 30.0576 295.492 33.0681 294.116C35.4386 293.013 37.418 292.93 38.5676 295.172C38.7287 295.554 38.8518 295.952 38.9351 296.358C39.6225 298.873 41.5426 300.071 44.0197 299.205C46.1843 298.596 48.3033 297.835 50.3607 296.928C53.0275 295.54 54.1654 293.286 55.3506 290.866C56.204 289.122 57.1996 287.39 59.2856 286.987C60.1197 286.915 60.954 287.124 61.656 287.58C63.3272 288.577 64.951 289.537 66.9778 288.766C67.7909 288.419 68.5824 288.022 69.3482 287.58C71.2565 286.548 72.1098 286.773 73.461 288.458C74.5011 289.609 75.0573 291.118 75.0137 292.669C75.0137 294.721 76.1989 296.228 77.3841 297.794C78.1151 298.759 78.9768 299.617 79.9442 300.344C81.4613 301.459 83.1325 301.068 84.4718 299.656C86.143 297.877 88.0276 296.311 89.5921 294.448C91.3107 292.372 92.6855 290 94.333 287.877C95.3997 286.536 96.5968 285.042 98.5169 285.065C99.5711 285.029 100.605 284.766 101.548 284.293C102.491 283.82 103.321 283.149 103.981 282.325C105.218 280.842 106.544 279.436 107.951 278.114C109.61 276.966 111.349 275.939 113.155 275.042C113.664 274.745 114.186 274.46 114.707 274.187C117.753 272.598 121.036 271.186 122.708 267.983C123.856 265.903 124.604 263.626 124.912 261.269C125.056 258.157 124.992 255.038 124.722 251.934C124.636 249.139 125.348 246.378 126.773 243.974C127.945 241.796 128.278 239.264 127.709 236.856C127.33 234.994 126.69 233.167 126.524 231.293C126.344 230.091 126.405 228.864 126.702 227.685C126.999 226.506 127.527 225.398 128.255 224.425C130.838 221.139 133.6 217.995 136.196 214.698C137.523 213.013 138.625 211.139 139.834 209.371L142.015 206.145C143.52 203.938 145.049 201.756 146.531 199.549C148.936 195.607 151.871 192.014 155.254 188.873C157.104 187.487 159.314 186.664 161.619 186.501C163.032 186.377 164.4 185.946 165.629 185.237C166.857 184.528 167.916 183.558 168.73 182.396C170.274 180.307 171.39 177.932 172.013 175.409C172.357 173.76 173.424 172.218 173.602 170.569C173.802 168.199 173.77 165.816 173.507 163.452C173.363 161.563 173.659 159.667 174.372 157.912C175.297 155.421 175.925 152.811 176.814 150.297C177.604 147.601 177.979 144.801 177.928 141.993C178.046 139.075 178.165 136.145 178.2 133.227C178.2 131.815 177.94 130.415 177.951 129.004C177.839 125.872 178.326 122.747 179.386 119.798C180.476 117.07 181.697 114.389 182.835 111.684C183.295 110.604 183.485 109.428 183.388 108.258C183.29 107.088 182.909 105.96 182.278 104.97C181.67 104.044 181.397 102.938 181.505 101.835C181.613 100.732 182.095 99.6994 182.87 98.9087C185.257 96.2558 186.629 92.8441 186.746 89.2764C187.137 84.0332 189.531 79.6916 192.672 75.5991C195.234 72.458 197.378 68.9968 199.049 65.3025C200.309 62.5055 200.568 59.3597 199.784 56.3938C199.177 54.6958 199.009 52.8716 199.298 51.0914C199.518 50.0557 199.811 49.0369 200.175 48.0427C201.538 44.484 200.85 41.0676 199.369 37.6868C198.631 35.9575 197.983 34.1917 197.425 32.3962C196.56 29.656 198.61 27.153 201.656 27.0107C203.647 26.9158 205.65 26.726 207.582 26.5125C209.123 26.3464 209.87 24.9941 210.51 23.9265C211.97 21.5615 213.219 19.0726 214.243 16.4887C215.281 13.9599 216.863 11.6916 218.878 9.84579C221.876 6.97509 225.396 4.9229 229.687 4.86359C231.832 4.86424 233.947 5.36802 235.862 6.33452C239.162 7.94755 242.265 9.93789 245.107 12.2657C247.845 14.484 250.322 17.0107 252.882 19.3832C253.259 19.8036 253.582 20.2699 253.842 20.7711C267.778 44.3283 280.025 68.8463 290.49 94.14C300.159 116.523 308.382 139.504 315.107 162.942C319.037 176.64 321.913 190.619 323.712 204.757C324.648 212.61 325.004 220.534 325.632 228.482L325.288 228.434Z" fill="#1D71B8"/>
<path d="M285.37 374.448C287.74 371.507 290.111 368.731 292.303 365.836C301.253 353.808 308.523 340.614 313.91 326.619C321.244 308.693 327.188 290.228 331.689 271.388C334.432 259.56 336.079 247.504 336.607 235.374C336.607 234.958 336.667 234.531 336.714 233.879C342.249 235.125 347.725 236.252 353.118 237.58C388.675 246.619 421.719 261.601 452.903 280.83C467.126 289.62 480.566 299.62 493.983 309.62C504.769 317.675 515.791 325.397 526.719 333.25C527.052 333.411 527.332 333.665 527.525 333.98C527.718 334.295 527.817 334.66 527.81 335.03C527.79 338.955 528.296 342.865 529.315 346.655C530.094 349.623 531.644 352.332 533.807 354.508C535.746 356.359 537.827 358.057 540.03 359.585C542.922 361.874 545.885 364.069 548.694 366.453C551.181 368.72 552.921 371.691 553.684 374.97C554.466 377.77 555.26 380.569 555.924 383.393C556.587 386.216 557.038 388.932 557.666 391.696C558.116 393.725 558.768 395.706 559.195 397.734C559.335 398.476 559.293 399.24 559.072 399.961C558.851 400.682 558.458 401.339 557.927 401.874C555.829 404.247 552.961 404.543 550.104 404.816C548.753 404.947 547.354 404.816 545.991 404.816C540.492 405.077 535.004 405.338 529.517 405.694C528.374 405.89 527.246 406.159 526.139 406.501C521.523 407.342 517.102 409.031 513.101 411.483C510.25 413.244 507.734 415.497 505.67 418.138C503.394 421.139 500.834 423.915 498.558 426.88C497.032 428.859 495.62 430.922 494.327 433.061C493.832 433.958 493.703 435.011 493.965 436.001C494.228 436.992 494.863 437.842 495.737 438.375C498.428 440.178 500.312 442.361 500.241 445.991C500.109 448.92 499.595 451.819 498.712 454.615C497.959 457.823 497.409 461.076 497.065 464.354C497.032 464.96 497.142 465.565 497.385 466.121C498.359 468.373 499.182 470.687 499.85 473.049C500.202 474.966 500.137 476.936 499.66 478.826C498.937 481.851 497.456 484.698 496.84 487.722C496.093 491.4 494.374 494.84 494.469 498.707C494.433 499.732 494.249 500.747 493.924 501.72C492.916 505.421 494.789 507.889 497.408 510.024C500.028 512.159 502.683 514.199 505.314 516.299C507.945 518.399 510.861 520.807 513.67 523.013C515.4 524.609 517.591 525.614 519.928 525.884C521.301 526.07 522.695 525.774 523.875 525.048C525.054 524.321 525.947 523.208 526.399 521.898C527.442 519.597 528.296 519.253 530.571 519.834C533.203 520.498 534.4 521.779 534.566 524.721C534.696 526.975 534.376 529.253 534.364 531.53C534.308 532.985 534.419 534.442 534.696 535.872C535.656 539.322 535.81 542.946 535.146 546.465C534.935 547.128 534.665 547.771 534.34 548.387C533.452 550.7 532.551 553.025 531.709 555.35C531.52 555.86 531.555 556.453 531.413 556.987C531.285 557.676 530.966 558.315 530.492 558.831C530.018 559.347 529.409 559.719 528.734 559.905C526.826 560.308 525.427 559.11 524.515 557.533C524.002 556.602 523.683 555.577 523.578 554.52C523.365 552.859 522.263 551.993 520.746 552.669C519.936 553.03 519.213 553.56 518.624 554.223C518.041 554.971 517.236 555.515 516.324 555.777C515.413 556.039 514.443 556.006 513.551 555.682C509.918 554.598 506.72 552.394 504.413 549.383C503.028 547.47 502.148 545.238 501.853 542.894C501.486 540.629 500.668 538.482 498.013 537.604C495.121 536.643 494.007 534.259 493.355 531.435C492.703 528.612 491.091 526.346 487.737 526.026C484.726 525.741 481.704 525.457 478.741 524.84C476.102 524.429 473.53 523.663 471.096 522.562C466.995 520.522 464.803 516.868 462.148 513.582C460.477 511.507 459.042 509.229 457.478 507.058C456.186 505.279 452.844 503.95 450.817 504.781C449.999 505.113 449.454 506.418 449.015 507.378C448.269 509.039 447.83 510.842 447.036 512.479C445.649 515.35 442.129 515.919 439.415 514.994C436.701 514.069 434.674 512.195 432.209 510.937C430.123 509.834 428.072 508.292 425.346 508.565C422.594 508.907 419.817 508.99 417.049 508.814C414.584 508.624 412.024 508.814 409.665 507.628C407.71 506.607 405.446 506.145 403.834 504.52C402.816 503.459 401.862 502.338 400.978 501.163C399.532 499.288 399.449 496.975 398.844 494.804C398.553 493.925 398.064 493.124 397.414 492.464C396.765 491.804 395.973 491.302 395.099 490.996C393.348 490.334 391.412 490.364 389.682 491.08C388.574 491.635 387.6 492.424 386.826 493.393C385.769 494.579 384.461 495.514 382.997 496.13C381.533 496.745 379.95 497.026 378.363 496.951C376.384 496.951 374.416 497.189 372.437 497.189C371.654 497.216 370.877 497.036 370.185 496.667C368.395 495.623 368.348 494.567 370.102 492.823C371.062 491.862 371.169 491.198 370.221 490.19C367.495 487.284 364.946 484.259 362.126 481.412C360.075 479.383 357.823 480.676 356.65 482.503C354.943 485.172 353.39 486.655 350.036 484.259C349.042 483.611 347.886 483.256 346.701 483.233C345.515 483.21 344.346 483.52 343.328 484.128C341.944 485.118 340.433 485.916 338.836 486.501C336.904 487.015 334.906 487.231 332.909 487.141C328.311 486.963 323.736 485.67 319.113 486.963C317.347 487.523 315.825 488.67 314.799 490.214C313.993 491.317 313.069 492.325 312.203 493.381C312.087 493.578 311.929 493.747 311.74 493.877C311.552 494.006 311.337 494.094 311.111 494.132C310.886 494.17 310.655 494.159 310.434 494.099C310.213 494.039 310.008 493.932 309.833 493.784C309.002 493.165 308.365 492.321 307.996 491.352C307.343 488.891 306.82 486.396 306.431 483.879C306.03 482.19 305.902 480.448 306.052 478.719C306.467 477.364 307.162 476.111 308.091 475.042C309.572 472.883 309.857 470.427 310.236 467.924C310.923 463.488 309.714 459.158 309.608 454.769C309.608 452.669 308.422 451.696 306.206 451.032C304.323 450.488 302.595 449.505 301.164 448.165C299.732 446.825 298.637 445.166 297.969 443.322C296.787 440.757 296.317 437.922 296.606 435.113C297.032 432.242 297.791 429.431 298.395 426.584C298.473 425.387 298.636 424.198 298.881 423.025C299.836 419.876 300.213 416.581 299.995 413.298C299.995 412.467 300.304 411.613 300.232 410.795C299.912 407.082 299.581 403.345 299.047 399.656C298.952 398.98 297.862 398.47 297.127 397.877C296.035 397.144 295.004 396.322 294.046 395.421C293.134 394.364 292.68 392.988 292.782 391.595C292.885 390.203 293.535 388.908 294.591 387.995C295.207 387.52 295.689 386.893 295.99 386.176C296.291 385.459 296.401 384.675 296.309 383.903C296.037 382.017 295.823 380.119 295.586 378.233C295.547 377.755 295.321 377.312 294.956 377.001C294.592 376.69 294.12 376.536 293.643 376.572C290.679 376.738 288.143 375.469 285.37 374.448Z" fill="#27348B"/>
</svg>
