<svg width="631" height="576" viewBox="0 0 631 576" fill="none" xmlns="http://www.w3.org/2000/svg">
<g clip-path="url(#clip0_121_2)">
<path d="M579 109.936C576.747 111.96 574.599 114.098 572.564 116.342C570.929 118.323 569.874 120.754 568.404 122.89C566.555 125.559 564.386 127.943 561.174 128.999C559.218 129.639 557.168 130.055 555.248 130.743C552.51 131.703 550.507 133.815 550.839 136.887C551.289 141.336 548.539 144.005 545.233 146.164C544.006 147 542.577 147.492 541.096 147.587C539.48 147.824 538.001 148.631 536.926 149.861C535.85 151.092 535.249 152.666 535.229 154.301C535.229 157.86 535.324 161.478 535.526 165.061C535.506 167.437 534.734 169.746 533.321 171.656C532.562 172.842 531.152 173.696 530.216 174.835C528.912 176.46 527.454 178.097 527.276 180.316C527.187 182.07 527.187 183.828 527.276 185.582C527.276 187.647 527.442 189.722 527.549 191.786C527.829 196.657 527.197 201.537 525.688 206.176C524.953 208.453 524.633 210.992 523.424 212.973C522.215 214.954 522.038 217.303 520.046 218.667C519.857 218.785 519.62 219.034 519.632 219.212C519.738 221.585 517.546 222.652 516.621 224.42C515.697 226.187 514.772 227.979 513.907 229.805C513.67 230.401 513.488 231.016 513.362 231.644C512.959 233.115 512.579 234.574 512.176 236.045C511.667 237.86 510.991 239.604 510.647 241.502C509.948 244.717 509.356 247.955 508.798 251.193C508.372 253.732 509.984 255.464 511.536 257.042C513.494 259.035 514.981 261.443 515.886 264.088C516.91 267.616 517.495 271.258 517.629 274.93C517.838 277.76 518.234 280.574 518.814 283.352C519.348 285.278 520.108 287.133 521.078 288.88C523.452 293.223 524.173 298.281 523.104 303.115C522.322 307.872 521.926 312.684 521.919 317.504C521.826 320.202 522.315 322.889 523.353 325.381C523.929 326.851 524.408 328.356 524.787 329.889C524.088 329.426 523.602 329.129 523.14 328.797C510.482 319.461 497.871 310.066 485.153 300.802C454.277 278.049 420.245 259.934 384.135 247.03C370.282 242.088 356.084 238.174 341.656 235.322C340.412 235.039 339.154 234.821 337.887 234.669C336.939 234.574 336.619 234.206 336.56 233.257C336.287 228.857 336.157 224.432 335.552 220.078C334.367 211.265 333.182 202.427 331.392 193.72C325.466 164.574 315.451 136.781 304.191 109.295C295.17 86.9469 284.881 65.132 273.375 43.9573C273.245 43.7201 273.126 43.471 272.948 43.1151C275.319 43.3167 277.476 43.5303 279.68 43.6726C280.495 43.7604 281.317 43.7284 282.122 43.5777C284.032 43.1489 286.03 43.3572 287.811 44.1708C288.654 44.4482 289.545 44.5481 290.428 44.4644C291.311 44.3807 292.167 44.1152 292.943 43.6845C294.088 43.2657 295.319 43.1387 296.525 43.3147C297.732 43.4907 298.875 43.9643 299.853 44.6928C302.068 46.3474 304.406 47.8305 306.846 49.1293C308.004 49.7166 309.339 49.8524 310.592 49.5105C311.844 49.1685 312.926 48.3732 313.626 47.2788C316.28 43.4354 318.722 39.4259 321.519 35.6774C322.885 33.7671 324.623 32.1531 326.628 30.9324C327.514 30.4297 328.526 30.1957 329.543 30.2589C330.559 30.322 331.535 30.6797 332.352 31.2883C333.366 32.0846 334.458 32.7761 335.612 33.3523C340.009 35.3571 343.849 34.1708 347.298 31.1103C349.752 28.9395 352.418 27.3262 355.879 27.694C357.8 27.9015 359.736 27.4856 361.402 26.5077C362.361 25.8294 363.229 25.0322 363.986 24.1352C365.349 22.7948 366.665 21.395 368.028 20.0546C369.652 18.465 373.279 18.2159 376.123 20.1139C377.821 21.2678 379.739 22.0566 381.757 22.4303C383.774 22.8039 385.848 22.7544 387.845 22.2847C389.452 22.0065 391.037 21.61 392.586 21.0985C393.301 20.9133 393.947 20.5245 394.446 19.9791C394.944 19.4338 395.274 18.7553 395.395 18.0261C395.759 16.4061 396.461 14.8819 397.457 13.554C397.991 12.7948 399.212 12.522 400.124 12.0237H402.981C404.581 12.5338 406.169 13.1151 407.793 13.554C409.633 14.1524 411.526 14.5735 413.446 14.8114C416.409 15.0249 419.372 14.8114 422.395 14.9063C424.433 15.0538 426.458 15.3552 428.451 15.8078C431.273 16.5961 434.177 17.05 437.104 17.1602C439.857 17.2975 442.614 16.9482 445.246 16.1281C446.385 15.7208 447.61 15.6146 448.802 15.8197C453.827 16.745 457.798 19.7343 461.496 23.0202C465.194 26.3061 468.465 29.8292 472.021 33.1507C473.356 34.3692 474.814 35.4464 476.37 36.3654C478.753 37.7639 481.312 38.8371 483.98 39.5564C485.227 39.9823 486.376 40.6561 487.358 41.5374C488.76 42.8659 490.558 43.6991 492.478 43.9099C495.879 44.1234 498.748 42.3796 501.853 41.5374C504.468 40.6831 507.286 40.6831 509.901 41.5374C511.241 42.0789 512.683 42.3212 514.126 42.2474C515.569 42.1737 516.979 41.7856 518.257 41.1103C520.502 40.1234 522.316 38.3585 523.365 36.14C524.088 34.3132 525.57 33.4947 527.051 32.5813C527.395 32.452 527.774 32.452 528.118 32.5813C529.295 33.0594 530.357 33.7826 531.234 34.703C532.11 35.6233 532.782 36.7197 533.203 37.9194C534.151 40.4165 535.975 42.4826 538.335 43.7319C539.678 44.1886 540.924 44.8927 542.009 45.8078C542.507 46.3298 542.827 46.9941 543.36 47.516C545.102 49.0581 545.659 51.3357 546.916 53.1388C548.091 54.9127 549.577 56.4598 551.301 57.7058C553.361 58.8885 555.548 59.8355 557.82 60.5291C560.617 61.3583 563.117 62.9719 565.026 65.1791C565.634 65.9821 566.039 66.921 566.204 67.9149C566.369 68.9089 566.29 69.9282 565.974 70.885C565.522 72.7921 564.92 74.6604 564.173 76.4721C563.047 79.3191 563.77 81.5611 565.939 83.6608C567.219 84.847 568.641 86.4366 568.167 88.4057C567.741 90.378 566.967 92.2581 565.88 93.9573C564.517 95.6353 563.044 97.2205 561.47 98.7023C561.02 99.2005 560.463 100.268 560.664 100.541C561.173 101.165 561.904 101.565 562.703 101.656C564.493 101.81 566.259 101.561 568.096 101.739C570.038 101.923 571.954 102.321 573.809 102.925C574.993 103.357 576.072 104.034 576.975 104.914C577.878 105.793 578.584 106.854 579.047 108.026L579 109.936Z" fill="#00A19A"/>
<path d="M325.288 240.434C325.442 258.69 322.242 276.46 317.229 293.922C312.353 311.524 306.099 328.714 298.526 345.333C292.106 359.433 283.283 372.306 272.45 383.376C270.862 384.978 269.357 386.354 266.868 386.448C264.379 386.543 261.914 387.184 259.425 387.48C258.761 387.412 258.131 387.152 257.613 386.73C257.095 386.309 256.711 385.745 256.509 385.108C256.236 383.922 257.078 383.305 257.884 382.617C258.591 382.106 259.141 381.408 259.472 380.6C259.851 379.058 258.725 378.085 256.45 378.133C254.174 378.18 251.709 378.596 249.338 378.773C245.783 379.046 242.227 379.45 238.671 379.45C235.791 379.45 232.923 378.904 230.031 378.69C229.207 378.767 228.435 379.128 227.849 379.713C227.262 380.298 226.898 381.069 226.819 381.893C226.819 384.586 226.949 387.279 227.115 389.96C227.178 390.595 227.053 391.235 226.756 391.8C226.459 392.365 226.003 392.831 225.444 393.139C221.284 395.594 221.39 400.683 223.073 403.91C223.779 405.07 224.186 406.386 224.259 407.741C224.152 409.983 222.315 411.3 220.419 411.905C217.176 412.888 213.722 412.941 210.451 412.059C209.581 411.888 208.703 411.765 207.819 411.692C207.145 411.67 206.497 411.425 205.976 410.996C205.455 410.567 205.091 409.977 204.939 409.319C204.9 408.803 204.659 408.323 204.268 407.983C203.878 407.644 203.37 407.471 202.853 407.504C199.682 407.325 196.505 407.727 193.478 408.69C190.982 409.575 188.371 410.09 185.727 410.221C181.864 410.248 178.003 410.074 174.159 409.699C173.2 409.553 172.266 409.274 171.385 408.868C169.513 408.141 167.652 407.386 165.803 406.603C165.157 406.362 164.547 406.035 163.989 405.63C163.564 405.194 163.168 404.73 162.804 404.242C162.306 403.744 161.619 403.388 161.251 402.807C159.805 400.434 158.431 398.062 158.3 395.155C158.239 394.247 157.988 393.362 157.564 392.556C157.139 391.751 156.55 391.044 155.835 390.482C153.252 388.249 151.32 385.359 150.241 382.119C149.076 378.786 147.326 375.689 145.073 372.973C144.386 372.154 144.457 370.6 144.386 369.414C144.406 368.248 144.485 367.084 144.623 365.926C144.628 365.791 144.602 365.657 144.546 365.533C144.49 365.41 144.407 365.301 144.303 365.215C141.932 364.171 141.778 361.787 141.268 359.734C140.993 358.261 140.889 356.76 140.96 355.262C141.024 352.356 140.197 349.499 138.59 347.077C137.848 346.009 136.803 345.188 135.59 344.721C134.377 344.254 133.052 344.161 131.786 344.456C129.416 344.989 127.259 345.938 124.948 346.543C122.161 347.378 119.322 348.028 116.45 348.489C112.948 348.894 109.426 349.092 105.901 349.082C100.899 349.082 95.8857 349.082 90.884 348.785C87.909 348.643 84.9578 348.062 82.0066 347.718C79.2331 347.397 76.4359 347.172 73.7099 346.828C72.0624 346.615 70.4387 346.223 68.7912 345.998C67.1437 345.772 65.1762 345.559 63.3628 345.428C60.1271 345.203 56.8914 344.811 53.6675 344.906C49.9321 345.057 46.2083 345.421 42.5145 345.998C36.7779 346.84 31.0769 347.919 25.3522 348.821C22.318 349.307 19.272 349.746 16.2141 350.007C14.4551 350.032 12.6966 349.933 10.9516 349.711C9.50435 349.538 8.04436 349.906 6.8507 350.743C3.8402 352.878 0.794141 350.612 0.130408 347.706C-0.0727752 346.525 0.0646138 345.311 0.52646 344.206C0.988306 343.101 1.75546 342.15 2.73793 341.466C5.19137 339.556 8.0952 339.367 10.8805 338.584C15.7281 337.208 17.4112 334.586 17.6601 329.829C17.6024 327.895 17.0603 326.007 16.0837 324.337C15.2733 322.968 14.9267 321.374 15.0954 319.792C15.2642 318.21 15.9393 316.725 17.02 315.559C18.9583 313.318 21.3937 311.563 24.1315 310.434C27.1775 309.153 30.0576 307.492 33.0681 306.116C35.4386 305.013 37.418 304.93 38.5676 307.172C38.7287 307.554 38.8518 307.952 38.9351 308.358C39.6225 310.873 41.5426 312.071 44.0197 311.205C46.1843 310.596 48.3033 309.835 50.3607 308.928C53.0275 307.54 54.1654 305.286 55.3506 302.866C56.204 301.122 57.1996 299.39 59.2856 298.987C60.1197 298.915 60.954 299.124 61.656 299.58C63.3272 300.577 64.951 301.537 66.9778 300.766C67.7909 300.419 68.5824 300.022 69.3482 299.58C71.2565 298.548 72.1098 298.773 73.461 300.458C74.5011 301.609 75.0573 303.118 75.0137 304.669C75.0137 306.721 76.1989 308.228 77.3841 309.794C78.1151 310.759 78.9768 311.617 79.9442 312.344C81.4613 313.459 83.1325 313.068 84.4718 311.656C86.143 309.877 88.0276 308.311 89.5921 306.448C91.3107 304.372 92.6855 302 94.333 299.877C95.3997 298.536 96.5968 297.042 98.5169 297.065C99.5711 297.029 100.605 296.766 101.548 296.293C102.491 295.82 103.321 295.149 103.981 294.325C105.218 292.842 106.544 291.436 107.951 290.114C109.61 288.966 111.349 287.939 113.155 287.042C113.664 286.745 114.186 286.46 114.707 286.187C117.753 284.598 121.036 283.186 122.708 279.983C123.856 277.903 124.604 275.626 124.912 273.269C125.056 270.157 124.992 267.038 124.722 263.934C124.636 261.139 125.348 258.378 126.773 255.974C127.945 253.796 128.278 251.264 127.709 248.856C127.33 246.994 126.69 245.167 126.524 243.293C126.344 242.091 126.405 240.864 126.702 239.685C126.999 238.506 127.527 237.398 128.255 236.425C130.838 233.139 133.6 229.995 136.196 226.698C137.523 225.013 138.625 223.139 139.834 221.371L142.015 218.145C143.52 215.938 145.049 213.756 146.531 211.549C148.936 207.607 151.871 204.014 155.254 200.873C157.104 199.487 159.314 198.664 161.619 198.501C163.032 198.377 164.4 197.946 165.629 197.237C166.857 196.528 167.916 195.558 168.73 194.396C170.274 192.307 171.39 189.932 172.013 187.409C172.357 185.76 173.424 184.218 173.602 182.569C173.802 180.199 173.77 177.816 173.507 175.452C173.363 173.563 173.659 171.667 174.372 169.912C175.297 167.421 175.925 164.811 176.814 162.297C177.604 159.601 177.979 156.801 177.928 153.993C178.046 151.075 178.165 148.145 178.2 145.227C178.2 143.815 177.94 142.415 177.951 141.004C177.839 137.872 178.326 134.747 179.386 131.798C180.476 129.07 181.697 126.389 182.835 123.684C183.295 122.604 183.485 121.428 183.388 120.258C183.29 119.088 182.909 117.96 182.278 116.97C181.67 116.044 181.397 114.938 181.505 113.835C181.613 112.732 182.095 111.699 182.87 110.909C185.257 108.256 186.629 104.844 186.746 101.276C187.137 96.0332 189.531 91.6916 192.672 87.5991C195.234 84.458 197.378 80.9968 199.049 77.3025C200.309 74.5055 200.568 71.3597 199.784 68.3938C199.177 66.6958 199.009 64.8716 199.298 63.0914C199.518 62.0557 199.811 61.0369 200.175 60.0427C201.538 56.484 200.85 53.0676 199.369 49.6868C198.631 47.9575 197.983 46.1917 197.425 44.3962C196.56 41.656 198.61 39.153 201.656 39.0107C203.647 38.9158 205.65 38.726 207.582 38.5125C209.123 38.3464 209.87 36.9941 210.51 35.9265C211.97 33.5615 213.219 31.0726 214.243 28.4887C215.281 25.9599 216.863 23.6916 218.878 21.8458C221.876 18.9751 225.396 16.9229 229.687 16.8636C231.832 16.8642 233.947 17.368 235.862 18.3345C239.162 19.9475 242.265 21.9379 245.107 24.2657C247.845 26.484 250.322 29.0107 252.882 31.3832C253.259 31.8036 253.582 32.2699 253.842 32.7711C267.778 56.3283 280.025 80.8463 290.49 106.14C300.159 128.523 308.382 151.504 315.107 174.942C319.037 188.64 321.913 202.619 323.712 216.757C324.648 224.61 325.004 232.534 325.632 240.482L325.288 240.434Z" fill="#1D71B8"/>
<path d="M285.37 386.448C287.74 383.507 290.111 380.731 292.303 377.836C301.253 365.808 308.523 352.614 313.91 338.619C321.244 320.693 327.188 302.228 331.689 283.388C334.432 271.56 336.079 259.504 336.607 247.374C336.607 246.958 336.667 246.531 336.714 245.879C342.249 247.125 347.725 248.252 353.118 249.58C388.675 258.619 421.719 273.601 452.903 292.83C467.126 301.62 480.566 311.62 493.983 321.62C504.769 329.675 515.791 337.397 526.719 345.25C527.052 345.411 527.332 345.665 527.525 345.98C527.718 346.295 527.817 346.66 527.81 347.03C527.79 350.955 528.296 354.865 529.315 358.655C530.094 361.623 531.644 364.332 533.807 366.508C535.746 368.359 537.827 370.057 540.03 371.585C542.922 373.874 545.885 376.069 548.694 378.453C551.181 380.72 552.921 383.691 553.684 386.97C554.466 389.77 555.26 392.569 555.924 395.393C556.587 398.216 557.038 400.932 557.666 403.696C558.116 405.725 558.768 407.706 559.195 409.734C559.335 410.476 559.293 411.24 559.072 411.961C558.851 412.682 558.458 413.339 557.927 413.874C555.829 416.247 552.961 416.543 550.104 416.816C548.753 416.947 547.354 416.816 545.991 416.816C540.492 417.077 535.004 417.338 529.517 417.694C528.374 417.89 527.246 418.159 526.139 418.501C521.523 419.342 517.102 421.031 513.101 423.483C510.25 425.244 507.734 427.497 505.67 430.138C503.394 433.139 500.834 435.915 498.558 438.88C497.032 440.859 495.62 442.922 494.327 445.061C493.832 445.958 493.703 447.011 493.965 448.001C494.228 448.992 494.863 449.842 495.737 450.375C498.428 452.178 500.312 454.361 500.241 457.991C500.109 460.92 499.595 463.819 498.712 466.615C497.959 469.823 497.409 473.076 497.065 476.354C497.032 476.96 497.142 477.565 497.385 478.121C498.359 480.373 499.182 482.687 499.85 485.049C500.202 486.966 500.137 488.936 499.66 490.826C498.937 493.851 497.456 496.698 496.84 499.722C496.093 503.4 494.374 506.84 494.469 510.707C494.433 511.732 494.249 512.747 493.924 513.72C492.916 517.421 494.789 519.889 497.408 522.024C500.028 524.159 502.683 526.199 505.314 528.299C507.945 530.399 510.861 532.807 513.67 535.013C515.4 536.609 517.591 537.614 519.928 537.884C521.301 538.07 522.695 537.774 523.875 537.048C525.054 536.321 525.947 535.208 526.399 533.898C527.442 531.597 528.296 531.253 530.571 531.834C533.203 532.498 534.4 533.779 534.566 536.721C534.696 538.975 534.376 541.253 534.364 543.53C534.308 544.985 534.419 546.442 534.696 547.872C535.656 551.322 535.81 554.946 535.146 558.465C534.935 559.128 534.665 559.771 534.34 560.387C533.452 562.7 532.551 565.025 531.709 567.35C531.52 567.86 531.555 568.453 531.413 568.987C531.285 569.676 530.966 570.315 530.492 570.831C530.018 571.347 529.409 571.719 528.734 571.905C526.826 572.308 525.427 571.11 524.515 569.533C524.002 568.602 523.683 567.577 523.578 566.52C523.365 564.859 522.263 563.993 520.746 564.669C519.936 565.03 519.213 565.56 518.624 566.223C518.041 566.971 517.236 567.515 516.324 567.777C515.413 568.039 514.443 568.006 513.551 567.682C509.918 566.598 506.72 564.394 504.413 561.383C503.028 559.47 502.148 557.238 501.853 554.894C501.486 552.629 500.668 550.482 498.013 549.604C495.121 548.643 494.007 546.259 493.355 543.435C492.703 540.612 491.091 538.346 487.737 538.026C484.726 537.741 481.704 537.457 478.741 536.84C476.102 536.429 473.53 535.663 471.096 534.562C466.995 532.522 464.803 528.868 462.148 525.582C460.477 523.507 459.042 521.229 457.478 519.058C456.186 517.279 452.844 515.95 450.817 516.781C449.999 517.113 449.454 518.418 449.015 519.378C448.269 521.039 447.83 522.842 447.036 524.479C445.649 527.35 442.129 527.919 439.415 526.994C436.701 526.069 434.674 524.195 432.209 522.937C430.123 521.834 428.072 520.292 425.346 520.565C422.594 520.907 419.817 520.99 417.049 520.814C414.584 520.624 412.024 520.814 409.665 519.628C407.71 518.607 405.446 518.145 403.834 516.52C402.816 515.459 401.862 514.338 400.978 513.163C399.532 511.288 399.449 508.975 398.844 506.804C398.553 505.925 398.064 505.124 397.414 504.464C396.765 503.804 395.973 503.302 395.099 502.996C393.348 502.334 391.412 502.364 389.682 503.08C388.574 503.635 387.6 504.424 386.826 505.393C385.769 506.579 384.461 507.514 382.997 508.13C381.533 508.745 379.95 509.026 378.363 508.951C376.384 508.951 374.416 509.189 372.437 509.189C371.654 509.216 370.877 509.036 370.185 508.667C368.395 507.623 368.348 506.567 370.102 504.823C371.062 503.862 371.169 503.198 370.221 502.19C367.495 499.284 364.946 496.259 362.126 493.412C360.075 491.383 357.823 492.676 356.65 494.503C354.943 497.172 353.39 498.655 350.036 496.259C349.042 495.611 347.886 495.256 346.701 495.233C345.515 495.21 344.346 495.52 343.328 496.128C341.944 497.118 340.433 497.916 338.836 498.501C336.904 499.015 334.906 499.231 332.909 499.141C328.311 498.963 323.736 497.67 319.113 498.963C317.347 499.523 315.825 500.67 314.799 502.214C313.993 503.317 313.069 504.325 312.203 505.381C312.087 505.578 311.929 505.747 311.74 505.877C311.552 506.006 311.337 506.094 311.111 506.132C310.886 506.17 310.655 506.159 310.434 506.099C310.213 506.039 310.008 505.932 309.833 505.784C309.002 505.165 308.365 504.321 307.996 503.352C307.343 500.891 306.82 498.396 306.431 495.879C306.03 494.19 305.902 492.448 306.052 490.719C306.467 489.364 307.162 488.111 308.091 487.042C309.572 484.883 309.857 482.427 310.236 479.924C310.923 475.488 309.714 471.158 309.608 466.769C309.608 464.669 308.422 463.696 306.206 463.032C304.323 462.488 302.595 461.505 301.164 460.165C299.732 458.825 298.637 457.166 297.969 455.322C296.787 452.757 296.317 449.922 296.606 447.113C297.032 444.242 297.791 441.431 298.395 438.584C298.473 437.387 298.636 436.198 298.881 435.025C299.836 431.876 300.213 428.581 299.995 425.298C299.995 424.467 300.304 423.613 300.232 422.795C299.912 419.082 299.581 415.345 299.047 411.656C298.952 410.98 297.862 410.47 297.127 409.877C296.035 409.144 295.004 408.322 294.046 407.421C293.134 406.364 292.68 404.988 292.782 403.595C292.885 402.203 293.535 400.908 294.591 399.995C295.207 399.52 295.689 398.893 295.99 398.176C296.291 397.459 296.401 396.675 296.309 395.903C296.037 394.017 295.823 392.119 295.586 390.233C295.547 389.755 295.321 389.312 294.956 389.001C294.592 388.69 294.12 388.536 293.643 388.572C290.679 388.738 288.143 387.469 285.37 386.448Z" fill="#27348B"/>
</g>
<defs>
<clipPath id="clip0_121_2">
<rect width="579" height="560" fill="white" transform="translate(0 12)"/>
</clipPath>
</defs>
</svg>
